SplineFontDB: 3.2
FontName: Jura-Regular
FullName: Jura Regular
FamilyName: Jura
Weight: Book
Copyright: Copyright 2019 The Jura Project Authors (https://github.com/ossobuffo/jura)
Version: 5.104
ItalicAngle: 0
UnderlinePosition: -125
UnderlineWidth: 50
Ascent: 1600
Descent: 400
InvalidEm: 0
sfntRevision: 0x00051aa0
LayerCount: 2
Layer: 0 1 "+BBcEMAQ0BD0EOAQ5 +BD8EOwQwBD0A" 1
Layer: 1 1 "+BB8ENQRABDUENAQ9BDgEOQAA +BD8EOwQwBD0A" 0
XUID: [1021 21 1392231673 12636]
StyleMap: 0x0040
FSType: 0
OS2Version: 4
OS2_WeightWidthSlopeOnly: 0
OS2_UseTypoMetrics: 1
CreationTime: 1562772782
ModificationTime: 1619199789
PfmFamily: 81
TTFWeight: 400
TTFWidth: 5
LineGap: 0
VLineGap: 0
Panose: 0 0 0 0 0 0 0 0 0 0
OS2TypoAscent: 1930
OS2TypoAOffset: 0
OS2TypoDescent: -436
OS2TypoDOffset: 0
OS2TypoLinegap: 0
OS2WinAscent: 2203
OS2WinAOffset: 0
OS2WinDescent: 456
OS2WinDOffset: 0
HheadAscent: 1930
HheadAOffset: 0
HheadDescent: -436
HheadDOffset: 0
OS2SubXSize: 1300
OS2SubYSize: 1200
OS2SubXOff: 0
OS2SubYOff: 150
OS2SupXSize: 1300
OS2SupYSize: 1200
OS2SupXOff: 0
OS2SupYOff: 700
OS2StrikeYSize: 50
OS2StrikeYPos: 553
OS2CapHeight: 1266
OS2XHeight: 922
OS2Vendor: 'GOOG'
OS2CodePages: 2000019f.00000000
OS2UnicodeRanges: e00002ff.4000204b.00000020.00100000
Lookup: 1 0 0 "'aalt' +BBIEQQQ1 +BDAEOwRMBEIENQRABD0EMARCBDgEMgQ9BEsENQAA +BDIEMARABDgEMAQ9BEIESwAA in Latin lookup 0" { "'aalt' +BBIEQQQ1 +BDAEOwRMBEIENQRABD0EMARCBDgEMgQ9BEsENQAA +BDIEMARABDgEMAQ9BEIESwAA in Latin lookup 0 subtable"  } ['aalt' ('DFLT' <'dflt' > 'latn' <'AZE ' 'CAT ' 'CRT ' 'KAZ ' 'MOL ' 'NLD ' 'ROM ' 'TAT ' 'TRK ' 'dflt' > ) ]
Lookup: 3 0 0 "'aalt' +BBIEQQQ1 +BDAEOwRMBEIENQRABD0EMARCBDgEMgQ9BEsENQAA +BDIEMARABDgEMAQ9BEIESwAA in Latin lookup 1" { "'aalt' +BBIEQQQ1 +BDAEOwRMBEIENQRABD0EMARCBDgEMgQ9BEsENQAA +BDIEMARABDgEMAQ9BEIESwAA in Latin lookup 1 subtable"  } ['aalt' ('DFLT' <'dflt' > 'latn' <'AZE ' 'CAT ' 'CRT ' 'KAZ ' 'MOL ' 'NLD ' 'ROM ' 'TAT ' 'TRK ' 'dflt' > ) ]

StartChar: .notdef
Encoding: 65536 -1 0
Width: 1000
Flags: W
LayerCount: 2
Fore
SplineSet
100 -400 m 1,0,-1
 900 -400 l 1,1,-1
 900 1387 l 1,2,-1
 100 1387 l 1,3,-1
 100 -400 l 1,0,-1
200 -300 m 1,4,-1
 200 1287 l 1,5,-1
 800 1287 l 1,6,-1
 800 -300 l 1,7,-1
 200 -300 l 1,4,-1
EndSplineSet
EndChar

StartChar: A
Encoding: 65 65 1
Width: 1229
GlyphClass: 2
Flags: W
AnchorPoint: "+BBEENQQ3BEsEPARPBD0EPQQ+BDUA--3" 1112 0 basechar 0
AnchorPoint: "+BBEENQQ3BEsEPARPBD0EPQQ+BDUA--2" 614 0 basechar 0
AnchorPoint: "+BBEENQQ3BEsEPARPBD0EPQQ+BDUA--0" 614 1289 basechar 0
LayerCount: 2
Fore
SplineSet
86 5 m 0,0,1
 38 26 38 26 57 75 c 2,2,-1
 553 1248 l 2,3,4
 569 1289 569 1289 612 1289 c 2,5,-1
 618 1289 l 2,6,7
 659 1288 659 1288 676 1248 c 2,8,-1
 1172 75 l 2,9,10
 1192 26 1192 26 1144 5 c 0,11,12
 1095 -15 1095 -15 1076 33 c 2,13,-1
 943 348 l 1,14,-1
 288 348 l 1,15,-1
 155 33 l 2,16,17
 135 -15 135 -15 86 5 c 0,0,1
331 453 m 1,18,-1
 899 453 l 1,19,-1
 615 1123 l 1,20,-1
 331 453 l 1,18,-1
EndSplineSet
Substitution2: "'c2sc' +BBoEMAQ/BDgEQgQ1BDsETAAA +BDgENwAA +BD8EQAQ+BD8EOARBBD0ESwRF in Latin lookup 33 subtable" a.sc
Substitution2: "Single Substitution lookup 23 subtable" ordfeminine
AlternateSubs2: "'aalt' +BBIEQQQ1 +BDAEOwRMBEIENQRABD0EMARCBDgEMgQ9BEsENQAA +BDIEMARABDgEMAQ9BEIESwAA in Latin lookup 1 subtable" a.sc ordfeminine
EndChar

StartChar: AE
Encoding: 198 198 26
Width: 1655
GlyphClass: 2
Flags: W
AnchorPoint: "+BBEENQQ3BEsEPARPBD0EPQQ+BDUA--2" 1018 0 basechar 0
AnchorPoint: "+BBEENQQ3BEsEPARPBD0EPQQ+BDUA--0" 1030 1289 basechar 0
LayerCount: 2
Fore
SplineSet
868 0 m 2,0,1
 815 0 815 0 815 53 c 2,2,-1
 815 348 l 1,3,-1
 334 349 l 1,4,-1
 153 29 l 2,5,6
 126 -18 126 -18 81 8 c 0,7,8
 35 36 35 36 61 80 c 2,9,-1
 723 1252 l 2,10,11
 734 1272 734 1272 749 1280.5 c 128,-1,12
 764 1289 764 1289 785 1289 c 2,13,-1
 1522 1289 l 2,14,15
 1574 1289 1574 1289 1574 1236 c 0,16,17
 1574 1184 1574 1184 1522 1184 c 2,18,-1
 920 1184 l 1,19,-1
 920 705 l 1,20,-1
 1286 705 l 2,21,22
 1338 705 1338 705 1338 653 c 0,23,24
 1338 600 1338 600 1286 600 c 2,25,-1
 920 600 l 1,26,-1
 920 105 l 1,27,-1
 1522 105 l 2,28,29
 1574 105 1574 105 1574 53 c 0,30,31
 1574 0 1574 0 1522 0 c 2,32,-1
 868 0 l 2,0,1
392 453 m 1,33,-1
 815 453 l 1,34,-1
 815 1174 l 1,35,-1
 796 1174 l 1,36,-1
 392 453 l 1,33,-1
EndSplineSet
EndChar

StartChar: B
Encoding: 66 66 28
Width: 1241
GlyphClass: 2
Flags: W
AnchorPoint: "+BBEENQQ3BEsEPARPBD0EPQQ+BDUA--2" 621 0 basechar 0
AnchorPoint: "+BBEENQQ3BEsEPARPBD0EPQQ+BDUA--0" 619 1289 basechar 0
LayerCount: 2
Fore
SplineSet
240 0 m 2,0,1
 187 0 187 0 187 53 c 2,2,-1
 187 1236 l 2,3,4
 187 1289 187 1289 240 1289 c 2,5,-1
 762 1289 l 2,6,7
 909 1289 909 1289 984.5 1214.5 c 128,-1,8
 1060 1140 1060 1140 1060 996 c 2,9,-1
 1060 942 l 2,10,11
 1060 785 1060 785 959 720 c 1,12,13
 1134 648 1134 648 1134 408 c 2,14,-1
 1134 345 l 2,15,16
 1134 175 1134 175 1046.5 87.5 c 128,-1,17
 959 0 959 0 788 0 c 2,18,-1
 240 0 l 2,0,1
292 105 m 1,19,-1
 788 105 l 2,20,21
 915 105 915 105 972 162 c 128,-1,22
 1029 219 1029 219 1029 345 c 2,23,-1
 1029 408 l 2,24,25
 1029 534 1029 534 972.5 590 c 128,-1,26
 916 646 916 646 788 646 c 2,27,-1
 292 646 l 1,28,-1
 292 105 l 1,19,-1
292 751 m 1,29,-1
 777 751 l 2,30,31
 868 751 868 751 911.5 797.5 c 128,-1,32
 955 844 955 844 955 942 c 2,33,-1
 955 996 l 2,34,35
 955 1096 955 1096 909.5 1140 c 128,-1,36
 864 1184 864 1184 762 1184 c 2,37,-1
 292 1184 l 1,38,-1
 292 751 l 1,29,-1
EndSplineSet
EndChar

StartChar: C
Encoding: 67 67 30
Width: 1331
GlyphClass: 2
Flags: W
AnchorPoint: "+BBEENQQ3BEsEPARPBD0EPQQ+BDUA--2" 698 0 basechar 0
AnchorPoint: "+BBEENQQ3BEsEPARPBD0EPQQ+BDUA--0" 686 1289 basechar 0
LayerCount: 2
Fore
SplineSet
577 0 m 2,0,1
 360 0 360 0 260 100 c 128,-1,2
 160 200 160 200 160 417 c 2,3,-1
 160 872 l 2,4,5
 160 1091 160 1091 259.5 1190 c 128,-1,6
 359 1289 359 1289 575 1289 c 2,7,-1
 817 1289 l 2,8,9
 1001 1289 1001 1289 1091 1212.5 c 128,-1,10
 1181 1136 1181 1136 1190 967 c 0,11,12
 1193 940 1193 940 1179.5 926 c 128,-1,13
 1166 912 1166 912 1140 912 c 0,14,15
 1090 912 1090 912 1085 965 c 0,16,17
 1078 1089 1078 1089 1017 1136.5 c 128,-1,18
 956 1184 956 1184 817 1184 c 2,19,-1
 575 1184 l 2,20,21
 460 1184 460 1184 392 1154.5 c 128,-1,22
 324 1125 324 1125 294.5 1056.5 c 128,-1,23
 265 988 265 988 265 872 c 2,24,-1
 265 417 l 2,25,26
 265 301 265 301 295 233 c 128,-1,27
 325 165 325 165 393 135 c 128,-1,28
 461 105 461 105 577 105 c 2,29,-1
 817 105 l 2,30,31
 956 105 956 105 1017 152.5 c 128,-1,32
 1078 200 1078 200 1085 324 c 0,33,34
 1090 377 1090 377 1140 377 c 0,35,36
 1166 377 1166 377 1179.5 362.5 c 128,-1,37
 1193 348 1193 348 1190 322 c 0,38,39
 1181 153 1181 153 1091 76.5 c 128,-1,40
 1001 0 1001 0 817 0 c 2,41,-1
 577 0 l 2,0,1
EndSplineSet
EndChar

StartChar: D
Encoding: 68 68 36
Width: 1358
GlyphClass: 2
Flags: W
AnchorPoint: "+BBEENQQ3BEsEPARPBD0EPQQ+BDUA--4" 323 651 basechar 0
AnchorPoint: "+BBEENQQ3BEsEPARPBD0EPQQ+BDUA--2" 663 0 basechar 0
AnchorPoint: "+BBEENQQ3BEsEPARPBD0EPQQ+BDUA--0" 621 1289 basechar 0
LayerCount: 2
Fore
SplineSet
240 0 m 2,0,1
 187 0 187 0 187 53 c 2,2,-1
 187 1236 l 2,3,4
 187 1289 187 1289 240 1289 c 2,5,-1
 722 1289 l 2,6,7
 971 1289 971 1289 1084.5 1175 c 128,-1,8
 1198 1061 1198 1061 1198 812 c 2,9,-1
 1198 477 l 2,10,11
 1198 228 1198 228 1084.5 114 c 128,-1,12
 971 0 971 0 722 0 c 2,13,-1
 240 0 l 2,0,1
292 105 m 1,14,-1
 722 105 l 2,15,16
 858 105 858 105 939.5 141 c 128,-1,17
 1021 177 1021 177 1057 258.5 c 128,-1,18
 1093 340 1093 340 1093 477 c 2,19,-1
 1093 812 l 2,20,21
 1093 948 1093 948 1057 1029.5 c 128,-1,22
 1021 1111 1021 1111 939.5 1147.5 c 128,-1,23
 858 1184 858 1184 722 1184 c 2,24,-1
 292 1184 l 1,25,-1
 292 105 l 1,14,-1
EndSplineSet
EndChar

StartChar: E
Encoding: 69 69 45
Width: 1122
GlyphClass: 2
Flags: W
AnchorPoint: "+BBEENQQ3BEsEPARPBD0EPQQ+BDUA--3" 985 21 basechar 0
AnchorPoint: "+BBEENQQ3BEsEPARPBD0EPQQ+BDUA--2" 623 0 basechar 0
AnchorPoint: "+BBEENQQ3BEsEPARPBD0EPQQ+BDUA--0" 649 1289 basechar 0
LayerCount: 2
Fore
SplineSet
240 0 m 2,0,1
 187 0 187 0 187 53 c 2,2,-1
 187 1236 l 2,3,4
 187 1289 187 1289 240 1289 c 2,5,-1
 989 1289 l 2,6,7
 1042 1289 1042 1289 1042 1236 c 0,8,9
 1042 1184 1042 1184 989 1184 c 2,10,-1
 292 1184 l 1,11,-1
 292 705 l 1,12,-1
 753 705 l 2,13,14
 806 705 806 705 806 653 c 0,15,16
 806 600 806 600 753 600 c 2,17,-1
 292 600 l 1,18,-1
 292 105 l 1,19,-1
 989 105 l 2,20,21
 1042 105 1042 105 1042 53 c 0,22,23
 1042 0 1042 0 989 0 c 2,24,-1
 240 0 l 2,0,1
EndSplineSet
Substitution2: "'c2sc' +BBoEMAQ/BDgEQgQ1BDsETAAA +BDgENwAA +BD8EQAQ+BD8EOARBBD0ESwRF in Latin lookup 33 subtable" e.sc
Substitution2: "'aalt' +BBIEQQQ1 +BDAEOwRMBEIENQRABD0EMARCBDgEMgQ9BEsENQAA +BDIEMARABDgEMAQ9BEIESwAA in Latin lookup 0 subtable" e.sc
EndChar

StartChar: F
Encoding: 70 70 65
Width: 1013
GlyphClass: 2
Flags: W
AnchorPoint: "+BBEENQQ3BEsEPARPBD0EPQQ+BDUA--2" 373 0 basechar 0
AnchorPoint: "+BBEENQQ3BEsEPARPBD0EPQQ+BDUA--0" 625 1289 basechar 0
LayerCount: 2
Fore
SplineSet
240 0 m 0,0,1
 187 0 187 0 187 53 c 2,2,-1
 187 1236 l 2,3,4
 187 1289 187 1289 240 1289 c 2,5,-1
 961 1289 l 2,6,7
 986 1289 986 1289 999.5 1275.5 c 128,-1,8
 1013 1262 1013 1262 1013 1236 c 0,9,10
 1013 1184 1013 1184 961 1184 c 2,11,-1
 292 1184 l 1,12,-1
 292 705 l 1,13,-1
 748 705 l 2,14,15
 801 705 801 705 801 653 c 0,16,17
 801 600 801 600 748 600 c 2,18,-1
 292 600 l 1,19,-1
 292 53 l 2,20,21
 292 0 292 0 240 0 c 0,0,1
EndSplineSet
EndChar

StartChar: G
Encoding: 71 71 67
Width: 1333
GlyphClass: 2
Flags: W
AnchorPoint: "+BBEENQQ3BEsEPARPBD0EPQQ+BDUA--2" 686 0 basechar 0
AnchorPoint: "+BBEENQQ3BEsEPARPBD0EPQQ+BDUA--0" 682 1289 basechar 0
LayerCount: 2
Fore
SplineSet
577 0 m 2,0,1
 360 0 360 0 260 100 c 128,-1,2
 160 200 160 200 160 417 c 2,3,-1
 160 872 l 2,4,5
 160 1091 160 1091 259.5 1190 c 128,-1,6
 359 1289 359 1289 575 1289 c 2,7,-1
 817 1289 l 2,8,9
 1001 1289 1001 1289 1091 1212.5 c 128,-1,10
 1181 1136 1181 1136 1190 967 c 0,11,12
 1193 940 1193 940 1179.5 926 c 128,-1,13
 1166 912 1166 912 1140 912 c 0,14,15
 1090 912 1090 912 1085 965 c 0,16,17
 1078 1089 1078 1089 1017 1136.5 c 128,-1,18
 956 1184 956 1184 817 1184 c 2,19,-1
 575 1184 l 2,20,21
 460 1184 460 1184 392 1154.5 c 128,-1,22
 324 1125 324 1125 294.5 1056.5 c 128,-1,23
 265 988 265 988 265 872 c 2,24,-1
 265 417 l 2,25,26
 265 301 265 301 295 233 c 128,-1,27
 325 165 325 165 393 135 c 128,-1,28
 461 105 461 105 577 105 c 2,29,-1
 817 105 l 2,30,31
 919 105 919 105 978.5 130 c 128,-1,32
 1038 155 1038 155 1063 214 c 128,-1,33
 1088 273 1088 273 1088 377 c 2,34,-1
 1088 502 l 1,35,-1
 869 504 l 2,36,37
 817 504 817 504 817 557 c 0,38,39
 817 609 817 609 869 609 c 2,40,-1
 1141 607 l 2,41,42
 1193 607 1193 607 1193 555 c 2,43,-1
 1193 377 l 2,44,45
 1193 179 1193 179 1104 89.5 c 128,-1,46
 1015 0 1015 0 817 0 c 2,47,-1
 577 0 l 2,0,1
EndSplineSet
EndChar

StartChar: H
Encoding: 72 72 73
Width: 1423
GlyphClass: 2
Flags: W
AnchorPoint: "+BBEENQQ3BEsEPARPBD0EPQQ+BDUA--4" 712 948 basechar 0
AnchorPoint: "+BBEENQQ3BEsEPARPBD0EPQQ+BDUA--2" 712 0 basechar 0
AnchorPoint: "+BBEENQQ3BEsEPARPBD0EPQQ+BDUA--0" 712 1289 basechar 0
LayerCount: 2
Fore
SplineSet
240 0 m 256,0,1
 216 0 216 0 201.5 14.5 c 128,-1,2
 187 29 187 29 187 53 c 2,3,-1
 187 1236 l 2,4,5
 187 1260 187 1260 201.5 1274.5 c 128,-1,6
 216 1289 216 1289 240 1289 c 256,7,8
 264 1289 264 1289 278 1274.5 c 128,-1,9
 292 1260 292 1260 292 1236 c 2,10,-1
 292 706 l 1,11,-1
 1131 706 l 1,12,-1
 1131 1236 l 2,13,14
 1131 1260 1131 1260 1145 1274.5 c 128,-1,15
 1159 1289 1159 1289 1183 1289 c 256,16,17
 1207 1289 1207 1289 1221.5 1274.5 c 128,-1,18
 1236 1260 1236 1260 1236 1236 c 2,19,-1
 1236 53 l 2,20,21
 1236 29 1236 29 1221.5 14.5 c 128,-1,22
 1207 0 1207 0 1183 0 c 256,23,24
 1159 0 1159 0 1145 14.5 c 128,-1,25
 1131 29 1131 29 1131 53 c 2,26,-1
 1131 601 l 1,27,-1
 292 601 l 1,28,-1
 292 53 l 2,29,30
 292 29 292 29 278 14.5 c 128,-1,31
 264 0 264 0 240 0 c 256,0,1
EndSplineSet
EndChar

StartChar: I
Encoding: 73 73 76
Width: 479
GlyphClass: 2
Flags: W
AnchorPoint: "+BBEENQQ3BEsEPARPBD0EPQQ+BDUA--3" 226 4 basechar 0
AnchorPoint: "+BBEENQQ3BEsEPARPBD0EPQQ+BDUA--2" 240 0 basechar 0
AnchorPoint: "+BBEENQQ3BEsEPARPBD0EPQQ+BDUA--0" 240 1289 basechar 0
LayerCount: 2
Fore
SplineSet
240 0 m 0,0,1
 215 0 215 0 201 14 c 128,-1,2
 187 28 187 28 187 53 c 2,3,-1
 187 1237 l 2,4,5
 187 1262 187 1262 201 1276 c 128,-1,6
 215 1290 215 1290 240 1290 c 0,7,8
 264 1290 264 1290 278 1276 c 128,-1,9
 292 1262 292 1262 292 1237 c 2,10,-1
 292 53 l 2,11,12
 292 28 292 28 278 14 c 128,-1,13
 264 0 264 0 240 0 c 0,0,1
EndSplineSet
Substitution2: "'c2sc' +BBoEMAQ/BDgEQgQ1BDsETAAA +BDgENwAA +BD8EQAQ+BD8EOARBBD0ESwRF in Latin lookup 33 subtable" i.sc
Substitution2: "'aalt' +BBIEQQQ1 +BDAEOwRMBEIENQRABD0EMARCBDgEMgQ9BEsENQAA +BDIEMARABDgEMAQ9BEIESwAA in Latin lookup 0 subtable" i.sc
EndChar

StartChar: J
Encoding: 74 74 90
Width: 1060
GlyphClass: 2
Flags: W
AnchorPoint: "+BBEENQQ3BEsEPARPBD0EPQQ+BDUA--2" 470 0 basechar 0
AnchorPoint: "+BBEENQQ3BEsEPARPBD0EPQQ+BDUA--0" 827 1289 basechar 0
LayerCount: 2
Fore
SplineSet
424 0 m 2,0,1
 240 0 240 0 150.5 77 c 128,-1,2
 61 154 61 154 50 322 c 0,3,4
 48 348 48 348 61 362.5 c 128,-1,5
 74 377 74 377 101 377 c 0,6,7
 151 377 151 377 155 324 c 0,8,9
 163 200 163 200 223.5 152.5 c 128,-1,10
 284 105 284 105 424 105 c 2,11,-1
 506 105 l 2,12,13
 609 105 609 105 668 130 c 128,-1,14
 727 155 727 155 752.5 214.5 c 128,-1,15
 778 274 778 274 778 377 c 2,16,-1
 778 1236 l 2,17,18
 778 1289 778 1289 830 1289 c 0,19,20
 883 1289 883 1289 883 1236 c 2,21,-1
 883 377 l 2,22,23
 883 179 883 179 793.5 89.5 c 128,-1,24
 704 0 704 0 506 0 c 2,25,-1
 424 0 l 2,0,1
EndSplineSet
EndChar

StartChar: K
Encoding: 75 75 92
Width: 1102
GlyphClass: 2
Flags: W
AnchorPoint: "+BBEENQQ3BEsEPARPBD0EPQQ+BDUA--2" 556 0 basechar 0
AnchorPoint: "+BBEENQQ3BEsEPARPBD0EPQQ+BDUA--0" 543 1289 basechar 0
LayerCount: 2
Fore
SplineSet
240 0 m 0,0,1
 187 0 187 0 187 53 c 2,2,-1
 187 1236 l 2,3,4
 187 1289 187 1289 240 1289 c 0,5,6
 292 1289 292 1289 292 1236 c 2,7,-1
 292 661 l 1,8,-1
 886 1270 l 2,9,10
 922 1307 922 1307 959 1271 c 0,11,12
 998 1235 998 1235 961 1196 c 2,13,-1
 513 737 l 1,14,-1
 1040 83 l 2,15,16
 1073 42 1073 42 1033 9 c 0,17,18
 992 -24 992 -24 960 16 c 2,19,-1
 440 661 l 1,20,-1
 292 510 l 1,21,-1
 292 53 l 2,22,23
 292 0 292 0 240 0 c 0,0,1
EndSplineSet
EndChar

StartChar: L
Encoding: 76 76 94
Width: 1000
GlyphClass: 2
Flags: W
AnchorPoint: "+BBEENQQ3BEsEPARPBD0EPQQ+BDUA--4" 283 633 basechar 0
AnchorPoint: "+BBEENQQ3BEsEPARPBD0EPQQ+BDUA--2" 572 0 basechar 0
AnchorPoint: "+BBEENQQ3BEsEPARPBD0EPQQ+BDUA--1" 438 851 basechar 0
AnchorPoint: "+BBEENQQ3BEsEPARPBD0EPQQ+BDUA--0" 240 1289 basechar 0
LayerCount: 2
Fore
SplineSet
240 0 m 2,0,1
 187 0 187 0 187 53 c 2,2,-1
 187 1236 l 2,3,4
 187 1289 187 1289 240 1289 c 0,5,6
 292 1289 292 1289 292 1236 c 2,7,-1
 292 105 l 1,8,-1
 900 105 l 2,9,10
 953 105 953 105 953 53 c 0,11,12
 953 0 953 0 900 0 c 2,13,-1
 240 0 l 2,0,1
EndSplineSet
EndChar

StartChar: M
Encoding: 77 77 102
Width: 1569
GlyphClass: 2
Flags: W
AnchorPoint: "+BBEENQQ3BEsEPARPBD0EPQQ+BDUA--2" 787 0 basechar 0
AnchorPoint: "+BBEENQQ3BEsEPARPBD0EPQQ+BDUA--0" 787 1289 basechar 0
LayerCount: 2
Fore
SplineSet
240 0 m 0,0,1
 187 0 187 0 187 53 c 2,2,-1
 187 1236 l 2,3,4
 187 1289 187 1289 240 1289 c 0,5,6
 278 1289 278 1289 300 1254 c 2,7,-1
 798 493 l 1,8,-1
 774 490 l 1,9,-1
 1272 1254 l 2,10,11
 1293 1289 1293 1289 1335 1289 c 0,12,13
 1382 1289 1382 1289 1382 1236 c 2,14,-1
 1382 53 l 2,15,16
 1382 0 1382 0 1330 0 c 0,17,18
 1277 0 1277 0 1277 53 c 2,19,-1
 1277 1131 l 1,20,-1
 1308 1121 l 1,21,-1
 846 417 l 2,22,23
 824 383 824 383 783 383 c 0,24,25
 747 383 747 383 725 417 c 2,26,-1
 263 1121 l 1,27,-1
 292 1110 l 1,28,-1
 292 53 l 2,29,30
 292 0 292 0 240 0 c 0,0,1
EndSplineSet
EndChar

StartChar: N
Encoding: 78 78 104
Width: 1409
GlyphClass: 2
Flags: W
AnchorPoint: "+BBEENQQ3BEsEPARPBD0EPQQ+BDUA--2" 717 0 basechar 0
AnchorPoint: "+BBEENQQ3BEsEPARPBD0EPQQ+BDUA--0" 717 1289 basechar 0
LayerCount: 2
Fore
SplineSet
240 0 m 0,0,1
 187 0 187 0 187 53 c 2,2,-1
 187 1236 l 2,3,4
 187 1289 187 1289 240 1289 c 0,5,6
 268 1289 268 1289 294 1258 c 2,7,-1
 1141 170 l 1,8,-1
 1117 170 l 1,9,-1
 1117 1236 l 2,10,11
 1117 1289 1117 1289 1170 1289 c 0,12,13
 1222 1289 1222 1289 1222 1236 c 2,14,-1
 1222 53 l 2,15,16
 1222 0 1222 0 1170 0 c 0,17,18
 1141 0 1141 0 1116 31 c 2,19,-1
 268 1119 l 1,20,-1
 292 1119 l 1,21,-1
 292 53 l 2,22,23
 292 0 292 0 240 0 c 0,0,1
EndSplineSet
EndChar

StartChar: Eng
Encoding: 330 330 109
Width: 1409
GlyphClass: 2
Flags: W
AnchorPoint: "+BBEENQQ3BEsEPARPBD0EPQQ+BDUA--2" 717 0 basechar 0
AnchorPoint: "+BBEENQQ3BEsEPARPBD0EPQQ+BDUA--0" 717 1289 basechar 0
LayerCount: 2
Fore
SplineSet
743 -400 m 2,0,1
 625 -400 625 -400 562.5 -351.5 c 128,-1,2
 500 -303 500 -303 490 -198 c 0,3,4
 487 -172 487 -172 501 -157.5 c 128,-1,5
 515 -143 515 -143 540 -143 c 256,6,7
 565 -143 565 -143 576.5 -156.5 c 128,-1,8
 588 -170 588 -170 595 -195 c 0,9,10
 602 -253 602 -253 636 -274 c 128,-1,11
 670 -295 670 -295 743 -295 c 2,12,-1
 966 -295 l 2,13,14
 1054 -295 1054 -295 1085.5 -263 c 128,-1,15
 1117 -231 1117 -231 1117 -143 c 2,16,-1
 1117 29 l 1,17,-1
 292 1088 l 1,18,-1
 292 53 l 2,19,20
 292 0 292 0 240 0 c 0,21,22
 187 0 187 0 187 53 c 2,23,-1
 187 1236 l 2,24,25
 187 1289 187 1289 240 1289 c 0,26,27
 268 1289 268 1289 294 1258 c 2,28,-1
 1117 200 l 1,29,-1
 1117 1236 l 2,30,31
 1117 1289 1117 1289 1170 1289 c 0,32,33
 1222 1289 1222 1289 1222 1236 c 2,34,-1
 1222 -143 l 2,35,36
 1222 -275 1222 -275 1160 -337.5 c 128,-1,37
 1098 -400 1098 -400 966 -400 c 2,38,-1
 743 -400 l 2,0,1
EndSplineSet
EndChar

StartChar: O
Encoding: 79 79 112
Width: 1393
GlyphClass: 2
Flags: W
AnchorPoint: "+BBEENQQ3BEsEPARPBD0EPQQ+BDUA--4" 691 645 basechar 0
AnchorPoint: "+BBEENQQ3BEsEPARPBD0EPQQ+BDUA--3" 998 40 basechar 0
AnchorPoint: "+BBEENQQ3BEsEPARPBD0EPQQ+BDUA--2" 691 0 basechar 0
AnchorPoint: "+BBEENQQ3BEsEPARPBD0EPQQ+BDUA--1" 1087 1212 basechar 0
AnchorPoint: "+BBEENQQ3BEsEPARPBD0EPQQ+BDUA--0" 697 1289 basechar 0
LayerCount: 2
Fore
SplineSet
577 0 m 2,0,1
 360 0 360 0 260 100 c 128,-1,2
 160 200 160 200 160 417 c 2,3,-1
 160 873 l 2,4,5
 160 1092 160 1092 260 1191.5 c 128,-1,6
 360 1291 360 1291 575 1289 c 2,7,-1
 817 1289 l 2,8,9
 1034 1289 1034 1289 1133.5 1189 c 128,-1,10
 1233 1089 1233 1089 1233 872 c 2,11,-1
 1233 417 l 2,12,13
 1233 200 1233 200 1133.5 100 c 128,-1,14
 1034 0 1034 0 817 0 c 2,15,-1
 577 0 l 2,0,1
577 105 m 2,16,-1
 817 105 l 2,17,18
 932 105 932 105 1000 135 c 128,-1,19
 1068 165 1068 165 1098 233 c 128,-1,20
 1128 301 1128 301 1128 417 c 2,21,-1
 1128 872 l 2,22,23
 1128 987 1128 987 1098 1055 c 128,-1,24
 1068 1123 1068 1123 1000 1153.5 c 128,-1,25
 932 1184 932 1184 817 1184 c 2,26,-1
 575 1184 l 2,27,28
 460 1185 460 1185 392.5 1155.5 c 128,-1,29
 325 1126 325 1126 295 1057.5 c 128,-1,30
 265 989 265 989 265 873 c 2,31,-1
 265 417 l 2,32,33
 265 301 265 301 295 233 c 128,-1,34
 325 165 325 165 393 135 c 128,-1,35
 461 105 461 105 577 105 c 2,16,-1
EndSplineSet
Substitution2: "'c2sc' +BBoEMAQ/BDgEQgQ1BDsETAAA +BDgENwAA +BD8EQAQ+BD8EOARBBD0ESwRF in Latin lookup 33 subtable" o.sc
Substitution2: "Single Substitution lookup 23 subtable" ordmasculine
AlternateSubs2: "'aalt' +BBIEQQQ1 +BDAEOwRMBEIENQRABD0EMARCBDgEMgQ9BEsENQAA +BDIEMARABDgEMAQ9BEIESwAA in Latin lookup 1 subtable" o.sc ordmasculine
EndChar

StartChar: OE
Encoding: 338 338 142
Width: 1658
Flags: W
LayerCount: 2
Fore
SplineSet
577 0 m 2,0,1
 360 0 360 0 260 100 c 128,-1,2
 160 200 160 200 160 417 c 2,3,-1
 160 873 l 2,4,5
 160 1092 160 1092 260 1190.5 c 128,-1,6
 360 1289 360 1289 575 1289 c 2,7,-1
 1525 1289 l 2,8,9
 1550 1289 1550 1289 1563.5 1275.5 c 128,-1,10
 1577 1262 1577 1262 1577 1236 c 0,11,12
 1577 1184 1577 1184 1525 1184 c 2,13,-1
 947 1184 l 1,14,-1
 947 705 l 1,15,-1
 1289 705 l 2,16,17
 1341 705 1341 705 1341 653 c 0,18,19
 1341 600 1341 600 1289 600 c 2,20,-1
 947 600 l 1,21,-1
 947 105 l 1,22,-1
 1525 105 l 2,23,24
 1577 105 1577 105 1577 53 c 0,25,26
 1577 0 1577 0 1525 0 c 2,27,-1
 577 0 l 2,0,1
577 105 m 2,28,-1
 842 105 l 1,29,-1
 842 1184 l 1,30,-1
 575 1184 l 2,31,32
 460 1184 460 1184 392.5 1154.5 c 128,-1,33
 325 1125 325 1125 295 1057 c 128,-1,34
 265 989 265 989 265 873 c 2,35,-1
 265 417 l 2,36,37
 265 301 265 301 295 233 c 128,-1,38
 325 165 325 165 393 135 c 128,-1,39
 461 105 461 105 577 105 c 2,28,-1
EndSplineSet
EndChar

StartChar: P
Encoding: 80 80 143
Width: 1121
GlyphClass: 2
Flags: W
AnchorPoint: "+BBEENQQ3BEsEPARPBD0EPQQ+BDUA--2" 355 0 basechar 0
AnchorPoint: "+BBEENQQ3BEsEPARPBD0EPQQ+BDUA--0" 563 1289 basechar 0
LayerCount: 2
Fore
SplineSet
240 0 m 0,0,1
 187 0 187 0 187 53 c 2,2,-1
 187 1236 l 2,3,4
 187 1289 187 1289 240 1289 c 2,5,-1
 708 1289 l 2,6,7
 879 1289 879 1289 966.5 1201 c 128,-1,8
 1054 1113 1054 1113 1054 942 c 2,9,-1
 1054 882 l 2,10,11
 1054 712 1054 712 966.5 624 c 128,-1,12
 879 536 879 536 708 536 c 2,13,-1
 292 536 l 1,14,-1
 292 53 l 2,15,16
 292 0 292 0 240 0 c 0,0,1
292 641 m 1,17,-1
 708 641 l 2,18,19
 834 641 834 641 891.5 698.5 c 128,-1,20
 949 756 949 756 949 882 c 2,21,-1
 949 942 l 2,22,23
 949 1069 949 1069 891.5 1126.5 c 128,-1,24
 834 1184 834 1184 708 1184 c 2,25,-1
 292 1184 l 1,26,-1
 292 641 l 1,17,-1
EndSplineSet
EndChar

StartChar: Thorn
Encoding: 222 222 145
Width: 1025
Flags: W
LayerCount: 2
Fore
SplineSet
240 0 m 0,0,1
 187 0 187 0 187 53 c 2,2,-1
 187 1236 l 2,3,4
 187 1289 187 1289 240 1289 c 0,5,6
 292 1289 292 1289 292 1236 c 2,7,-1
 292 1104 l 1,8,-1
 612 1104 l 2,9,10
 783 1104 783 1104 870.5 1016 c 128,-1,11
 958 928 958 928 958 757 c 2,12,-1
 958 697 l 2,13,14
 958 527 958 527 870.5 439 c 128,-1,15
 783 351 783 351 612 351 c 2,16,-1
 292 351 l 1,17,-1
 292 53 l 2,18,19
 292 0 292 0 240 0 c 0,0,1
292 456 m 1,20,-1
 612 456 l 2,21,22
 738 456 738 456 795.5 513.5 c 128,-1,23
 853 571 853 571 853 697 c 2,24,-1
 853 757 l 2,25,26
 853 884 853 884 795.5 941.5 c 128,-1,27
 738 999 738 999 612 999 c 2,28,-1
 292 999 l 1,29,-1
 292 456 l 1,20,-1
EndSplineSet
EndChar

StartChar: Q
Encoding: 81 81 146
Width: 1396
GlyphClass: 2
Flags: W
AnchorPoint: "+BBEENQQ3BEsEPARPBD0EPQQ+BDUA--4" 691 645 basechar 0
AnchorPoint: "+BBEENQQ3BEsEPARPBD0EPQQ+BDUA--3" 998 40 basechar 0
AnchorPoint: "+BBEENQQ3BEsEPARPBD0EPQQ+BDUA--2" 697 0 basechar 0
AnchorPoint: "+BBEENQQ3BEsEPARPBD0EPQQ+BDUA--1" 1087 1212 basechar 0
AnchorPoint: "+BBEENQQ3BEsEPARPBD0EPQQ+BDUA--0" 697 1289 basechar 0
LayerCount: 2
Fore
SplineSet
1219 -8 m 2,0,1
 1235 -25 1235 -25 1235 -42.5 c 128,-1,2
 1235 -60 1235 -60 1217 -77 c 0,3,4
 1182 -111 1182 -111 1147 -77 c 2,5,-1
 880 199 l 2,6,7
 863 216 863 216 863 233.5 c 128,-1,8
 863 251 863 251 880 268 c 0,9,10
 915 302 915 302 951 268 c 2,11,-1
 1219 -8 l 2,0,1
577 0 m 2,12,13
 360 0 360 0 260 100 c 128,-1,14
 160 200 160 200 160 417 c 2,15,-1
 160 873 l 2,16,17
 160 1092 160 1092 260 1191.5 c 128,-1,18
 360 1291 360 1291 575 1289 c 2,19,-1
 817 1289 l 2,20,21
 1034 1289 1034 1289 1133.5 1189 c 128,-1,22
 1233 1089 1233 1089 1233 872 c 2,23,-1
 1233 417 l 2,24,25
 1233 200 1233 200 1133.5 100 c 128,-1,26
 1034 0 1034 0 817 0 c 2,27,-1
 577 0 l 2,12,13
577 105 m 2,28,-1
 817 105 l 2,29,30
 932 105 932 105 1000 135 c 128,-1,31
 1068 165 1068 165 1098 233 c 128,-1,32
 1128 301 1128 301 1128 417 c 2,33,-1
 1128 872 l 2,34,35
 1128 987 1128 987 1098 1055 c 128,-1,36
 1068 1123 1068 1123 1000 1153.5 c 128,-1,37
 932 1184 932 1184 817 1184 c 2,38,-1
 575 1184 l 2,39,40
 460 1185 460 1185 392.5 1155.5 c 128,-1,41
 325 1126 325 1126 295 1057.5 c 128,-1,42
 265 989 265 989 265 873 c 2,43,-1
 265 417 l 2,44,45
 265 301 265 301 295 233 c 128,-1,46
 325 165 325 165 393 135 c 128,-1,47
 461 105 461 105 577 105 c 2,28,-1
EndSplineSet
EndChar

StartChar: R
Encoding: 82 82 147
Width: 1186
GlyphClass: 2
Flags: W
AnchorPoint: "+BBEENQQ3BEsEPARPBD0EPQQ+BDUA--2" 593 0 basechar 0
AnchorPoint: "+BBEENQQ3BEsEPARPBD0EPQQ+BDUA--0" 593 1289 basechar 0
LayerCount: 2
Fore
SplineSet
1059 -2 m 0,0,1
 1037 -15 1037 -15 1019 -11 c 128,-1,2
 1001 -7 1001 -7 987 14 c 2,3,-1
 659 536 l 1,4,-1
 292 536 l 1,5,-1
 292 53 l 2,6,7
 292 0 292 0 240 0 c 0,8,9
 187 0 187 0 187 53 c 2,10,-1
 187 1236 l 2,11,12
 187 1289 187 1289 240 1289 c 2,13,-1
 708 1289 l 2,14,15
 879 1289 879 1289 966.5 1201 c 128,-1,16
 1054 1113 1054 1113 1054 942 c 2,17,-1
 1054 882 l 2,18,19
 1054 731 1054 731 985 645 c 128,-1,20
 916 559 916 559 781 540 c 1,21,-1
 1076 70 l 2,22,23
 1104 24 1104 24 1059 -2 c 0,0,1
292 641 m 1,24,-1
 708 641 l 2,25,26
 834 641 834 641 891.5 698.5 c 128,-1,27
 949 756 949 756 949 882 c 2,28,-1
 949 942 l 2,29,30
 949 1069 949 1069 891.5 1126.5 c 128,-1,31
 834 1184 834 1184 708 1184 c 2,32,-1
 292 1184 l 1,33,-1
 292 641 l 1,24,-1
EndSplineSet
EndChar

StartChar: S
Encoding: 83 83 153
Width: 1324
GlyphClass: 2
Flags: W
AnchorPoint: "+BBEENQQ3BEsEPARPBD0EPQQ+BDUA--2" 666 0 basechar 0
AnchorPoint: "+BBEENQQ3BEsEPARPBD0EPQQ+BDUA--0" 666 1289 basechar 0
LayerCount: 2
Fore
SplineSet
518 2 m 2,0,1
 339 2 339 2 252.5 81.5 c 128,-1,2
 166 161 166 161 160 332 c 0,3,4
 159 356 159 356 173.5 370.5 c 128,-1,5
 188 385 188 385 212 385 c 256,6,7
 236 385 236 385 250 371 c 128,-1,8
 264 357 264 357 266 333 c 0,9,10
 270 207 270 207 326 157 c 128,-1,11
 382 107 382 107 518 107 c 2,12,-1
 806 107 l 2,13,14
 948 107 948 107 1003.5 162.5 c 128,-1,15
 1059 218 1059 218 1059 358 c 0,16,17
 1059 500 1059 500 1003.5 555.5 c 128,-1,18
 948 611 948 611 806 611 c 2,19,-1
 532 611 l 2,20,21
 356 611 356 611 274 693 c 128,-1,22
 192 775 192 775 192 950 c 256,23,24
 192 1125 192 1125 273.5 1207 c 128,-1,25
 355 1289 355 1289 530 1289 c 2,26,-1
 810 1289 l 2,27,28
 978 1289 978 1289 1059.5 1214 c 128,-1,29
 1141 1139 1141 1139 1147 978 c 0,30,31
 1149 954 1149 954 1134.5 939.5 c 128,-1,32
 1120 925 1120 925 1095 925 c 0,33,34
 1072 925 1072 925 1058 939 c 128,-1,35
 1044 953 1044 953 1042 977 c 0,36,37
 1038 1092 1038 1092 986 1138 c 128,-1,38
 934 1184 934 1184 810 1184 c 2,39,-1
 530 1184 l 2,40,41
 399 1184 399 1184 348 1132.5 c 128,-1,42
 297 1081 297 1081 297 950 c 256,43,44
 297 819 297 819 348.5 767.5 c 128,-1,45
 400 716 400 716 532 716 c 2,46,-1
 806 716 l 2,47,48
 992 716 992 716 1078 629.5 c 128,-1,49
 1164 543 1164 543 1164 358 c 256,50,51
 1164 173 1164 173 1078 87.5 c 128,-1,52
 992 2 992 2 806 2 c 2,53,-1
 518 2 l 2,0,1
EndSplineSet
EndChar

StartChar: uni1E9E
Encoding: 7838 7838 160
Width: 1134
Flags: W
LayerCount: 2
Fore
SplineSet
240 -10 m 256,0,1
 216 -10 216 -10 201.5 4.5 c 128,-1,2
 187 19 187 19 187 43 c 2,3,-1
 187 960 l 2,4,5
 187 1135 187 1135 269 1217 c 128,-1,6
 351 1299 351 1299 526 1299 c 2,7,-1
 542 1299 l 2,8,9
 710 1299 710 1299 792 1221.5 c 128,-1,10
 874 1144 874 1144 878 980 c 0,11,12
 878 959 878 959 872.5 944.5 c 128,-1,13
 867 930 867 930 853 914 c 2,14,-1
 720 768 l 1,15,16
 854 668 854 668 914 560.5 c 128,-1,17
 974 453 974 453 974 321 c 0,18,19
 974 150 974 150 894.5 70 c 128,-1,20
 815 -10 815 -10 644 -10 c 2,21,-1
 504 -10 l 2,22,23
 480 -10 480 -10 465.5 4.5 c 128,-1,24
 451 19 451 19 451 43 c 256,25,26
 451 67 451 67 465.5 81 c 128,-1,27
 480 95 480 95 504 95 c 2,28,-1
 644 95 l 2,29,30
 770 95 770 95 819.5 145 c 128,-1,31
 869 195 869 195 869 321 c 0,32,33
 869 438 869 438 810.5 529.5 c 128,-1,34
 752 621 752 621 611 716 c 1,35,-1
 611 803 l 1,36,-1
 773 982 l 1,37,38
 770 1100 770 1100 718.5 1147 c 128,-1,39
 667 1194 667 1194 542 1194 c 2,40,-1
 526 1194 l 2,41,42
 395 1194 395 1194 343.5 1142.5 c 128,-1,43
 292 1091 292 1091 292 960 c 2,44,-1
 292 43 l 2,45,46
 292 19 292 19 278 4.5 c 128,-1,47
 264 -10 264 -10 240 -10 c 256,0,1
EndSplineSet
EndChar

StartChar: uni018F
Encoding: 399 399 161
Width: 1393
Flags: W
LayerCount: 2
Fore
SplineSet
577 2 m 2,0,1
 360 2 360 2 260 101.5 c 128,-1,2
 160 201 160 201 160 418 c 2,3,-1
 160 597 l 1,4,-1
 1128 597 l 1,5,-1
 1128 870 l 2,6,7
 1128 985 1128 985 1098 1053 c 128,-1,8
 1068 1121 1068 1121 1000 1151.5 c 128,-1,9
 932 1182 932 1182 817 1182 c 2,10,-1
 577 1182 l 2,11,12
 461 1182 461 1182 393 1151.5 c 128,-1,13
 325 1121 325 1121 295 1053 c 128,-1,14
 265 985 265 985 265 870 c 0,15,16
 265 848 265 848 250 833 c 128,-1,17
 235 818 235 818 213 818 c 256,18,19
 191 818 191 818 175.5 833 c 128,-1,20
 160 848 160 848 160 870 c 0,21,22
 160 1087 160 1087 260 1187 c 128,-1,23
 360 1287 360 1287 577 1287 c 2,24,-1
 817 1287 l 2,25,26
 1034 1287 1034 1287 1133.5 1187 c 128,-1,27
 1233 1087 1233 1087 1233 870 c 2,28,-1
 1233 418 l 2,29,30
 1233 201 1233 201 1133.5 101.5 c 128,-1,31
 1034 2 1034 2 817 2 c 2,32,-1
 577 2 l 2,0,1
577 107 m 2,33,-1
 817 107 l 2,34,35
 932 107 932 107 1000 137 c 128,-1,36
 1068 167 1068 167 1098 235 c 128,-1,37
 1128 303 1128 303 1128 418 c 2,38,-1
 1128 492 l 1,39,-1
 265 492 l 1,40,-1
 265 418 l 2,41,42
 265 303 265 303 295 235 c 128,-1,43
 325 167 325 167 393 137 c 128,-1,44
 461 107 461 107 577 107 c 2,33,-1
EndSplineSet
EndChar

StartChar: T
Encoding: 84 84 162
Width: 1135
GlyphClass: 2
Flags: W
AnchorPoint: "+BBEENQQ3BEsEPARPBD0EPQQ+BDUA--4" 568 645 basechar 0
AnchorPoint: "+BBEENQQ3BEsEPARPBD0EPQQ+BDUA--2" 521 0 basechar 0
AnchorPoint: "+BBEENQQ3BEsEPARPBD0EPQQ+BDUA--0" 568 1289 basechar 0
LayerCount: 2
Fore
SplineSet
568 -1 m 0,0,1
 544 -1 544 -1 529.5 13 c 128,-1,2
 515 27 515 27 515 51 c 2,3,-1
 515 1185 l 1,4,-1
 90 1185 l 2,5,6
 66 1185 66 1185 51.5 1199 c 128,-1,7
 37 1213 37 1213 37 1237 c 256,8,9
 37 1261 37 1261 51.5 1275.5 c 128,-1,10
 66 1290 66 1290 90 1290 c 2,11,-1
 1046 1290 l 2,12,13
 1070 1290 1070 1290 1084 1275.5 c 128,-1,14
 1098 1261 1098 1261 1098 1237 c 256,15,16
 1098 1213 1098 1213 1084 1199 c 128,-1,17
 1070 1185 1070 1185 1046 1185 c 2,18,-1
 620 1185 l 1,19,-1
 620 51 l 2,20,21
 620 28 620 28 605.5 13.5 c 128,-1,22
 591 -1 591 -1 568 -1 c 0,0,1
EndSplineSet
EndChar

StartChar: U
Encoding: 85 85 168
Width: 1427
GlyphClass: 2
Flags: W
AnchorPoint: "+BBEENQQ3BEsEPARPBD0EPQQ+BDUA--3" 1136 118 basechar 0
AnchorPoint: "+BBEENQQ3BEsEPARPBD0EPQQ+BDUA--2" 714 0 basechar 0
AnchorPoint: "+BBEENQQ3BEsEPARPBD0EPQQ+BDUA--1" 1198 1289 basechar 0
AnchorPoint: "+BBEENQQ3BEsEPARPBD0EPQQ+BDUA--0" 714 1289 basechar 0
LayerCount: 2
Fore
SplineSet
594 0 m 2,0,1
 377 0 377 0 277 100 c 128,-1,2
 177 200 177 200 177 417 c 2,3,-1
 177 1236 l 2,4,5
 177 1260 177 1260 191.5 1274.5 c 128,-1,6
 206 1289 206 1289 230 1289 c 256,7,8
 254 1289 254 1289 268 1274.5 c 128,-1,9
 282 1260 282 1260 282 1236 c 2,10,-1
 282 417 l 2,11,12
 282 301 282 301 312 233 c 128,-1,13
 342 165 342 165 410 135 c 128,-1,14
 478 105 478 105 594 105 c 2,15,-1
 834 105 l 2,16,17
 949 105 949 105 1017 135 c 128,-1,18
 1085 165 1085 165 1115 233 c 128,-1,19
 1145 301 1145 301 1145 417 c 2,20,-1
 1145 1236 l 2,21,22
 1145 1260 1145 1260 1159.5 1274.5 c 128,-1,23
 1174 1289 1174 1289 1198 1289 c 256,24,25
 1222 1289 1222 1289 1236 1274.5 c 128,-1,26
 1250 1260 1250 1260 1250 1236 c 2,27,-1
 1250 417 l 2,28,29
 1250 200 1250 200 1150.5 100 c 128,-1,30
 1051 0 1051 0 834 0 c 2,31,-1
 594 0 l 2,0,1
EndSplineSet
EndChar

StartChar: V
Encoding: 86 86 189
Width: 1217
GlyphClass: 2
Flags: W
AnchorPoint: "+BBEENQQ3BEsEPARPBD0EPQQ+BDUA--2" 607 0 basechar 0
AnchorPoint: "+BBEENQQ3BEsEPARPBD0EPQQ+BDUA--0" 608 1289 basechar 0
LayerCount: 2
Fore
SplineSet
601 0 m 2,0,1
 567 0 567 0 552 36 c 2,2,-1
 33 1214 l 2,3,4
 20 1243 20 1243 33.5 1262 c 128,-1,5
 47 1281 47 1281 71 1286 c 0,6,7
 112 1296 112 1296 128 1256 c 2,8,-1
 628 122 l 1,9,-1
 591 122 l 1,10,-1
 1088 1256 l 2,11,12
 1104 1296 1104 1296 1146 1286 c 0,13,14
 1172 1281 1172 1281 1184 1262 c 128,-1,15
 1196 1243 1196 1243 1184 1214 c 2,16,-1
 663 36 l 2,17,18
 648 0 648 0 612 0 c 2,19,-1
 601 0 l 2,0,1
EndSplineSet
EndChar

StartChar: W
Encoding: 87 87 190
Width: 1709
GlyphClass: 2
Flags: W
AnchorPoint: "+BBEENQQ3BEsEPARPBD0EPQQ+BDUA--2" 854 0 basechar 0
AnchorPoint: "+BBEENQQ3BEsEPARPBD0EPQQ+BDUA--0" 854 1289 basechar 0
LayerCount: 2
Fore
SplineSet
463 0 m 0,0,1
 425 0 425 0 412 41 c 2,2,-1
 29 1219 l 2,3,4
 21 1242 21 1242 35 1265.5 c 128,-1,5
 49 1289 49 1289 79 1289 c 0,6,7
 96 1289 96 1289 109.5 1279.5 c 128,-1,8
 123 1270 123 1270 128 1251 c 2,9,-1
 484 157 l 1,10,-1
 455 157 l 1,11,-1
 792 1248 l 2,12,13
 799 1270 799 1270 816.5 1280 c 128,-1,14
 834 1290 834 1290 853 1290 c 0,15,16
 873 1290 873 1290 891 1280 c 128,-1,17
 909 1270 909 1270 914 1248 c 2,18,-1
 1251 157 l 1,19,-1
 1222 157 l 1,20,-1
 1578 1251 l 2,21,22
 1585 1270 1585 1270 1597.5 1279.5 c 128,-1,23
 1610 1289 1610 1289 1627 1289 c 0,24,25
 1661 1289 1661 1289 1673.5 1266 c 128,-1,26
 1686 1243 1686 1243 1678 1219 c 2,27,-1
 1294 41 l 2,28,29
 1281 0 1281 0 1239 0 c 2,30,-1
 1235 0 l 2,31,32
 1192 0 1192 0 1180 41 c 2,33,-1
 837 1143 l 1,34,-1
 866 1143 l 1,35,-1
 523 41 l 2,36,37
 516 16 516 16 501 8 c 128,-1,38
 486 0 486 0 463 0 c 0,0,1
EndSplineSet
EndChar

StartChar: X
Encoding: 88 88 195
Width: 1152
GlyphClass: 2
Flags: W
AnchorPoint: "+BBEENQQ3BEsEPARPBD0EPQQ+BDUA--2" 565 0 basechar 0
AnchorPoint: "+BBEENQQ3BEsEPARPBD0EPQQ+BDUA--0" 563 1289 basechar 0
LayerCount: 2
Fore
SplineSet
108 12 m 0,0,1
 66 42 66 42 94 85 c 2,2,-1
 496 672 l 1,3,-1
 116 1204 l 2,4,5
 86 1245 86 1245 129 1277 c 0,6,7
 171 1307 171 1307 203 1264 c 2,8,-1
 565 756 l 1,9,-1
 940 1265 l 2,10,11
 972 1307 972 1307 1014 1276 c 256,12,13
 1056 1245 1056 1245 1025 1203 c 2,14,-1
 631 664 l 1,15,-1
 1045 86 l 2,16,17
 1075 44 1075 44 1032 12 c 0,18,19
 990 -18 990 -18 960 25 c 2,20,-1
 561 581 l 1,21,-1
 181 26 l 2,22,23
 151 -17 151 -17 108 12 c 0,0,1
EndSplineSet
EndChar

StartChar: Y
Encoding: 89 89 196
Width: 1080
GlyphClass: 2
Flags: W
AnchorPoint: "+BBEENQQ3BEsEPARPBD0EPQQ+BDUA--2" 541 0 basechar 0
AnchorPoint: "+BBEENQQ3BEsEPARPBD0EPQQ+BDUA--0" 541 1289 basechar 0
LayerCount: 2
Fore
SplineSet
536 0 m 0,0,1
 484 0 484 0 484 53 c 2,2,-1
 484 498 l 1,3,-1
 36 1206 l 2,4,5
 9 1249 9 1249 53 1279 c 0,6,7
 98 1307 98 1307 126 1262 c 2,8,-1
 536 611 l 1,9,-1
 953 1263 l 2,10,11
 967 1284 967 1284 985 1288 c 128,-1,12
 1003 1292 1003 1292 1025 1278 c 0,13,14
 1070 1251 1070 1251 1041 1206 c 2,15,-1
 589 498 l 1,16,-1
 589 53 l 2,17,18
 589 0 589 0 536 0 c 0,0,1
EndSplineSet
EndChar

StartChar: Z
Encoding: 90 90 205
Width: 1237
GlyphClass: 2
Flags: W
AnchorPoint: "+BBEENQQ3BEsEPARPBD0EPQQ+BDUA--2" 639 0 basechar 0
AnchorPoint: "+BBEENQQ3BEsEPARPBD0EPQQ+BDUA--0" 658 1289 basechar 0
LayerCount: 2
Fore
SplineSet
172 0 m 2,0,1
 117 0 117 0 117 53 c 0,2,3
 117 67 117 67 123.5 79.5 c 128,-1,4
 130 92 130 92 142 110 c 2,5,-1
 967 1204 l 1,6,-1
 967 1184 l 1,7,-1
 380 1184 l 2,8,9
 294 1184 294 1184 248.5 1150.5 c 128,-1,10
 203 1117 203 1117 193 1043 c 0,11,12
 190 1018 190 1018 177 1005 c 128,-1,13
 164 992 164 992 138 992 c 0,14,15
 113 992 113 992 99 1006.5 c 128,-1,16
 85 1021 85 1021 87 1047 c 0,17,18
 100 1166 100 1166 174.5 1227.5 c 128,-1,19
 249 1289 249 1289 380 1289 c 2,20,-1
 1042 1289 l 2,21,22
 1095 1289 1095 1289 1095 1236 c 0,23,24
 1095 1219 1095 1219 1090.5 1205.5 c 128,-1,25
 1086 1192 1086 1192 1073 1175 c 2,26,-1
 249 75 l 1,27,-1
 249 105 l 1,28,-1
 856 105 l 2,29,30
 944 105 944 105 989 138 c 128,-1,31
 1034 171 1034 171 1044 246 c 0,32,33
 1048 271 1048 271 1061 284 c 128,-1,34
 1074 297 1074 297 1098 297 c 0,35,36
 1124 297 1124 297 1138.5 282.5 c 128,-1,37
 1153 268 1153 268 1150 242 c 0,38,39
 1124 0 1124 0 856 0 c 2,40,-1
 172 0 l 2,0,1
EndSplineSet
EndChar

StartChar: Iacute_J.loclNLD
Encoding: 65537 -1 209
Width: 1223
Flags: W
LayerCount: 2
Fore
SplineSet
563 0 m 2,0,1
 378 0 378 0 289 76.5 c 128,-1,2
 200 153 200 153 188 322 c 0,3,4
 187 348 187 348 200 362.5 c 128,-1,5
 213 377 213 377 239 377 c 0,6,7
 290 377 290 377 293 324 c 0,8,9
 302 200 302 200 362.5 152.5 c 128,-1,10
 423 105 423 105 563 105 c 2,11,-1
 645 105 l 2,12,13
 748 105 748 105 807 130 c 128,-1,14
 866 155 866 155 891 214 c 128,-1,15
 916 273 916 273 916 377 c 2,16,-1
 916 1236 l 2,17,18
 916 1289 916 1289 969 1289 c 0,19,20
 1021 1289 1021 1289 1021 1236 c 2,21,-1
 1021 377 l 2,22,23
 1021 179 1021 179 932 89.5 c 128,-1,24
 843 0 843 0 645 0 c 2,25,-1
 563 0 l 2,0,1
242 498 m 256,26,27
 218 498 218 498 203.5 512 c 128,-1,28
 189 526 189 526 189 550 c 2,29,-1
 189 1237 l 2,30,31
 189 1262 189 1262 203.5 1276 c 128,-1,32
 218 1290 218 1290 242 1290 c 256,33,34
 266 1290 266 1290 280 1276 c 128,-1,35
 294 1262 294 1262 294 1237 c 2,36,-1
 294 550 l 2,37,38
 294 526 294 526 280 512 c 128,-1,39
 266 498 266 498 242 498 c 256,26,27
211 1404 m 0,40,41
 175 1435 175 1435 205 1474 c 2,42,-1
 376 1677 l 2,43,44
 409 1716 409 1716 447 1684 c 0,45,46
 484 1652 484 1652 454 1613 c 2,47,-1
 282 1410 l 2,48,49
 250 1370 250 1370 211 1404 c 0,40,41
948 1404 m 0,50,51
 911 1435 911 1435 941 1474 c 2,52,-1
 1113 1677 l 2,53,54
 1144 1716 1144 1716 1183 1684 c 0,55,56
 1220 1652 1220 1652 1190 1613 c 2,57,-1
 1018 1410 l 2,58,59
 986 1370 986 1370 948 1404 c 0,50,51
EndSplineSet
Ligature2: "'locl' Localized Forms in Latin lookup 16 subtable" Iacute J
EndChar

StartChar: a
Encoding: 97 97 210
Width: 1197
GlyphClass: 2
Flags: W
AnchorPoint: "+BBEENQQ3BEsEPARPBD0EPQQ+BDUA--3" 960 4 basechar 0
AnchorPoint: "+BBEENQQ3BEsEPARPBD0EPQQ+BDUA--2" 602 0 basechar 0
AnchorPoint: "+BBEENQQ3BEsEPARPBD0EPQQ+BDUA--0" 602 945 basechar 0
LayerCount: 2
Fore
SplineSet
468 0 m 2,0,1
 312 0 312 0 239.5 72.5 c 128,-1,2
 167 145 167 145 167 301 c 256,3,4
 167 457 167 457 240 530 c 128,-1,5
 313 603 313 603 468 603 c 2,6,-1
 923 603 l 1,7,8
 921 735 921 735 863.5 787.5 c 128,-1,9
 806 840 806 840 668 840 c 2,10,-1
 552 840 l 2,11,12
 425 840 425 840 366 813 c 128,-1,13
 307 786 307 786 293 721 c 0,14,15
 286 696 286 696 274.5 684.5 c 128,-1,16
 263 673 263 673 238 673 c 0,17,18
 212 673 212 673 197.5 687.5 c 128,-1,19
 183 702 183 702 187 727 c 0,20,21
 200 841 200 841 290.5 893 c 128,-1,22
 381 945 381 945 552 945 c 2,23,-1
 668 945 l 2,24,25
 855 945 855 945 941.5 858.5 c 128,-1,26
 1028 772 1028 772 1028 585 c 2,27,-1
 1028 53 l 2,28,29
 1028 0 1028 0 976 0 c 0,30,31
 923 0 923 0 923 53 c 2,32,-1
 923 152 l 1,33,34
 827 0 827 0 580 0 c 2,35,-1
 468 0 l 2,0,1
468 105 m 2,36,-1
 580 105 l 2,37,38
 677 105 677 105 750.5 126.5 c 128,-1,39
 824 148 824 148 869 196 c 128,-1,40
 914 244 914 244 923 324 c 1,41,-1
 923 498 l 1,42,-1
 468 498 l 2,43,44
 357 498 357 498 314.5 455.5 c 128,-1,45
 272 413 272 413 272 301 c 0,46,47
 272 190 272 190 314.5 147.5 c 128,-1,48
 357 105 357 105 468 105 c 2,36,-1
EndSplineSet
Substitution2: "'smcp' Lowercase to Small Capitals in Latin lookup 34 subtable" a.sc
Substitution2: "'ss01' Style Set 1 in Latin lookup 28 subtable" a.ss01
Substitution2: "'salt' Stylistic Alternatives in Latin lookup 27 subtable" a.ss01
Substitution2: "Single Substitution lookup 23 subtable" ordfeminine
AlternateSubs2: "'aalt' +BBIEQQQ1 +BDAEOwRMBEIENQRABD0EMARCBDgEMgQ9BEsENQAA +BDIEMARABDgEMAQ9BEIESwAA in Latin lookup 1 subtable" a.ss01 a.sc ordfeminine
EndChar

StartChar: ae
Encoding: 230 230 235
Width: 1868
GlyphClass: 2
Flags: W
AnchorPoint: "+BBEENQQ3BEsEPARPBD0EPQQ+BDUA--2" 931 0 basechar 0
AnchorPoint: "+BBEENQQ3BEsEPARPBD0EPQQ+BDUA--0" 931 945 basechar 0
LayerCount: 2
Fore
SplineSet
1234 -12 m 2,0,1
 1000 -12 1000 -12 926 164 c 1,2,3
 816 -8 816 -8 540 -8 c 2,4,-1
 468 -8 l 2,5,6
 312 -8 312 -8 239.5 64.5 c 128,-1,7
 167 137 167 137 167 292 c 0,8,9
 167 444 167 444 239.5 516 c 128,-1,10
 312 588 312 588 468 588 c 2,11,-1
 883 588 l 1,12,13
 880 724 880 724 823 777 c 128,-1,14
 766 830 766 830 628 830 c 2,15,-1
 552 830 l 2,16,17
 404 830 404 830 347.5 797 c 128,-1,18
 291 764 291 764 290 710 c 0,19,20
 288 688 288 688 273.5 672.5 c 128,-1,21
 259 657 259 657 237 657 c 256,22,23
 215 657 215 657 200 672.5 c 128,-1,24
 185 688 185 688 185 710 c 0,25,26
 185 817 185 817 275 876 c 128,-1,27
 365 935 365 935 552 935 c 2,28,-1
 628 935 l 2,29,30
 854 935 854 935 936 776 c 1,31,32
 1014 936 1014 936 1236 933 c 2,33,-1
 1356 933 l 2,34,35
 1538 933 1538 933 1623 837 c 128,-1,36
 1708 741 1708 741 1708 535 c 0,37,38
 1708 483 1708 483 1655 483 c 2,39,-1
 988 483 l 1,40,-1
 988 352 l 2,41,42
 988 208 988 208 1043 150.5 c 128,-1,43
 1098 93 1098 93 1234 93 c 2,44,-1
 1356 93 l 2,45,46
 1496 93 1496 93 1549.5 131.5 c 128,-1,47
 1603 170 1603 170 1603 268 c 0,48,49
 1603 290 1603 290 1618.5 305 c 128,-1,50
 1634 320 1634 320 1656 320 c 256,51,52
 1678 320 1678 320 1693 305 c 128,-1,53
 1708 290 1708 290 1708 268 c 0,54,55
 1708 121 1708 121 1622.5 54.5 c 128,-1,56
 1537 -12 1537 -12 1356 -12 c 2,57,-1
 1234 -12 l 2,0,1
468 97 m 2,58,-1
 540 97 l 2,59,60
 715 97 715 97 799 158.5 c 128,-1,61
 883 220 883 220 883 344 c 2,62,-1
 883 483 l 1,63,-1
 468 483 l 2,64,65
 357 483 357 483 314.5 441.5 c 128,-1,66
 272 400 272 400 272 292 c 0,67,68
 272 181 272 181 314.5 139 c 128,-1,69
 357 97 357 97 468 97 c 2,58,-1
989 588 m 1,70,-1
 1602 588 l 1,71,72
 1593 721 1593 721 1536.5 774.5 c 128,-1,73
 1480 828 1480 828 1356 828 c 2,74,-1
 1236 828 l 2,75,76
 1102 830 1102 830 1047 777 c 128,-1,77
 992 724 992 724 989 588 c 1,70,-1
EndSplineSet
EndChar

StartChar: b
Encoding: 98 98 237
Width: 1232
GlyphClass: 2
Flags: W
AnchorPoint: "+BBEENQQ3BEsEPARPBD0EPQQ+BDUA--2" 668 0 basechar 0
AnchorPoint: "+BBEENQQ3BEsEPARPBD0EPQQ+BDUA--0" 668 945 basechar 0
LayerCount: 2
Fore
SplineSet
240 0 m 0,0,1
 187 0 187 0 187 53 c 2,2,-1
 187 1335 l 2,3,4
 187 1387 187 1387 240 1387 c 0,5,6
 292 1387 292 1387 292 1335 c 2,7,-1
 292 806 l 1,8,9
 337 875 337 875 420.5 911 c 128,-1,10
 504 947 504 947 636 947 c 2,11,-1
 712 947 l 2,12,13
 899 947 899 947 985.5 860 c 128,-1,14
 1072 773 1072 773 1072 586 c 2,15,-1
 1072 361 l 2,16,17
 1072 174 1072 174 985.5 87 c 128,-1,18
 899 0 899 0 712 0 c 2,19,-1
 636 0 l 2,20,21
 504 0 504 0 420.5 35.5 c 128,-1,22
 337 71 337 71 292 141 c 1,23,-1
 292 53 l 2,24,25
 292 0 292 0 240 0 c 0,0,1
636 105 m 2,26,-1
 712 105 l 2,27,28
 855 105 855 105 911 161.5 c 128,-1,29
 967 218 967 218 967 361 c 2,30,-1
 967 586 l 2,31,32
 967 729 967 729 910.5 785.5 c 128,-1,33
 854 842 854 842 712 842 c 2,34,-1
 636 842 l 2,35,36
 480 842 480 842 386 793 c 128,-1,37
 292 744 292 744 292 644 c 2,38,-1
 292 299 l 2,39,40
 294 202 294 202 388 153.5 c 128,-1,41
 482 105 482 105 636 105 c 2,26,-1
EndSplineSet
EndChar

StartChar: c
Encoding: 99 99 239
Width: 1142
GlyphClass: 2
Flags: W
AnchorPoint: "+BBEENQQ3BEsEPARPBD0EPQQ+BDUA--2" 606 0 basechar 0
AnchorPoint: "+BBEENQQ3BEsEPARPBD0EPQQ+BDUA--0" 605 945 basechar 0
LayerCount: 2
Fore
SplineSet
521 0 m 2,0,1
 334 0 334 0 247 87 c 128,-1,2
 160 174 160 174 160 361 c 2,3,-1
 160 587 l 2,4,5
 160 774 160 774 246.5 860.5 c 128,-1,6
 333 947 333 947 521 945 c 2,7,-1
 685 945 l 2,8,9
 832 945 832 945 909.5 895.5 c 128,-1,10
 987 846 987 846 1002 740 c 0,11,12
 1005 713 1005 713 990.5 699 c 128,-1,13
 976 685 976 685 950 685 c 0,14,15
 926 685 926 685 914 697.5 c 128,-1,16
 902 710 902 710 896 734 c 0,17,18
 885 792 885 792 837 816 c 128,-1,19
 789 840 789 840 685 840 c 2,20,-1
 521 840 l 2,21,22
 378 842 378 842 321.5 786.5 c 128,-1,23
 265 731 265 731 265 587 c 2,24,-1
 265 361 l 2,25,26
 265 218 265 218 321.5 161.5 c 128,-1,27
 378 105 378 105 521 105 c 2,28,-1
 685 105 l 2,29,30
 789 105 789 105 837 129 c 128,-1,31
 885 153 885 153 896 212 c 0,32,33
 902 236 902 236 914 248.5 c 128,-1,34
 926 261 926 261 950 261 c 0,35,36
 976 261 976 261 990.5 246.5 c 128,-1,37
 1005 232 1005 232 1002 206 c 0,38,39
 987 100 987 100 909.5 50 c 128,-1,40
 832 0 832 0 685 0 c 2,41,-1
 521 0 l 2,0,1
EndSplineSet
EndChar

StartChar: d
Encoding: 100 100 245
Width: 1214
GlyphClass: 2
Flags: W
AnchorPoint: "+BBEENQQ3BEsEPARPBD0EPQQ+BDUA--4" 915 1154 basechar 0
AnchorPoint: "+BBEENQQ3BEsEPARPBD0EPQQ+BDUA--2" 568 0 basechar 0
AnchorPoint: "+BBEENQQ3BEsEPARPBD0EPQQ+BDUA--1" 1131 945 basechar 0
AnchorPoint: "+BBEENQQ3BEsEPARPBD0EPQQ+BDUA--0" 661 945 basechar 0
LayerCount: 2
Fore
SplineSet
521 0 m 2,0,1
 334 0 334 0 247 87 c 128,-1,2
 160 174 160 174 160 361 c 2,3,-1
 160 585 l 2,4,5
 160 772 160 772 247 858.5 c 128,-1,6
 334 945 334 945 521 945 c 2,7,-1
 940 945 l 1,8,-1
 940 1335 l 2,9,10
 940 1387 940 1387 993 1387 c 0,11,12
 1045 1387 1045 1387 1045 1335 c 2,13,-1
 1045 53 l 2,14,15
 1045 0 1045 0 993 0 c 0,16,17
 940 0 940 0 940 53 c 2,18,-1
 940 139 l 1,19,20
 897 70 897 70 814 35 c 128,-1,21
 731 0 731 0 597 0 c 2,22,-1
 521 0 l 2,0,1
521 105 m 2,23,-1
 597 105 l 2,24,25
 753 105 753 105 846.5 154.5 c 128,-1,26
 940 204 940 204 940 303 c 2,27,-1
 940 840 l 1,28,-1
 521 840 l 2,29,30
 378 840 378 840 321.5 783.5 c 128,-1,31
 265 727 265 727 265 585 c 2,32,-1
 265 361 l 2,33,34
 265 218 265 218 321.5 161.5 c 128,-1,35
 378 105 378 105 521 105 c 2,23,-1
EndSplineSet
EndChar

StartChar: eth
Encoding: 240 240 246
Width: 1205
Flags: W
LayerCount: 2
Fore
SplineSet
521 2 m 2,0,1
 334 2 334 2 247 88.5 c 128,-1,2
 160 175 160 175 160 360 c 2,3,-1
 160 586 l 2,4,5
 160 775 160 775 247 861.5 c 128,-1,6
 334 948 334 948 521 947 c 2,7,-1
 685 947 l 2,8,9
 762 947 762 947 824 923.5 c 128,-1,10
 886 900 886 900 929 851 c 1,11,12
 918 971 918 971 896 1047 c 128,-1,13
 874 1123 874 1123 838.5 1163 c 128,-1,14
 803 1203 803 1203 754 1216 c 2,15,-1
 291 1332 l 2,16,17
 241 1347 241 1347 253 1397 c 0,18,19
 265 1449 265 1449 317 1435 c 2,20,-1
 780 1317 l 2,21,22
 917 1283 917 1283 979 1123.5 c 128,-1,23
 1041 964 1041 964 1045 636 c 1,24,-1
 1045 362 l 2,25,26
 1045 175 1045 175 958.5 88.5 c 128,-1,27
 872 2 872 2 685 2 c 2,28,-1
 521 2 l 2,0,1
521 107 m 2,29,-1
 685 107 l 2,30,31
 828 107 828 107 884 163 c 128,-1,32
 940 219 940 219 940 362 c 2,33,-1
 940 617 l 2,34,35
 940 703 940 703 910.5 751.5 c 128,-1,36
 881 800 881 800 824 821 c 128,-1,37
 767 842 767 842 685 842 c 2,38,-1
 521 842 l 2,39,40
 425 842 425 842 369 818 c 128,-1,41
 313 794 313 794 289 738 c 128,-1,42
 265 682 265 682 265 586 c 2,43,-1
 265 360 l 2,44,45
 265 219 265 219 321.5 163 c 128,-1,46
 378 107 378 107 521 107 c 2,29,-1
442 1131 m 2,47,48
 405 1096 405 1096 372 1133 c 0,49,50
 338 1170 338 1170 374 1204 c 2,51,-1
 677 1488 l 2,52,53
 714 1522 714 1522 747 1486 c 0,54,55
 780 1449 780 1449 745 1415 c 2,56,-1
 442 1131 l 2,47,48
EndSplineSet
EndChar

StartChar: e
Encoding: 101 101 252
Width: 1205
GlyphClass: 2
Flags: W
AnchorPoint: "+BBEENQQ3BEsEPARPBD0EPQQ+BDUA--3" 956 100 basechar 0
AnchorPoint: "+BBEENQQ3BEsEPARPBD0EPQQ+BDUA--2" 615 0 basechar 0
AnchorPoint: "+BBEENQQ3BEsEPARPBD0EPQQ+BDUA--0" 615 945 basechar 0
LayerCount: 2
Fore
SplineSet
265 432 m 1,0,-1
 265 359 l 2,1,2
 265 218 265 218 321.5 161.5 c 128,-1,3
 378 105 378 105 521 105 c 2,4,-1
 685 105 l 2,5,6
 811 105 811 105 868.5 137.5 c 128,-1,7
 926 170 926 170 937 250 c 0,8,9
 941 275 941 275 953.5 288 c 128,-1,10
 966 301 966 301 992 301 c 256,11,12
 1018 301 1018 301 1031.5 286.5 c 128,-1,13
 1045 272 1045 272 1042 246 c 0,14,15
 1029 120 1029 120 941 60 c 128,-1,16
 853 0 853 0 685 0 c 2,17,-1
 521 0 l 2,18,19
 334 0 334 0 247 86.5 c 128,-1,20
 160 173 160 173 160 359 c 2,21,-1
 160 585 l 2,22,23
 160 774 160 774 247 860.5 c 128,-1,24
 334 947 334 947 521 945 c 2,25,-1
 685 945 l 2,26,27
 872 945 872 945 958.5 858.5 c 128,-1,28
 1045 772 1045 772 1045 585 c 2,29,-1
 1045 485 l 2,30,31
 1045 432 1045 432 993 432 c 2,32,-1
 265 432 l 1,0,-1
521 840 m 2,33,34
 378 842 378 842 321.5 785.5 c 128,-1,35
 265 729 265 729 265 585 c 2,36,-1
 265 537 l 1,37,-1
 940 537 l 1,38,-1
 940 585 l 2,39,40
 940 728 940 728 884 784 c 128,-1,41
 828 840 828 840 685 840 c 2,42,-1
 521 840 l 2,33,34
EndSplineSet
Substitution2: "'smcp' Lowercase to Small Capitals in Latin lookup 34 subtable" e.sc
Substitution2: "'aalt' +BBIEQQQ1 +BDAEOwRMBEIENQRABD0EMARCBDgEMgQ9BEsENQAA +BDIEMARABDgEMAQ9BEIESwAA in Latin lookup 0 subtable" e.sc
EndChar

StartChar: f
Encoding: 102 102 273
Width: 657
GlyphClass: 2
Flags: W
AnchorPoint: "+BBEENQQ3BEsEPARPBD0EPQQ+BDUA--2" 329 0 basechar 0
AnchorPoint: "+BBEENQQ3BEsEPARPBD0EPQQ+BDUA--0" 460 1316 basechar 0
LayerCount: 2
Fore
SplineSet
257 0 m 0,0,1
 204 0 204 0 204 53 c 2,2,-1
 204 840 l 1,3,-1
 120 840 l 2,4,5
 67 840 67 840 67 893 c 0,6,7
 67 945 67 945 120 945 c 2,8,-1
 204 945 l 1,9,-1
 204 1033 l 2,10,11
 204 1217 204 1217 289.5 1302 c 128,-1,12
 375 1387 375 1387 559 1387 c 0,13,14
 610 1387 610 1387 610 1335 c 0,15,16
 610 1282 610 1282 559 1282 c 0,17,18
 419 1282 419 1282 364 1227.5 c 128,-1,19
 309 1173 309 1173 309 1033 c 2,20,-1
 309 945 l 1,21,-1
 557 945 l 2,22,23
 610 945 610 945 610 893 c 0,24,25
 610 840 610 840 557 840 c 2,26,-1
 309 840 l 1,27,-1
 309 53 l 2,28,29
 309 0 309 0 257 0 c 0,0,1
EndSplineSet
EndChar

StartChar: g
Encoding: 103 103 275
Width: 1214
GlyphClass: 2
Flags: W
AnchorPoint: "+BBEENQQ3BEsEPARPBD0EPQQ+BDUA--2" 594 -400 basechar 0
AnchorPoint: "+BBEENQQ3BEsEPARPBD0EPQQ+BDUA--0" 608 945 basechar 0
LayerCount: 2
Fore
SplineSet
417 -400 m 2,0,1
 299 -400 299 -400 237 -351.5 c 128,-1,2
 175 -303 175 -303 164 -199 c 0,3,4
 161 -173 161 -173 175 -158 c 128,-1,5
 189 -143 189 -143 214 -143 c 256,6,7
 239 -143 239 -143 252 -156 c 128,-1,8
 265 -169 265 -169 269 -195 c 0,9,10
 276 -253 276 -253 310 -274 c 128,-1,11
 344 -295 344 -295 417 -295 c 2,12,-1
 789 -295 l 2,13,14
 877 -295 877 -295 908.5 -263 c 128,-1,15
 940 -231 940 -231 940 -143 c 2,16,-1
 940 143 l 1,17,18
 894 73 894 73 810 36.5 c 128,-1,19
 726 0 726 0 597 0 c 2,20,-1
 521 0 l 2,21,22
 334 0 334 0 247 86.5 c 128,-1,23
 160 173 160 173 160 359 c 2,24,-1
 160 585 l 2,25,26
 160 774 160 774 246.5 859.5 c 128,-1,27
 333 945 333 945 521 945 c 2,28,-1
 685 945 l 2,29,30
 783 945 783 945 844 919 c 128,-1,31
 905 893 905 893 940 838 c 1,32,-1
 940 893 l 2,33,34
 940 945 940 945 993 945 c 0,35,36
 1045 945 1045 945 1045 893 c 2,37,-1
 1045 -143 l 2,38,39
 1045 -275 1045 -275 983 -337.5 c 128,-1,40
 921 -400 921 -400 789 -400 c 2,41,-1
 417 -400 l 2,0,1
521 105 m 2,42,-1
 597 105 l 2,43,44
 753 105 753 105 846.5 154 c 128,-1,45
 940 203 940 203 940 303 c 2,46,-1
 940 637 l 2,47,48
 940 750 940 750 877 795 c 128,-1,49
 814 840 814 840 685 840 c 2,50,-1
 521 840 l 2,51,52
 378 840 378 840 321.5 784.5 c 128,-1,53
 265 729 265 729 265 585 c 2,54,-1
 265 359 l 2,55,56
 265 218 265 218 321.5 161.5 c 128,-1,57
 378 105 378 105 521 105 c 2,42,-1
EndSplineSet
EndChar

StartChar: h
Encoding: 104 104 281
Width: 1221
GlyphClass: 2
Flags: W
AnchorPoint: "+BBEENQQ3BEsEPARPBD0EPQQ+BDUA--4" 327 1148 basechar 0
AnchorPoint: "+BBEENQQ3BEsEPARPBD0EPQQ+BDUA--2" 643 0 basechar 0
AnchorPoint: "+BBEENQQ3BEsEPARPBD0EPQQ+BDUA--0" 244 1365 basechar 0
LayerCount: 2
Fore
SplineSet
240 0 m 0,0,1
 187 0 187 0 187 53 c 2,2,-1
 187 1335 l 2,3,4
 187 1387 187 1387 240 1387 c 0,5,6
 292 1387 292 1387 292 1335 c 2,7,-1
 292 797 l 1,8,9
 387 945 387 945 636 945 c 2,10,-1
 692 945 l 2,11,12
 879 945 879 945 965.5 858.5 c 128,-1,13
 1052 772 1052 772 1052 585 c 2,14,-1
 1052 53 l 2,15,16
 1052 0 1052 0 1000 0 c 0,17,18
 947 0 947 0 947 53 c 2,19,-1
 947 585 l 2,20,21
 947 728 947 728 890.5 784 c 128,-1,22
 834 840 834 840 692 840 c 2,23,-1
 636 840 l 2,24,25
 481 840 481 840 392 791 c 128,-1,26
 303 742 303 742 292 638 c 1,27,-1
 292 53 l 2,28,29
 292 0 292 0 240 0 c 0,0,1
EndSplineSet
EndChar

StartChar: dotlessi
Encoding: 305 305 285
Width: 479
GlyphClass: 2
Flags: W
AnchorPoint: "+BBEENQQ3BEsEPARPBD0EPQQ+BDUA--3" 226 4 basechar 0
AnchorPoint: "+BBEENQQ3BEsEPARPBD0EPQQ+BDUA--2" 239 0 basechar 0
AnchorPoint: "+BBEENQQ3BEsEPARPBD0EPQQ+BDUA--0" 239 945 basechar 0
LayerCount: 2
Fore
SplineSet
240 0 m 0,0,1
 187 0 187 0 187 53 c 2,2,-1
 187 893 l 2,3,4
 187 945 187 945 240 945 c 0,5,6
 292 945 292 945 292 893 c 2,7,-1
 292 53 l 2,8,9
 292 0 292 0 240 0 c 0,0,1
EndSplineSet
EndChar

StartChar: uni0237
Encoding: 567 567 300
Width: 479
GlyphClass: 2
Flags: W
AnchorPoint: "+BBEENQQ3BEsEPARPBD0EPQQ+BDUA--2" 73 -400 basechar 0
AnchorPoint: "+BBEENQQ3BEsEPARPBD0EPQQ+BDUA--0" 240 945 basechar 0
LayerCount: 2
Fore
SplineSet
20 -400 m 0,0,1
 -5 -400 -5 -400 -20 -386.5 c 128,-1,2
 -35 -373 -35 -373 -35 -347 c 256,3,4
 -35 -321 -35 -321 -19.5 -308 c 128,-1,5
 -4 -295 -4 -295 20 -295 c 0,6,7
 116 -295 116 -295 151.5 -259 c 128,-1,8
 187 -223 187 -223 187 -127 c 2,9,-1
 187 893 l 2,10,11
 187 945 187 945 240 945 c 0,12,13
 292 945 292 945 292 893 c 2,14,-1
 292 -127 l 2,15,16
 292 -267 292 -267 226 -333.5 c 128,-1,17
 160 -400 160 -400 20 -400 c 0,0,1
EndSplineSet
EndChar

StartChar: k
Encoding: 107 107 302
Width: 958
GlyphClass: 2
Flags: W
AnchorPoint: "+BBEENQQ3BEsEPARPBD0EPQQ+BDUA--2" 477 0 basechar 0
AnchorPoint: "+BBEENQQ3BEsEPARPBD0EPQQ+BDUA--0" 240 1387 basechar 0
LayerCount: 2
Fore
SplineSet
240 0 m 0,0,1
 187 0 187 0 187 53 c 2,2,-1
 187 1335 l 2,3,4
 187 1387 187 1387 240 1387 c 0,5,6
 292 1387 292 1387 292 1335 c 2,7,-1
 292 504 l 1,8,-1
 800 940 l 2,9,10
 838 974 838 974 873 935 c 0,11,12
 907 896 907 896 868 861 c 2,13,-1
 500 544 l 1,14,-1
 900 90 l 2,15,16
 935 51 935 51 895 16 c 0,17,18
 857 -18 857 -18 822 21 c 2,19,-1
 419 475 l 1,20,-1
 292 366 l 1,21,-1
 292 53 l 2,22,23
 292 0 292 0 240 0 c 0,0,1
EndSplineSet
EndChar

StartChar: kgreenlandic
Encoding: 312 312 304
Width: 958
GlyphClass: 2
Flags: W
AnchorPoint: "+BBEENQQ3BEsEPARPBD0EPQQ+BDUA--2" 497 0 basechar 0
AnchorPoint: "+BBEENQQ3BEsEPARPBD0EPQQ+BDUA--0" 501 945 basechar 0
LayerCount: 2
Fore
SplineSet
240 0 m 0,0,1
 187 0 187 0 187 53 c 2,2,-1
 187 893 l 2,3,4
 187 945 187 945 240 945 c 0,5,6
 292 945 292 945 292 893 c 2,7,-1
 292 504 l 1,8,-1
 800 940 l 2,9,10
 837 974 837 974 873 935 c 0,11,12
 890 916 890 916 888 897 c 128,-1,13
 886 878 886 878 868 861 c 2,14,-1
 500 544 l 1,15,-1
 900 90 l 2,16,17
 935 50 935 50 895 16 c 0,18,19
 876 -1 876 -1 857.5 0.5 c 128,-1,20
 839 2 839 2 822 20 c 2,21,-1
 419 475 l 1,22,-1
 292 366 l 1,23,-1
 292 53 l 2,24,25
 292 0 292 0 240 0 c 0,0,1
EndSplineSet
EndChar

StartChar: l
Encoding: 108 108 305
Width: 583
GlyphClass: 2
Flags: W
AnchorPoint: "+BBEENQQ3BEsEPARPBD0EPQQ+BDUA--4" 273 693 basechar 0
AnchorPoint: "+BBEENQQ3BEsEPARPBD0EPQQ+BDUA--2" 376 0 basechar 0
AnchorPoint: "+BBEENQQ3BEsEPARPBD0EPQQ+BDUA--1" 382 945 basechar 0
AnchorPoint: "+BBEENQQ3BEsEPARPBD0EPQQ+BDUA--0" 240 1387 basechar 0
LayerCount: 2
Fore
SplineSet
462 0 m 0,0,1
 320 0 320 0 253.5 66 c 128,-1,2
 187 132 187 132 187 273 c 2,3,-1
 187 1335 l 2,4,5
 187 1387 187 1387 240 1387 c 0,6,7
 292 1387 292 1387 292 1335 c 2,8,-1
 292 273 l 2,9,10
 292 176 292 176 328 140.5 c 128,-1,11
 364 105 364 105 461 105 c 0,12,13
 515 105 515 105 515 53 c 0,14,15
 516 0 516 0 462 0 c 0,0,1
EndSplineSet
EndChar

StartChar: lslash
Encoding: 322 322 311
Width: 586
GlyphClass: 2
Flags: W
AnchorPoint: "+BBEENQQ3BEsEPARPBD0EPQQ+BDUA--4" 273 693 basechar 0
AnchorPoint: "+BBEENQQ3BEsEPARPBD0EPQQ+BDUA--2" 376 0 basechar 0
AnchorPoint: "+BBEENQQ3BEsEPARPBD0EPQQ+BDUA--1" 382 945 basechar 0
AnchorPoint: "+BBEENQQ3BEsEPARPBD0EPQQ+BDUA--0" 240 1387 basechar 0
LayerCount: 2
Fore
SplineSet
37 479 m 0,0,1
 18 479 18 479 5 492.5 c 128,-1,2
 -8 506 -8 506 -8 525 c 0,3,4
 -8 548 -8 548 11 562 c 2,5,-1
 433 877 l 2,6,7
 444 886 444 886 461 886 c 0,8,9
 480 886 480 886 493 873 c 128,-1,10
 506 860 506 860 506 841 c 0,11,12
 506 819 506 819 487 804 c 2,13,-1
 65 488 l 2,14,15
 54 479 54 479 37 479 c 0,0,1
462 0 m 0,16,17
 320 0 320 0 253.5 66 c 128,-1,18
 187 132 187 132 187 273 c 2,19,-1
 187 1335 l 2,20,21
 187 1387 187 1387 240 1387 c 0,22,23
 292 1387 292 1387 292 1335 c 2,24,-1
 292 273 l 2,25,26
 292 176 292 176 328 140.5 c 128,-1,27
 364 105 364 105 461 105 c 0,28,29
 515 105 515 105 515 53 c 0,30,31
 516 0 516 0 462 0 c 0,16,17
EndSplineSet
EndChar

StartChar: m
Encoding: 109 109 312
Width: 1715
GlyphClass: 2
Flags: W
AnchorPoint: "+BBEENQQ3BEsEPARPBD0EPQQ+BDUA--2" 860 0 basechar 0
AnchorPoint: "+BBEENQQ3BEsEPARPBD0EPQQ+BDUA--0" 871 945 basechar 0
LayerCount: 2
Fore
SplineSet
1246 947 m 2,0,1
 1407 947 1407 947 1476.5 865 c 128,-1,2
 1546 783 1546 783 1546 594 c 2,3,-1
 1546 51 l 2,4,5
 1546 -1 1546 -1 1494 -1 c 0,6,7
 1441 -1 1441 -1 1441 51 c 2,8,-1
 1441 594 l 2,9,10
 1441 726 1441 726 1396 784 c 128,-1,11
 1351 842 1351 842 1246 842 c 2,12,-1
 1163 842 l 2,13,14
 1032 842 1032 842 975.5 784 c 128,-1,15
 919 726 919 726 919 594 c 2,16,-1
 919 51 l 2,17,18
 919 -1 919 -1 867 -1 c 0,19,20
 814 -1 814 -1 814 51 c 2,21,-1
 814 594 l 2,22,23
 814 726 814 726 769 784 c 128,-1,24
 724 842 724 842 619 842 c 2,25,-1
 536 842 l 2,26,27
 405 842 405 842 348.5 784 c 128,-1,28
 292 726 292 726 292 594 c 2,29,-1
 292 51 l 2,30,31
 292 -1 292 -1 240 -1 c 0,32,33
 187 -1 187 -1 187 51 c 2,34,-1
 187 893 l 2,35,36
 187 945 187 945 240 945 c 0,37,38
 292 945 292 945 292 893 c 2,39,-1
 292 815 l 1,40,41
 336 886 336 886 396.5 916.5 c 128,-1,42
 457 947 457 947 550 947 c 2,43,-1
 619 947 l 2,44,45
 724 947 724 947 787.5 910.5 c 128,-1,46
 851 874 851 874 888 791 c 1,47,48
 932 874 932 874 996 910.5 c 128,-1,49
 1060 947 1060 947 1163 947 c 2,50,-1
 1246 947 l 2,0,1
EndSplineSet
EndChar

StartChar: n
Encoding: 110 110 314
Width: 1221
GlyphClass: 2
Flags: W
AnchorPoint: "+BBEENQQ3BEsEPARPBD0EPQQ+BDUA--2" 675 0 basechar 0
AnchorPoint: "+BBEENQQ3BEsEPARPBD0EPQQ+BDUA--0" 662 945 basechar 0
LayerCount: 2
Fore
SplineSet
240 0 m 0,0,1
 187 0 187 0 187 53 c 2,2,-1
 187 893 l 2,3,4
 187 945 187 945 240 945 c 0,5,6
 292 945 292 945 292 893 c 2,7,-1
 292 797 l 1,8,9
 387 945 387 945 636 945 c 2,10,-1
 692 945 l 2,11,12
 879 945 879 945 965.5 858.5 c 128,-1,13
 1052 772 1052 772 1052 585 c 2,14,-1
 1052 53 l 2,15,16
 1052 0 1052 0 1000 0 c 0,17,18
 947 0 947 0 947 53 c 2,19,-1
 947 585 l 2,20,21
 947 728 947 728 890.5 784 c 128,-1,22
 834 840 834 840 692 840 c 2,23,-1
 636 840 l 2,24,25
 481 840 481 840 392 791 c 128,-1,26
 303 742 303 742 292 638 c 1,27,-1
 292 53 l 2,28,29
 292 0 292 0 240 0 c 0,0,1
EndSplineSet
EndChar

StartChar: eng
Encoding: 331 331 318
Width: 1219
GlyphClass: 2
Flags: W
AnchorPoint: "+BBEENQQ3BEsEPARPBD0EPQQ+BDUA--2" 675 0 basechar 0
AnchorPoint: "+BBEENQQ3BEsEPARPBD0EPQQ+BDUA--0" 662 945 basechar 0
LayerCount: 2
Fore
SplineSet
604 -404 m 2,0,1
 479 -404 479 -404 415.5 -348 c 128,-1,2
 352 -292 352 -292 349 -172 c 0,3,4
 346 -119 346 -119 396 -119 c 0,5,6
 421 -119 421 -119 434.5 -131 c 128,-1,7
 448 -143 448 -143 450 -166 c 0,8,9
 452 -242 452 -242 485.5 -270.5 c 128,-1,10
 519 -299 519 -299 604 -299 c 2,11,-1
 796 -299 l 2,12,13
 883 -299 883 -299 915 -267 c 128,-1,14
 947 -235 947 -235 947 -146 c 2,15,-1
 947 585 l 2,16,17
 947 728 947 728 890.5 784 c 128,-1,18
 834 840 834 840 692 840 c 2,19,-1
 636 840 l 2,20,21
 481 840 481 840 392 791 c 128,-1,22
 303 742 303 742 292 638 c 1,23,-1
 292 53 l 2,24,25
 292 0 292 0 240 0 c 0,26,27
 187 0 187 0 187 53 c 2,28,-1
 187 893 l 2,29,30
 187 945 187 945 240 945 c 0,31,32
 292 945 292 945 292 893 c 2,33,-1
 292 797 l 1,34,35
 387 945 387 945 636 945 c 2,36,-1
 692 945 l 2,37,38
 879 945 879 945 965.5 858.5 c 128,-1,39
 1052 772 1052 772 1052 585 c 2,40,-1
 1052 -146 l 2,41,42
 1052 -279 1052 -279 990 -341.5 c 128,-1,43
 928 -404 928 -404 796 -404 c 2,44,-1
 604 -404 l 2,0,1
EndSplineSet
EndChar

StartChar: o
Encoding: 111 111 321
Width: 1205
GlyphClass: 2
Flags: W
AnchorPoint: "+BBEENQQ3BEsEPARPBD0EPQQ+BDUA--4" 603 473 basechar 0
AnchorPoint: "+BBEENQQ3BEsEPARPBD0EPQQ+BDUA--3" 929 83 basechar 0
AnchorPoint: "+BBEENQQ3BEsEPARPBD0EPQQ+BDUA--2" 603 0 basechar 0
AnchorPoint: "+BBEENQQ3BEsEPARPBD0EPQQ+BDUA--1" 919 877 basechar 0
AnchorPoint: "+BBEENQQ3BEsEPARPBD0EPQQ+BDUA--0" 603 945 basechar 0
LayerCount: 2
Fore
SplineSet
521 0 m 2,0,1
 334 0 334 0 247 86.5 c 128,-1,2
 160 173 160 173 160 359 c 2,3,-1
 160 585 l 2,4,5
 160 774 160 774 247 860.5 c 128,-1,6
 334 947 334 947 521 945 c 2,7,-1
 685 945 l 2,8,9
 872 945 872 945 958.5 858.5 c 128,-1,10
 1045 772 1045 772 1045 585 c 2,11,-1
 1045 361 l 2,12,13
 1045 174 1045 174 958.5 87 c 128,-1,14
 872 0 872 0 685 0 c 2,15,-1
 521 0 l 2,0,1
265 359 m 2,16,17
 265 218 265 218 321.5 161.5 c 128,-1,18
 378 105 378 105 521 105 c 2,19,-1
 685 105 l 2,20,21
 828 105 828 105 884 161.5 c 128,-1,22
 940 218 940 218 940 361 c 2,23,-1
 940 585 l 2,24,25
 940 728 940 728 884 784 c 128,-1,26
 828 840 828 840 685 840 c 2,27,-1
 521 840 l 2,28,29
 425 841 425 841 369 817 c 128,-1,30
 313 793 313 793 289 737 c 128,-1,31
 265 681 265 681 265 585 c 2,32,-1
 265 359 l 2,16,17
EndSplineSet
Substitution2: "'smcp' Lowercase to Small Capitals in Latin lookup 34 subtable" o.sc
Substitution2: "Single Substitution lookup 23 subtable" ordmasculine
AlternateSubs2: "'aalt' +BBIEQQQ1 +BDAEOwRMBEIENQRABD0EMARCBDgEMgQ9BEsENQAA +BDIEMARABDgEMAQ9BEIESwAA in Latin lookup 1 subtable" o.sc ordmasculine
EndChar

StartChar: oslash
Encoding: 248 248 347
Width: 1205
GlyphClass: 2
Flags: W
AnchorPoint: "+BBEENQQ3BEsEPARPBD0EPQQ+BDUA--4" 603 473 basechar 0
AnchorPoint: "+BBEENQQ3BEsEPARPBD0EPQQ+BDUA--3" 929 83 basechar 0
AnchorPoint: "+BBEENQQ3BEsEPARPBD0EPQQ+BDUA--2" 603 0 basechar 0
AnchorPoint: "+BBEENQQ3BEsEPARPBD0EPQQ+BDUA--1" 919 877 basechar 0
AnchorPoint: "+BBEENQQ3BEsEPARPBD0EPQQ+BDUA--0" 603 945 basechar 0
LayerCount: 2
Fore
SplineSet
240 -126 m 0,0,1
 215 -117 215 -117 209.5 -97 c 128,-1,2
 204 -77 204 -77 218 -54 c 2,3,-1
 303 83 l 1,4,-1
 316 99 l 1,5,-1
 795 877 l 1,6,-1
 805 894 l 1,7,-1
 883 1025 l 2,8,9
 905 1061 905 1061 944 1044 c 0,10,11
 998 1022 998 1022 968 971 c 2,12,-1
 894 851 l 1,13,-1
 879 830 l 1,14,-1
 410 67 l 1,15,-1
 396 44 l 1,16,-1
 302 -107 l 2,17,18
 280 -144 280 -144 240 -126 c 0,0,1
521 0 m 2,19,20
 334 0 334 0 247 86.5 c 128,-1,21
 160 173 160 173 160 359 c 2,22,-1
 160 585 l 2,23,24
 160 774 160 774 247 860.5 c 128,-1,25
 334 947 334 947 521 945 c 2,26,-1
 685 945 l 2,27,28
 872 945 872 945 958.5 858.5 c 128,-1,29
 1045 772 1045 772 1045 585 c 2,30,-1
 1045 361 l 2,31,32
 1045 174 1045 174 958.5 87 c 128,-1,33
 872 0 872 0 685 0 c 2,34,-1
 521 0 l 2,19,20
265 359 m 2,35,36
 265 218 265 218 321.5 161.5 c 128,-1,37
 378 105 378 105 521 105 c 2,38,-1
 685 105 l 2,39,40
 828 105 828 105 884 161.5 c 128,-1,41
 940 218 940 218 940 361 c 2,42,-1
 940 585 l 2,43,44
 940 728 940 728 884 784 c 128,-1,45
 828 840 828 840 685 840 c 2,46,-1
 521 840 l 2,47,48
 425 841 425 841 369 817 c 128,-1,49
 313 793 313 793 289 737 c 128,-1,50
 265 681 265 681 265 585 c 2,51,-1
 265 359 l 2,35,36
EndSplineSet
EndChar

StartChar: oe
Encoding: 339 339 351
Width: 1865
GlyphClass: 2
Flags: W
AnchorPoint: "+BBEENQQ3BEsEPARPBD0EPQQ+BDUA--2" 933 0 basechar 0
AnchorPoint: "+BBEENQQ3BEsEPARPBD0EPQQ+BDUA--0" 933 945 basechar 0
LayerCount: 2
Fore
SplineSet
521 -8 m 2,0,1
 334 -8 334 -8 247 78.5 c 128,-1,2
 160 165 160 165 160 350 c 2,3,-1
 160 574 l 2,4,5
 160 763 160 763 247 849 c 128,-1,6
 334 935 334 935 521 935 c 2,7,-1
 625 935 l 2,8,9
 739 935 739 935 815 901.5 c 128,-1,10
 891 868 891 868 932 790 c 1,11,12
 973 869 973 869 1047 902 c 128,-1,13
 1121 935 1121 935 1233 935 c 2,14,-1
 1353 935 l 2,15,16
 1536 935 1536 935 1620.5 835.5 c 128,-1,17
 1705 736 1705 736 1705 535 c 0,18,19
 1705 509 1705 509 1698.5 495 c 128,-1,20
 1692 481 1692 481 1680 476.5 c 128,-1,21
 1668 472 1668 472 1652 472 c 2,22,-1
 985 472 l 1,23,-1
 985 356 l 2,24,25
 985 212 985 212 1040 154.5 c 128,-1,26
 1095 97 1095 97 1231 97 c 2,27,-1
 1353 97 l 2,28,29
 1424 97 1424 97 1470.5 105 c 128,-1,30
 1517 113 1517 113 1544 132.5 c 128,-1,31
 1571 152 1571 152 1584 186.5 c 128,-1,32
 1597 221 1597 221 1600 274 c 0,33,34
 1602 296 1602 296 1614.5 311.5 c 128,-1,35
 1627 327 1627 327 1653 327 c 0,36,37
 1675 327 1675 327 1690 312 c 128,-1,38
 1705 297 1705 297 1705 266 c 0,39,40
 1705 202 1705 202 1687 155.5 c 128,-1,41
 1669 109 1669 109 1636 77.5 c 128,-1,42
 1603 46 1603 46 1559 27 c 128,-1,43
 1515 8 1515 8 1462.5 0 c 128,-1,44
 1410 -8 1410 -8 1353 -8 c 2,45,-1
 1231 -8 l 2,46,47
 1121 -8 1121 -8 1047 26 c 128,-1,48
 973 60 973 60 933 137 c 1,49,50
 891 60 891 60 815 26 c 128,-1,51
 739 -8 739 -8 625 -8 c 2,52,-1
 521 -8 l 2,0,1
521 97 m 2,53,-1
 625 97 l 2,54,55
 768 97 768 97 824 153 c 128,-1,56
 880 209 880 209 880 352 c 2,57,-1
 880 574 l 2,58,59
 880 717 880 717 824 773.5 c 128,-1,60
 768 830 768 830 625 830 c 2,61,-1
 521 830 l 2,62,63
 378 830 378 830 321.5 774.5 c 128,-1,64
 265 719 265 719 265 574 c 2,65,-1
 265 350 l 2,66,67
 265 209 265 209 321.5 153 c 128,-1,68
 378 97 378 97 521 97 c 2,53,-1
985 577 m 1,69,-1
 1600 577 l 1,70,71
 1591 718 1591 718 1535 774 c 128,-1,72
 1479 830 1479 830 1353 830 c 2,73,-1
 1233 830 l 2,74,75
 1093 830 1093 830 1039.5 774 c 128,-1,76
 986 718 986 718 985 577 c 1,69,-1
EndSplineSet
EndChar

StartChar: p
Encoding: 112 112 352
Width: 1232
GlyphClass: 2
Flags: W
AnchorPoint: "+BBEENQQ3BEsEPARPBD0EPQQ+BDUA--4" 668 477 basechar 0
AnchorPoint: "+BBEENQQ3BEsEPARPBD0EPQQ+BDUA--2" 628 0 basechar 0
AnchorPoint: "+BBEENQQ3BEsEPARPBD0EPQQ+BDUA--0" 667 945 basechar 0
LayerCount: 2
Fore
SplineSet
240 -400 m 0,0,1
 187 -400 187 -400 187 -347 c 2,2,-1
 187 893 l 2,3,4
 187 945 187 945 240 945 c 0,5,6
 292 945 292 945 292 893 c 2,7,-1
 292 804 l 1,8,9
 337 874 337 874 421 909.5 c 128,-1,10
 505 945 505 945 636 945 c 2,11,-1
 712 945 l 2,12,13
 899 945 899 945 985.5 858.5 c 128,-1,14
 1072 772 1072 772 1072 585 c 2,15,-1
 1072 361 l 2,16,17
 1072 174 1072 174 985.5 87 c 128,-1,18
 899 0 899 0 712 0 c 2,19,-1
 292 0 l 1,20,-1
 292 -347 l 2,21,22
 292 -400 292 -400 240 -400 c 0,0,1
292 105 m 1,23,-1
 712 105 l 2,24,25
 855 105 855 105 911 161.5 c 128,-1,26
 967 218 967 218 967 361 c 2,27,-1
 967 585 l 2,28,29
 967 728 967 728 911 784 c 128,-1,30
 855 840 855 840 712 840 c 2,31,-1
 636 840 l 2,32,33
 476 840 476 840 390.5 790 c 128,-1,34
 305 740 305 740 292 636 c 1,35,-1
 292 105 l 1,23,-1
EndSplineSet
EndChar

StartChar: thorn
Encoding: 254 254 354
Width: 1232
Flags: W
LayerCount: 2
Fore
SplineSet
240 -400 m 0,0,1
 212 -400 212 -400 199.5 -387.5 c 128,-1,2
 187 -375 187 -375 187 -347 c 2,3,-1
 187 1257 l 2,4,5
 187 1284 187 1284 199.5 1296.5 c 128,-1,6
 212 1309 212 1309 240 1309 c 0,7,8
 267 1309 267 1309 279.5 1296.5 c 128,-1,9
 292 1284 292 1284 292 1257 c 2,10,-1
 292 797 l 1,11,12
 406 945 406 945 636 945 c 2,13,-1
 712 945 l 2,14,15
 899 945 899 945 985.5 858.5 c 128,-1,16
 1072 772 1072 772 1072 585 c 2,17,-1
 1072 363 l 2,18,19
 1072 176 1072 176 985.5 89 c 128,-1,20
 899 2 899 2 712 2 c 2,21,-1
 292 2 l 1,22,-1
 292 -347 l 2,23,24
 292 -375 292 -375 279.5 -387.5 c 128,-1,25
 267 -400 267 -400 240 -400 c 0,0,1
292 107 m 1,26,-1
 712 107 l 2,27,28
 855 107 855 107 911 163.5 c 128,-1,29
 967 220 967 220 967 363 c 2,30,-1
 967 585 l 2,31,32
 967 728 967 728 911 784 c 128,-1,33
 855 840 855 840 712 840 c 2,34,-1
 636 840 l 2,35,36
 461 840 461 840 376.5 778.5 c 128,-1,37
 292 717 292 717 292 593 c 2,38,-1
 292 107 l 1,26,-1
EndSplineSet
EndChar

StartChar: q
Encoding: 113 113 355
Width: 1214
GlyphClass: 2
Flags: W
AnchorPoint: "+BBEENQQ3BEsEPARPBD0EPQQ+BDUA--2" 597 0 basechar 0
AnchorPoint: "+BBEENQQ3BEsEPARPBD0EPQQ+BDUA--0" 597 945 basechar 0
LayerCount: 2
Fore
SplineSet
993 -400 m 0,0,1
 940 -400 940 -400 940 -347 c 2,2,-1
 940 0 l 1,3,-1
 521 0 l 2,4,5
 334 0 334 0 247 87 c 128,-1,6
 160 174 160 174 160 361 c 2,7,-1
 160 585 l 2,8,9
 160 772 160 772 247 858.5 c 128,-1,10
 334 945 334 945 521 945 c 2,11,-1
 597 945 l 2,12,13
 730 945 730 945 813.5 909 c 128,-1,14
 897 873 897 873 940 803 c 1,15,-1
 940 893 l 2,16,17
 940 945 940 945 993 945 c 0,18,19
 1045 945 1045 945 1045 893 c 2,20,-1
 1045 -347 l 2,21,22
 1045 -400 1045 -400 993 -400 c 0,0,1
521 105 m 2,23,-1
 940 105 l 1,24,-1
 940 642 l 2,25,26
 940 742 940 742 846.5 791 c 128,-1,27
 753 840 753 840 597 840 c 2,28,-1
 521 840 l 2,29,30
 378 840 378 840 321.5 784 c 128,-1,31
 265 728 265 728 265 585 c 2,32,-1
 265 361 l 2,33,34
 265 218 265 218 321.5 161.5 c 128,-1,35
 378 105 378 105 521 105 c 2,23,-1
EndSplineSet
EndChar

StartChar: r
Encoding: 114 114 356
Width: 754
GlyphClass: 2
Flags: W
AnchorPoint: "+BBEENQQ3BEsEPARPBD0EPQQ+BDUA--2" 241 -1 basechar 0
AnchorPoint: "+BBEENQQ3BEsEPARPBD0EPQQ+BDUA--0" 452 945 basechar 0
LayerCount: 2
Fore
SplineSet
240 0 m 0,0,1
 187 0 187 0 187 53 c 2,2,-1
 187 893 l 2,3,4
 187 945 187 945 240 945 c 0,5,6
 292 945 292 945 292 893 c 2,7,-1
 292 739 l 1,8,9
 344 839 344 839 442.5 892 c 128,-1,10
 541 945 541 945 676 945 c 0,11,12
 729 945 729 945 729 893 c 0,13,14
 729 840 729 840 676 840 c 0,15,16
 498 840 498 840 400 759.5 c 128,-1,17
 302 679 302 679 292 530 c 1,18,-1
 292 53 l 2,19,20
 292 0 292 0 240 0 c 0,0,1
EndSplineSet
EndChar

StartChar: s
Encoding: 115 115 362
Width: 1117
GlyphClass: 2
Flags: W
AnchorPoint: "+BBEENQQ3BEsEPARPBD0EPQQ+BDUA--2" 557 0 basechar 0
AnchorPoint: "+BBEENQQ3BEsEPARPBD0EPQQ+BDUA--0" 557 945 basechar 0
LayerCount: 2
Fore
SplineSet
394 2 m 2,0,1
 271 2 271 2 206 54.5 c 128,-1,2
 141 107 141 107 128 215 c 0,3,4
 125 241 125 241 139 255.5 c 128,-1,5
 153 270 153 270 180 270 c 0,6,7
 205 270 205 270 217.5 257 c 128,-1,8
 230 244 230 244 234 218 c 0,9,10
 243 156 243 156 279.5 131.5 c 128,-1,11
 316 107 316 107 394 107 c 2,12,-1
 722 107 l 2,13,14
 815 107 815 107 850 142 c 128,-1,15
 885 177 885 177 885 270 c 0,16,17
 885 364 885 364 850 399 c 128,-1,18
 815 434 815 434 722 434 c 2,19,-1
 398 434 l 2,20,21
 268 434 268 434 204.5 496.5 c 128,-1,22
 141 559 141 559 141 689 c 0,23,24
 141 822 141 822 204 884.5 c 128,-1,25
 267 947 267 947 398 947 c 2,26,-1
 712 947 l 2,27,28
 938 947 938 947 963 747 c 0,29,30
 967 721 967 721 952.5 706.5 c 128,-1,31
 938 692 938 692 912 692 c 0,32,33
 887 692 887 692 874.5 705 c 128,-1,34
 862 718 862 718 857 743 c 0,35,36
 850 799 850 799 816.5 820.5 c 128,-1,37
 783 842 783 842 712 842 c 2,38,-1
 398 842 l 2,39,40
 311 842 311 842 278.5 810 c 128,-1,41
 246 778 246 778 246 689 c 0,42,43
 246 604 246 604 279 571.5 c 128,-1,44
 312 539 312 539 398 539 c 2,45,-1
 722 539 l 2,46,47
 860 539 860 539 925 473.5 c 128,-1,48
 990 408 990 408 990 270 c 0,49,50
 990 133 990 133 925 67.5 c 128,-1,51
 860 2 860 2 722 2 c 2,52,-1
 394 2 l 2,0,1
EndSplineSet
EndChar

StartChar: germandbls
Encoding: 223 223 369
Width: 1069
Flags: W
LayerCount: 2
Fore
SplineSet
240 2 m 0,0,1
 187 2 187 2 187 54 c 2,2,-1
 187 1049 l 2,3,4
 187 1224 187 1224 269 1305.5 c 128,-1,5
 351 1387 351 1387 526 1387 c 0,6,7
 700 1387 700 1387 781 1306 c 128,-1,8
 862 1225 862 1225 862 1051 c 0,9,10
 862 965 862 965 831 898 c 128,-1,11
 800 831 800 831 729 789 c 1,12,13
 863 760 863 760 922.5 681.5 c 128,-1,14
 982 603 982 603 982 463 c 2,15,-1
 982 358 l 2,16,17
 982 173 982 173 897 87.5 c 128,-1,18
 812 2 812 2 626 2 c 2,19,-1
 504 2 l 2,20,21
 451 2 451 2 451 54 c 0,22,23
 451 107 451 107 504 107 c 2,24,-1
 626 107 l 2,25,26
 767 107 767 107 822 162 c 128,-1,27
 877 217 877 217 877 358 c 2,28,-1
 877 463 l 2,29,30
 877 604 877 604 822 659 c 128,-1,31
 767 714 767 714 626 714 c 2,32,-1
 578 714 l 2,33,34
 526 714 526 714 526 767 c 0,35,36
 526 817 526 817 578 822 c 0,37,38
 678 831 678 831 717.5 883 c 128,-1,39
 757 935 757 935 757 1051 c 0,40,41
 757 1180 757 1180 706 1231 c 128,-1,42
 655 1282 655 1282 526 1282 c 0,43,44
 395 1282 395 1282 343.5 1231 c 128,-1,45
 292 1180 292 1180 292 1049 c 2,46,-1
 292 54 l 2,47,48
 292 2 292 2 240 2 c 0,0,1
EndSplineSet
Substitution2: "Single Substitution lookup 32 subtable" germandbls.calt
Substitution2: "Single Substitution lookup 31 subtable" germandbls.calt
Substitution2: "'aalt' +BBIEQQQ1 +BDAEOwRMBEIENQRABD0EMARCBDgEMgQ9BEsENQAA +BDIEMARABDgEMAQ9BEIESwAA in Latin lookup 0 subtable" germandbls.calt
EndChar

StartChar: t
Encoding: 116 116 370
Width: 717
GlyphClass: 2
Flags: W
AnchorPoint: "+BBEENQQ3BEsEPARPBD0EPQQ+BDUA--4" 344 622 basechar 0
AnchorPoint: "+BBEENQQ3BEsEPARPBD0EPQQ+BDUA--2" 385 0 basechar 0
AnchorPoint: "+BBEENQQ3BEsEPARPBD0EPQQ+BDUA--1" 426 945 basechar 0
AnchorPoint: "+BBEENQQ3BEsEPARPBD0EPQQ+BDUA--0" 271 1213 basechar 0
LayerCount: 2
Fore
SplineSet
573 0 m 0,0,1
 389 0 389 0 304 85 c 128,-1,2
 219 170 219 170 219 353 c 2,3,-1
 219 840 l 1,4,-1
 100 840 l 2,5,6
 47 840 47 840 47 893 c 0,7,8
 47 945 47 945 100 945 c 2,9,-1
 219 945 l 1,10,-1
 219 1160 l 2,11,12
 219 1213 219 1213 271 1213 c 0,13,14
 324 1213 324 1213 324 1160 c 2,15,-1
 324 945 l 1,16,-1
 575 945 l 2,17,18
 627 945 627 945 627 893 c 0,19,20
 627 840 627 840 575 840 c 2,21,-1
 324 840 l 1,22,-1
 324 353 l 2,23,24
 324 213 324 213 378.5 159 c 128,-1,25
 433 105 433 105 573 105 c 0,26,27
 602 105 602 105 614.5 92 c 128,-1,28
 627 79 627 79 627 53 c 0,29,30
 627 0 627 0 573 0 c 0,0,1
EndSplineSet
EndChar

StartChar: tbar
Encoding: 359 359 371
Width: 697
GlyphClass: 2
Flags: W
AnchorPoint: "+BBEENQQ3BEsEPARPBD0EPQQ+BDUA--4" 344 622 basechar 0
AnchorPoint: "+BBEENQQ3BEsEPARPBD0EPQQ+BDUA--2" 385 0 basechar 0
AnchorPoint: "+BBEENQQ3BEsEPARPBD0EPQQ+BDUA--1" 426 945 basechar 0
AnchorPoint: "+BBEENQQ3BEsEPARPBD0EPQQ+BDUA--0" 271 1213 basechar 0
LayerCount: 2
Fore
SplineSet
96 573 m 2,0,1
 47 573 47 573 47 622 c 256,2,3
 47 671 47 671 96 671 c 2,4,-1
 578 671 l 2,5,6
 627 671 627 671 627 622 c 256,7,8
 627 573 627 573 578 573 c 2,9,-1
 96 573 l 2,0,1
573 0 m 0,10,11
 389 0 389 0 304 85 c 128,-1,12
 219 170 219 170 219 353 c 2,13,-1
 219 840 l 1,14,-1
 100 840 l 2,15,16
 47 840 47 840 47 893 c 0,17,18
 47 945 47 945 100 945 c 2,19,-1
 219 945 l 1,20,-1
 219 1160 l 2,21,22
 219 1213 219 1213 271 1213 c 0,23,24
 324 1213 324 1213 324 1160 c 2,25,-1
 324 945 l 1,26,-1
 575 945 l 2,27,28
 627 945 627 945 627 893 c 0,29,30
 627 840 627 840 575 840 c 2,31,-1
 324 840 l 1,32,-1
 324 353 l 2,33,34
 324 213 324 213 378.5 159 c 128,-1,35
 433 105 433 105 573 105 c 0,36,37
 602 105 602 105 614.5 92 c 128,-1,38
 627 79 627 79 627 53 c 0,39,40
 627 0 627 0 573 0 c 0,10,11
EndSplineSet
EndChar

StartChar: v
Encoding: 118 118 397
Width: 1001
GlyphClass: 2
Flags: W
AnchorPoint: "+BBEENQQ3BEsEPARPBD0EPQQ+BDUA--2" 493 0 basechar 0
AnchorPoint: "+BBEENQQ3BEsEPARPBD0EPQQ+BDUA--0" 501 945 basechar 0
LayerCount: 2
Fore
SplineSet
550 40 m 2,0,1
 539 16 539 16 523 8 c 128,-1,2
 507 0 507 0 486 0 c 0,3,4
 442 0 442 0 424 41 c 2,5,-1
 53 872 l 2,6,7
 32 921 32 921 82 940 c 0,8,9
 129 960 129 960 150 912 c 2,10,-1
 520 84 l 1,11,-1
 456 84 l 1,12,-1
 850 913 l 2,13,14
 861 936 861 936 879 943 c 128,-1,15
 897 950 897 950 920 940 c 0,16,17
 969 918 969 918 947 870 c 2,18,-1
 550 40 l 2,0,1
EndSplineSet
EndChar

StartChar: w
Encoding: 119 119 398
Width: 1401
GlyphClass: 2
Flags: W
AnchorPoint: "+BBEENQQ3BEsEPARPBD0EPQQ+BDUA--2" 700 0 basechar 0
AnchorPoint: "+BBEENQQ3BEsEPARPBD0EPQQ+BDUA--0" 702 945 basechar 0
LayerCount: 2
Fore
SplineSet
394 0 m 0,0,1
 347 0 347 0 333 43 c 2,2,-1
 51 874 l 2,3,4
 34 925 34 925 84 941 c 0,5,6
 133 956 133 956 149 908 c 2,7,-1
 423 105 l 1,8,-1
 381 105 l 1,9,-1
 643 893 l 2,10,11
 657 935 657 935 703 935 c 0,12,13
 747 935 747 935 760 892 c 2,14,-1
 1005 107 l 1,15,-1
 961 107 l 1,16,-1
 1249 908 l 2,17,18
 1269 959 1269 959 1317 941 c 0,19,20
 1367 922 1367 922 1349 873 c 2,21,-1
 1040 43 l 2,22,23
 1024 0 1024 0 978 0 c 0,24,25
 927 0 927 0 914 43 c 2,26,-1
 687 770 l 1,27,-1
 707 770 l 1,28,-1
 457 43 l 2,29,30
 449 18 449 18 432 9 c 128,-1,31
 415 0 415 0 394 0 c 0,0,1
EndSplineSet
EndChar

StartChar: x
Encoding: 120 120 403
Width: 990
GlyphClass: 2
Flags: W
AnchorPoint: "+BBEENQQ3BEsEPARPBD0EPQQ+BDUA--2" 493 0 basechar 0
AnchorPoint: "+BBEENQQ3BEsEPARPBD0EPQQ+BDUA--0" 496 945 basechar 0
LayerCount: 2
Fore
SplineSet
118 14 m 0,0,1
 76 47 76 47 109 89 c 2,2,-1
 423 487 l 1,3,-1
 135 858 l 2,4,5
 102 898 102 898 143 932 c 0,6,7
 185 963 185 963 217 923 c 2,8,-1
 498 562 l 1,9,-1
 790 923 l 2,10,11
 823 966 823 966 864 931 c 0,12,13
 906 898 906 898 873 858 c 2,14,-1
 563 477 l 1,15,-1
 867 88 l 2,16,17
 900 45 900 45 859 15 c 0,18,19
 817 -19 817 -19 784 23 c 2,20,-1
 490 401 l 1,21,-1
 191 24 l 2,22,23
 158 -19 158 -19 118 14 c 0,0,1
EndSplineSet
EndChar

StartChar: y
Encoding: 121 121 404
Width: 1215
GlyphClass: 2
Flags: W
AnchorPoint: "+BBEENQQ3BEsEPARPBD0EPQQ+BDUA--2" 1207 0 basechar 0
AnchorPoint: "+BBEENQQ3BEsEPARPBD0EPQQ+BDUA--0" 598 945 basechar 0
LayerCount: 2
Fore
SplineSet
425 -400 m 2,0,1
 294 -400 294 -400 231.5 -337 c 128,-1,2
 169 -274 169 -274 169 -141 c 0,3,4
 169 -89 169 -89 221 -89 c 0,5,6
 274 -89 274 -89 274 -141 c 0,7,8
 274 -231 274 -231 306 -263 c 128,-1,9
 338 -295 338 -295 425 -295 c 2,10,-1
 771 -295 l 2,11,12
 859 -295 859 -295 891 -263 c 128,-1,13
 923 -231 923 -231 923 -141 c 2,14,-1
 923 134 l 1,15,16
 866 59 866 59 780 29 c 128,-1,17
 694 -1 694 -1 579 -1 c 2,18,-1
 523 -1 l 2,19,20
 339 -1 339 -1 254 84 c 128,-1,21
 169 169 169 169 169 351 c 2,22,-1
 169 894 l 2,23,24
 169 947 169 947 221 947 c 0,25,26
 274 947 274 947 274 894 c 2,27,-1
 274 351 l 2,28,29
 274 212 274 212 328.5 158 c 128,-1,30
 383 104 383 104 523 104 c 2,31,-1
 579 104 l 2,32,33
 754 104 754 104 838.5 165.5 c 128,-1,34
 923 227 923 227 923 351 c 2,35,-1
 923 894 l 2,36,37
 923 947 923 947 975 947 c 0,38,39
 1028 947 1028 947 1028 894 c 2,40,-1
 1028 -141 l 2,41,42
 1028 -274 1028 -274 965.5 -337 c 128,-1,43
 903 -400 903 -400 771 -400 c 2,44,-1
 425 -400 l 2,0,1
EndSplineSet
EndChar

StartChar: z
Encoding: 122 122 413
Width: 1032
GlyphClass: 2
Flags: W
AnchorPoint: "+BBEENQQ3BEsEPARPBD0EPQQ+BDUA--2" 525 0 basechar 0
AnchorPoint: "+BBEENQQ3BEsEPARPBD0EPQQ+BDUA--0" 531 945 basechar 0
LayerCount: 2
Fore
SplineSet
175 0 m 2,0,1
 122 0 122 0 122 53 c 0,2,3
 122 79 122 79 145 108 c 2,4,-1
 757 864 l 1,5,-1
 797 840 l 1,6,-1
 344 840 l 2,7,8
 271 840 271 840 238 819 c 128,-1,9
 205 798 205 798 196 740 c 0,10,11
 192 715 192 715 179.5 702 c 128,-1,12
 167 689 167 689 143 689 c 0,13,14
 116 689 116 689 102 703 c 128,-1,15
 88 717 88 717 91 744 c 0,16,17
 102 848 102 848 164.5 896.5 c 128,-1,18
 227 945 227 945 344 945 c 2,19,-1
 834 945 l 2,20,21
 886 945 886 945 886 893 c 0,22,23
 886 864 886 864 864 836 c 2,24,-1
 262 90 l 1,25,-1
 225 106 l 1,26,-1
 708 105 l 2,27,28
 777 105 777 105 812 128.5 c 128,-1,29
 847 152 847 152 855 206 c 0,30,31
 861 231 861 231 873 244 c 128,-1,32
 885 257 885 257 910 257 c 0,33,34
 937 257 937 257 951 242.5 c 128,-1,35
 965 228 965 228 961 202 c 0,36,37
 934 0 934 0 708 0 c 2,38,-1
 175 0 l 2,0,1
EndSplineSet
EndChar

StartChar: a.ss01
Encoding: 65541 -1 419
Width: 1242
Flags: W
LayerCount: 2
Fore
SplineSet
515 0 m 2,0,1
 331 0 331 0 245.5 85 c 128,-1,2
 160 170 160 170 160 353 c 2,3,-1
 160 585 l 2,4,5
 160 778 160 778 243 861.5 c 128,-1,6
 326 945 326 945 513 945 c 2,7,-1
 693 945 l 2,8,9
 873 945 873 945 940 837 c 1,10,-1
 940 895 l 2,11,12
 942 944 942 944 993 944 c 0,13,14
 1045 944 1045 944 1045 892 c 2,15,-1
 1045 235 l 2,16,17
 1045 169 1045 169 1063 142.5 c 128,-1,18
 1081 116 1081 116 1128 107 c 0,19,20
 1150 103 1150 103 1162.5 91.5 c 128,-1,21
 1175 80 1175 80 1175 55 c 0,22,23
 1175 29 1175 29 1160.5 14.5 c 128,-1,24
 1146 0 1146 0 1120 4 c 0,25,26
 982 22 982 22 950 147 c 1,27,28
 850 0 850 0 597 0 c 2,29,-1
 515 0 l 2,0,1
515 105 m 2,30,-1
 597 105 l 2,31,32
 753 105 753 105 846.5 154.5 c 128,-1,33
 940 204 940 204 940 304 c 2,34,-1
 940 639 l 2,35,36
 940 755 940 755 880.5 797.5 c 128,-1,37
 821 840 821 840 693 840 c 2,38,-1
 513 840 l 2,39,40
 417 840 417 840 363 818 c 128,-1,41
 309 796 309 796 287 740.5 c 128,-1,42
 265 685 265 685 265 585 c 2,43,-1
 265 353 l 2,44,45
 265 213 265 213 319.5 159 c 128,-1,46
 374 105 374 105 515 105 c 2,30,-1
EndSplineSet
EndChar

StartChar: f_f
Encoding: 65542 -1 420
Width: 1255
GlyphClass: 3
Flags: W
LayerCount: 2
Fore
SplineSet
257 0 m 0,0,1
 204 0 204 0 204 53 c 2,2,-1
 204 1033 l 2,3,4
 204 1217 204 1217 289.5 1302 c 128,-1,5
 375 1387 375 1387 559 1387 c 0,6,7
 610 1387 610 1387 610 1335 c 0,8,9
 610 1282 610 1282 559 1282 c 0,10,11
 420 1282 420 1282 364.5 1227.5 c 128,-1,12
 309 1173 309 1173 309 1033 c 2,13,-1
 309 53 l 2,14,15
 309 0 309 0 257 0 c 0,0,1
120 840 m 2,16,17
 67 840 67 840 67 893 c 0,18,19
 67 945 67 945 120 945 c 2,20,-1
 805 945 l 2,21,22
 858 945 858 945 858 893 c 0,23,24
 858 867 858 867 844.5 853.5 c 128,-1,25
 831 840 831 840 805 840 c 2,26,-1
 120 840 l 2,16,17
855 0 m 0,27,28
 802 0 802 0 802 53 c 2,29,-1
 802 840 l 1,30,-1
 718 840 l 2,31,32
 665 840 665 840 665 893 c 0,33,34
 665 945 665 945 718 945 c 2,35,-1
 802 945 l 1,36,-1
 802 1033 l 2,37,38
 802 1217 802 1217 887.5 1302 c 128,-1,39
 973 1387 973 1387 1157 1387 c 0,40,41
 1208 1387 1208 1387 1208 1335 c 0,42,43
 1208 1282 1208 1282 1157 1282 c 0,44,45
 1017 1282 1017 1282 962 1227.5 c 128,-1,46
 907 1173 907 1173 907 1033 c 2,47,-1
 907 945 l 1,48,-1
 1155 945 l 2,49,50
 1208 945 1208 945 1208 893 c 0,51,52
 1208 840 1208 840 1155 840 c 2,53,-1
 907 840 l 1,54,-1
 907 53 l 2,55,56
 907 0 907 0 855 0 c 0,27,28
EndSplineSet
Ligature2: "'liga' Standard Ligatures in Latin lookup 26 subtable" f f
EndChar

StartChar: f_f_i
Encoding: 65543 -1 421
Width: 1687
GlyphClass: 3
Flags: W
LayerCount: 2
Fore
SplineSet
257 0 m 0,0,1
 204 0 204 0 204 53 c 2,2,-1
 204 1033 l 2,3,4
 204 1217 204 1217 289.5 1302 c 128,-1,5
 375 1387 375 1387 559 1387 c 0,6,7
 610 1387 610 1387 610 1335 c 0,8,9
 610 1282 610 1282 559 1282 c 0,10,11
 420 1282 420 1282 364.5 1227.5 c 128,-1,12
 309 1173 309 1173 309 1033 c 2,13,-1
 309 53 l 2,14,15
 309 0 309 0 257 0 c 0,0,1
120 840 m 2,16,17
 67 840 67 840 67 893 c 0,18,19
 67 945 67 945 120 945 c 2,20,-1
 804 945 l 2,21,22
 857 945 857 945 857 893 c 0,23,24
 857 840 857 840 804 840 c 2,25,-1
 120 840 l 2,16,17
1452 0 m 0,26,27
 1400 0 1400 0 1400 53 c 2,28,-1
 1400 893 l 2,29,30
 1400 945 1400 945 1452 945 c 0,31,32
 1505 945 1505 945 1505 893 c 2,33,-1
 1505 53 l 2,34,35
 1505 0 1505 0 1452 0 c 0,26,27
1429 1212 m 2,36,37
 1362 1212 1362 1212 1362 1279 c 2,38,-1
 1362 1323 l 2,39,40
 1362 1388 1362 1388 1429 1388 c 2,41,-1
 1472 1388 l 2,42,43
 1537 1388 1537 1388 1537 1323 c 2,44,-1
 1537 1279 l 2,45,46
 1537 1212 1537 1212 1472 1212 c 2,47,-1
 1429 1212 l 2,36,37
854 0 m 0,48,49
 802 0 802 0 802 53 c 2,50,-1
 802 840 l 1,51,-1
 717 840 l 2,52,53
 665 840 665 840 665 893 c 0,54,55
 665 945 665 945 717 945 c 2,56,-1
 802 945 l 1,57,-1
 802 1034 l 2,58,59
 802 1218 802 1218 887 1302.5 c 128,-1,60
 972 1387 972 1387 1156 1387 c 2,61,-1
 1432 1387 l 1,62,-1
 1407 1215 l 1,63,-1
 1156 1282 l 1,64,65
 1016 1282 1016 1282 961.5 1228 c 128,-1,66
 907 1174 907 1174 907 1034 c 2,67,-1
 907 945 l 1,68,-1
 1453 945 l 2,69,70
 1505 945 1505 945 1505 893 c 0,71,72
 1505 840 1505 840 1453 840 c 2,73,-1
 907 840 l 1,74,-1
 907 53 l 2,75,76
 907 0 907 0 854 0 c 0,48,49
EndSplineSet
Ligature2: "'dlig' Discretionary Ligatures in Latin lookup 29 subtable" f f i
Ligature2: "'liga' Standard Ligatures in Latin lookup 26 subtable" f f i
EndChar

StartChar: f_f_l
Encoding: 65544 -1 422
Width: 1758
Flags: W
LayerCount: 2
Fore
SplineSet
257 0 m 0,0,1
 204 0 204 0 204 53 c 2,2,-1
 204 1033 l 2,3,4
 204 1217 204 1217 289.5 1302 c 128,-1,5
 375 1387 375 1387 559 1387 c 0,6,7
 610 1387 610 1387 610 1335 c 0,8,9
 610 1282 610 1282 559 1282 c 0,10,11
 420 1282 420 1282 364.5 1227.5 c 128,-1,12
 309 1173 309 1173 309 1033 c 2,13,-1
 309 53 l 2,14,15
 309 0 309 0 257 0 c 0,0,1
120 840 m 2,16,17
 67 840 67 840 67 893 c 0,18,19
 67 945 67 945 120 945 c 2,20,-1
 783 945 l 2,21,22
 836 945 836 945 836 893 c 0,23,24
 836 840 836 840 783 840 c 2,25,-1
 120 840 l 2,16,17
1637 0 m 0,26,27
 1512 5 1512 5 1452.5 65.5 c 128,-1,28
 1393 126 1393 126 1393 247 c 2,29,-1
 1393 1282 l 1,30,-1
 1150 1282 l 2,31,32
 1010 1282 1010 1282 955 1227.5 c 128,-1,33
 900 1173 900 1173 900 1033 c 2,34,-1
 900 53 l 2,35,36
 900 0 900 0 848 0 c 0,37,38
 795 0 795 0 795 53 c 2,39,-1
 795 1033 l 2,40,41
 795 1217 795 1217 880.5 1302 c 128,-1,42
 966 1387 966 1387 1150 1387 c 2,43,-1
 1446 1387 l 2,44,45
 1498 1387 1498 1387 1498 1335 c 2,46,-1
 1498 247 l 2,47,48
 1498 171 1498 171 1527.5 140 c 128,-1,49
 1557 109 1557 109 1638 105 c 0,50,51
 1665 104 1665 104 1678 91.5 c 128,-1,52
 1691 79 1691 79 1691 51 c 0,53,54
 1691 -2 1691 -2 1637 0 c 0,26,27
711 840 m 2,55,56
 658 840 658 840 658 893 c 0,57,58
 658 945 658 945 711 945 c 2,59,-1
 1146 945 l 2,60,61
 1199 945 1199 945 1199 893 c 0,62,63
 1199 840 1199 840 1146 840 c 2,64,-1
 711 840 l 2,55,56
EndSplineSet
Ligature2: "'dlig' Discretionary Ligatures in Latin lookup 29 subtable" f f l
Ligature2: "'liga' Standard Ligatures in Latin lookup 26 subtable" f f l
EndChar

StartChar: fi
Encoding: 64257 64257 423
Width: 1089
GlyphClass: 3
Flags: W
LayerCount: 2
Fore
SplineSet
257 0 m 0,0,1
 204 0 204 0 204 53 c 2,2,-1
 204 840 l 1,3,-1
 120 840 l 2,4,5
 67 840 67 840 67 893 c 0,6,7
 67 945 67 945 120 945 c 2,8,-1
 204 945 l 1,9,-1
 204 1034 l 2,10,11
 204 1218 204 1218 289.5 1302.5 c 128,-1,12
 375 1387 375 1387 559 1387 c 2,13,-1
 835 1387 l 1,14,-1
 810 1215 l 1,15,-1
 559 1282 l 1,16,17
 419 1282 419 1282 364 1228 c 128,-1,18
 309 1174 309 1174 309 1034 c 2,19,-1
 309 945 l 1,20,-1
 855 945 l 2,21,22
 908 945 908 945 908 893 c 0,23,24
 908 840 908 840 855 840 c 2,25,-1
 309 840 l 1,26,-1
 309 53 l 2,27,28
 309 0 309 0 257 0 c 0,0,1
855 0 m 0,29,30
 802 0 802 0 802 53 c 2,31,-1
 802 893 l 2,32,33
 802 945 802 945 855 945 c 0,34,35
 907 945 907 945 907 893 c 2,36,-1
 907 53 l 2,37,38
 907 0 907 0 855 0 c 0,29,30
832 1212 m 2,39,40
 765 1212 765 1212 765 1279 c 2,41,-1
 765 1323 l 2,42,43
 765 1388 765 1388 832 1388 c 2,44,-1
 874 1388 l 2,45,46
 939 1388 939 1388 939 1323 c 2,47,-1
 939 1279 l 2,48,49
 939 1212 939 1212 874 1212 c 2,50,-1
 832 1212 l 2,39,40
EndSplineSet
Ligature2: "'liga' Standard Ligatures in Latin lookup 26 subtable" f i
EndChar

StartChar: fl
Encoding: 64258 64258 424
Width: 1167
Flags: W
LayerCount: 2
Fore
SplineSet
1046 0 m 0,0,1
 921 5 921 5 861.5 65.5 c 128,-1,2
 802 126 802 126 802 247 c 2,3,-1
 802 1282 l 1,4,-1
 559 1282 l 2,5,6
 419 1282 419 1282 364 1227.5 c 128,-1,7
 309 1173 309 1173 309 1033 c 2,8,-1
 309 53 l 2,9,10
 309 0 309 0 257 0 c 0,11,12
 204 0 204 0 204 53 c 2,13,-1
 204 1033 l 2,14,15
 204 1217 204 1217 289.5 1302 c 128,-1,16
 375 1387 375 1387 559 1387 c 2,17,-1
 855 1387 l 2,18,19
 907 1387 907 1387 907 1335 c 2,20,-1
 907 247 l 2,21,22
 907 171 907 171 936.5 140 c 128,-1,23
 966 109 966 109 1047 105 c 0,24,25
 1074 104 1074 104 1087 91.5 c 128,-1,26
 1100 79 1100 79 1100 51 c 0,27,28
 1100 -2 1100 -2 1046 0 c 0,0,1
120 840 m 2,29,30
 67 840 67 840 67 893 c 0,31,32
 67 945 67 945 120 945 c 2,33,-1
 555 945 l 2,34,35
 608 945 608 945 608 893 c 0,36,37
 608 840 608 840 555 840 c 2,38,-1
 120 840 l 2,29,30
EndSplineSet
Ligature2: "'liga' Standard Ligatures in Latin lookup 26 subtable" f l
EndChar

StartChar: I_J.loclNLD
Encoding: 65545 -1 425
Width: 1198
Flags: W
LayerCount: 2
Fore
SplineSet
241 498 m 256,0,1
 217 498 217 498 203 512 c 128,-1,2
 189 526 189 526 189 550 c 2,3,-1
 189 1237 l 2,4,5
 189 1262 189 1262 203 1276 c 128,-1,6
 217 1290 217 1290 241 1290 c 256,7,8
 265 1290 265 1290 279.5 1276 c 128,-1,9
 294 1262 294 1262 294 1237 c 2,10,-1
 294 550 l 2,11,12
 294 526 294 526 279.5 512 c 128,-1,13
 265 498 265 498 241 498 c 256,0,1
562 0 m 2,14,15
 378 0 378 0 288.5 76.5 c 128,-1,16
 199 153 199 153 188 322 c 0,17,18
 186 348 186 348 199.5 362.5 c 128,-1,19
 213 377 213 377 238 377 c 0,20,21
 289 377 289 377 293 324 c 0,22,23
 301 200 301 200 362 152.5 c 128,-1,24
 423 105 423 105 562 105 c 2,25,-1
 644 105 l 2,26,27
 747 105 747 105 806 130 c 128,-1,28
 865 155 865 155 890.5 214 c 128,-1,29
 916 273 916 273 916 377 c 2,30,-1
 916 1236 l 2,31,32
 916 1289 916 1289 968 1289 c 0,33,34
 1021 1289 1021 1289 1021 1236 c 2,35,-1
 1021 377 l 2,36,37
 1021 179 1021 179 932 89.5 c 128,-1,38
 843 0 843 0 644 0 c 2,39,-1
 562 0 l 2,14,15
EndSplineSet
Ligature2: "'locl' Localized Forms in Latin lookup 16 subtable" I J
EndChar

StartChar: a.sc
Encoding: 65546 -1 426
Width: 1017
GlyphClass: 2
Flags: W
AnchorPoint: "+BBEENQQ3BEsEPARPBD0EPQQ+BDUA--3" 894 0 basechar 0
AnchorPoint: "+BBEENQQ3BEsEPARPBD0EPQQ+BDUA--2" 508 0 basechar 0
AnchorPoint: "+BBEENQQ3BEsEPARPBD0EPQQ+BDUA--0" 510 1053 basechar 0
LayerCount: 2
Fore
SplineSet
88 5 m 0,0,1
 39 25 39 25 59 73 c 2,2,-1
 449 1012 l 2,3,4
 467 1053 467 1053 510 1053 c 256,5,6
 553 1053 553 1053 568 1014 c 2,7,-1
 961 75 l 2,8,9
 981 24 981 24 932 5 c 0,10,11
 883 -15 883 -15 864 33 c 2,12,-1
 766 268 l 1,13,-1
 253 268 l 1,14,-1
 157 33 l 2,15,16
 148 10 148 10 129 3.5 c 128,-1,17
 110 -3 110 -3 88 5 c 0,0,1
296 373 m 1,18,-1
 722 373 l 1,19,-1
 507 887 l 1,20,-1
 296 373 l 1,18,-1
EndSplineSet
EndChar

StartChar: e.sc
Encoding: 65547 -1 427
Width: 926
GlyphClass: 2
Flags: W
AnchorPoint: "+BBEENQQ3BEsEPARPBD0EPQQ+BDUA--3" 797 37 basechar 0
AnchorPoint: "+BBEENQQ3BEsEPARPBD0EPQQ+BDUA--2" 523 0 basechar 0
AnchorPoint: "+BBEENQQ3BEsEPARPBD0EPQQ+BDUA--0" 531 1053 basechar 0
LayerCount: 2
Fore
SplineSet
210 0 m 2,0,1
 157 0 157 0 157 53 c 2,2,-1
 157 1000 l 2,3,4
 157 1053 157 1053 210 1053 c 2,5,-1
 799 1053 l 2,6,7
 852 1053 852 1053 852 1000 c 0,8,9
 852 948 852 948 799 948 c 2,10,-1
 262 948 l 1,11,-1
 262 585 l 1,12,-1
 609 585 l 2,13,14
 662 585 662 585 662 533 c 0,15,16
 662 480 662 480 609 480 c 2,17,-1
 262 480 l 1,18,-1
 262 105 l 1,19,-1
 799 105 l 2,20,21
 852 105 852 105 852 53 c 0,22,23
 852 0 852 0 799 0 c 2,24,-1
 210 0 l 2,0,1
EndSplineSet
EndChar

StartChar: i.sc
Encoding: 65548 -1 428
Width: 419
GlyphClass: 2
Flags: W
AnchorPoint: "+BBEENQQ3BEsEPARPBD0EPQQ+BDUA--3" 184 6 basechar 0
AnchorPoint: "+BBEENQQ3BEsEPARPBD0EPQQ+BDUA--2" 210 0 basechar 0
AnchorPoint: "+BBEENQQ3BEsEPARPBD0EPQQ+BDUA--0" 210 1053 basechar 0
LayerCount: 2
Fore
SplineSet
210 0 m 256,0,1
 184 0 184 0 170.5 13.5 c 128,-1,2
 157 27 157 27 157 53 c 2,3,-1
 157 1001 l 2,4,5
 157 1027 157 1027 170.5 1040.5 c 128,-1,6
 184 1054 184 1054 210 1054 c 256,7,8
 236 1054 236 1054 249 1040.5 c 128,-1,9
 262 1027 262 1027 262 1001 c 2,10,-1
 262 53 l 2,11,12
 262 27 262 27 249 13.5 c 128,-1,13
 236 0 236 0 210 0 c 256,0,1
EndSplineSet
EndChar

StartChar: o.sc
Encoding: 65549 -1 429
Width: 1135
GlyphClass: 2
Flags: W
AnchorPoint: "+BBEENQQ3BEsEPARPBD0EPQQ+BDUA--4" 557 527 basechar 0
AnchorPoint: "+BBEENQQ3BEsEPARPBD0EPQQ+BDUA--3" 780 32 basechar 0
AnchorPoint: "+BBEENQQ3BEsEPARPBD0EPQQ+BDUA--2" 557 0 basechar 0
AnchorPoint: "+BBEENQQ3BEsEPARPBD0EPQQ+BDUA--1" 891 974 basechar 0
AnchorPoint: "+BBEENQQ3BEsEPARPBD0EPQQ+BDUA--0" 569 1053 basechar 0
LayerCount: 2
Fore
SplineSet
473 0 m 2,0,1
 295 0 295 0 211.5 83.5 c 128,-1,2
 128 167 128 167 128 345 c 2,3,-1
 128 711 l 2,4,5
 128 891 128 891 211.5 972 c 128,-1,6
 295 1053 295 1053 471 1053 c 2,7,-1
 665 1053 l 2,8,9
 842 1053 842 1053 924.5 970.5 c 128,-1,10
 1007 888 1007 888 1007 710 c 2,11,-1
 1007 345 l 2,12,13
 1007 167 1007 167 924.5 83.5 c 128,-1,14
 842 0 842 0 665 0 c 2,15,-1
 473 0 l 2,0,1
473 105 m 2,16,-1
 665 105 l 2,17,18
 799 105 799 105 850.5 157.5 c 128,-1,19
 902 210 902 210 902 345 c 2,20,-1
 902 710 l 2,21,22
 902 844 902 844 850.5 896 c 128,-1,23
 799 948 799 948 665 948 c 2,24,-1
 471 948 l 2,25,26
 338 948 338 948 285.5 897 c 128,-1,27
 233 846 233 846 233 711 c 2,28,-1
 233 345 l 2,29,30
 233 210 233 210 285.5 157.5 c 128,-1,31
 338 105 338 105 473 105 c 2,16,-1
EndSplineSet
EndChar

StartChar: ordfeminine
Encoding: 170 170 430
Width: 860
Flags: W
LayerCount: 2
Fore
SplineSet
325 628 m 2,0,1
 214 628 214 628 160.5 681.5 c 128,-1,2
 107 735 107 735 107 845 c 0,3,4
 107 957 107 957 160.5 1010 c 128,-1,5
 214 1063 214 1063 325 1063 c 2,6,-1
 653 1063 l 1,7,8
 649 1141 649 1141 614 1171 c 128,-1,9
 579 1201 579 1201 495 1201 c 2,10,-1
 383 1201 l 2,11,12
 308 1201 308 1201 271.5 1189 c 128,-1,13
 235 1177 235 1177 225 1145 c 0,14,15
 214 1120 214 1120 203.5 1110 c 128,-1,16
 193 1100 193 1100 172 1100 c 0,17,18
 147 1100 147 1100 133.5 1114 c 128,-1,19
 120 1128 120 1128 125 1153 c 0,20,21
 152 1300 152 1300 383 1300 c 2,22,-1
 495 1300 l 2,23,24
 627 1300 627 1300 690 1237.5 c 128,-1,25
 753 1175 753 1175 753 1042 c 2,26,-1
 753 677 l 2,27,28
 753 628 753 628 703 628 c 256,29,30
 653 628 653 628 653 677 c 2,31,-1
 653 720 l 1,32,33
 588 628 588 628 435 628 c 2,34,-1
 325 628 l 2,0,1
325 727 m 2,35,-1
 435 727 l 2,36,37
 531 727 531 727 592 753 c 128,-1,38
 653 779 653 779 653 835 c 2,39,-1
 653 964 l 1,40,-1
 325 964 l 2,41,42
 256 964 256 964 231.5 940 c 128,-1,43
 207 916 207 916 207 845 c 0,44,45
 207 777 207 777 231 752 c 128,-1,46
 255 727 255 727 325 727 c 2,35,-1
EndSplineSet
EndChar

StartChar: ordmasculine
Encoding: 186 186 431
Width: 839
Flags: W
LayerCount: 2
Fore
SplineSet
354 628 m 2,0,1
 221 628 221 628 157 691.5 c 128,-1,2
 93 755 93 755 93 888 c 2,3,-1
 93 1031 l 2,4,5
 93 1166 93 1166 157 1229 c 128,-1,6
 221 1292 221 1292 354 1291 c 2,7,-1
 486 1291 l 2,8,9
 619 1291 619 1291 682.5 1227.5 c 128,-1,10
 746 1164 746 1164 746 1031 c 2,11,-1
 746 890 l 2,12,13
 746 756 746 756 682.5 692 c 128,-1,14
 619 628 619 628 486 628 c 2,15,-1
 354 628 l 2,0,1
354 733 m 2,16,-1
 486 733 l 2,17,18
 575 733 575 733 608 766.5 c 128,-1,19
 641 800 641 800 641 890 c 2,20,-1
 641 1031 l 2,21,22
 641 1119 641 1119 608 1152.5 c 128,-1,23
 575 1186 575 1186 486 1186 c 2,24,-1
 354 1186 l 2,25,26
 265 1187 265 1187 231.5 1154.5 c 128,-1,27
 198 1122 198 1122 198 1031 c 2,28,-1
 198 888 l 2,29,30
 198 799 198 799 231.5 766 c 128,-1,31
 265 733 265 733 354 733 c 2,16,-1
EndSplineSet
EndChar

StartChar: uni0410
Encoding: 1040 1040 432
Width: 1127
Flags: W
LayerCount: 2
Fore
SplineSet
96 -35 m 0,0,1
 72 -35 72 -35 58 -21.5 c 128,-1,2
 44 -8 44 -8 44 13 c 0,3,4
 44 30 44 30 50 47 c 2,5,-1
 507 1275 l 1,6,-1
 621 1275 l 1,7,-1
 1077 47 l 2,8,9
 1084 30 1084 30 1084 13 c 0,10,11
 1084 -8 1084 -8 1069.5 -21.5 c 128,-1,12
 1055 -35 1055 -35 1031 -35 c 0,13,14
 994 -35 994 -35 977 11 c 2,15,-1
 835 398 l 1,16,-1
 292 398 l 1,17,-1
 150 11 l 2,18,19
 130 -35 130 -35 96 -35 c 0,0,1
333 503 m 1,20,-1
 794 503 l 1,21,-1
 562 1121 l 1,22,-1
 333 503 l 1,20,-1
EndSplineSet
EndChar

StartChar: uni0411
Encoding: 1041 1041 433
Width: 1099
Flags: W
LayerCount: 2
Fore
SplineSet
166 1275 m 1,0,-1
 869 1275 l 2,1,2
 940 1275 940 1275 940 1223 c 0,3,4
 940 1170 940 1170 869 1170 c 2,5,-1
 271 1170 l 1,6,-1
 271 933 l 1,7,-1
 574 933 l 2,8,9
 699 933 699 933 796.5 868.5 c 128,-1,10
 894 804 894 804 950 696 c 128,-1,11
 1006 588 1006 588 1006 456 c 0,12,13
 1006 325 1006 325 950.5 217.5 c 128,-1,14
 895 110 895 110 797 46.5 c 128,-1,15
 699 -17 699 -17 574 -17 c 2,16,-1
 214 -17 l 2,17,18
 166 -17 166 -17 166 54 c 2,19,-1
 166 1275 l 1,0,-1
574 828 m 2,20,-1
 271 828 l 1,21,-1
 271 88 l 1,22,-1
 574 88 l 2,23,24
 676 88 676 88 749 138 c 128,-1,25
 822 188 822 188 861.5 272 c 128,-1,26
 901 356 901 356 901 458 c 256,27,28
 901 560 901 560 861.5 644 c 128,-1,29
 822 728 822 728 749 778 c 128,-1,30
 676 828 676 828 574 828 c 2,20,-1
EndSplineSet
EndChar

StartChar: uni0412
Encoding: 1042 1042 434
Width: 1198
Flags: W
LayerCount: 2
Fore
SplineSet
214 -3 m 2,0,1
 165 -3 165 -3 165 69 c 2,2,-1
 165 1204 l 2,3,4
 165 1275 165 1275 214 1275 c 2,5,-1
 572 1275 l 2,6,7
 792 1275 792 1275 898.5 1208 c 128,-1,8
 1005 1141 1005 1141 1005 969 c 0,9,10
 1005 886 1005 886 980 828 c 128,-1,11
 955 770 955 770 905 734 c 1,12,13
 998 701 998 701 1043.5 623.5 c 128,-1,14
 1089 546 1089 546 1089 408 c 2,15,-1
 1089 355 l 2,16,17
 1089 214 1089 214 1043 136.5 c 128,-1,18
 997 59 997 59 900 28 c 128,-1,19
 803 -3 803 -3 650 -3 c 2,20,-1
 214 -3 l 2,0,1
270 102 m 1,21,-1
 650 102 l 2,22,23
 729 102 729 102 797 109 c 128,-1,24
 865 116 865 116 909 145 c 0,25,26
 954 174 954 174 969 225 c 128,-1,27
 984 276 984 276 984 355 c 2,28,-1
 984 406 l 2,29,30
 984 500 984 500 965.5 546 c 128,-1,31
 947 592 947 592 908 618 c 0,32,33
 866 645 866 645 809.5 652 c 128,-1,34
 753 659 753 659 659 659 c 2,35,-1
 270 659 l 1,36,-1
 270 102 l 1,21,-1
270 764 m 1,37,-1
 572 764 l 2,38,39
 693 764 693 764 765 780.5 c 128,-1,40
 837 797 837 797 868.5 840.5 c 128,-1,41
 900 884 900 884 900 967 c 0,42,43
 900 1048 900 1048 868.5 1091.5 c 128,-1,44
 837 1135 837 1135 765.5 1151.5 c 128,-1,45
 694 1168 694 1168 572 1168 c 2,46,-1
 270 1168 l 1,47,-1
 270 764 l 1,37,-1
EndSplineSet
EndChar

StartChar: uni0413
Encoding: 1043 1043 435
Width: 1102
Flags: W
LayerCount: 2
Fore
SplineSet
214 -17 m 0,0,1
 161 -17 161 -17 161 52 c 2,2,-1
 161 1020 l 2,3,4
 161 1163 161 1163 204.5 1219 c 128,-1,5
 248 1275 248 1275 362 1275 c 2,6,-1
 987 1275 l 2,7,8
 1057 1275 1057 1275 1057 1223 c 0,9,10
 1057 1170 1057 1170 987 1170 c 2,11,-1
 376 1170 l 2,12,13
 314 1170 314 1170 290 1144 c 128,-1,14
 266 1118 266 1118 266 1052 c 2,15,-1
 266 52 l 2,16,17
 266 -17 266 -17 214 -17 c 0,0,1
EndSplineSet
EndChar

StartChar: uni0403
Encoding: 1027 1027 436
Width: 1102
Flags: W
LayerCount: 2
Fore
SplineSet
214 -17 m 0,0,1
 161 -17 161 -17 161 52 c 2,2,-1
 161 1020 l 2,3,4
 161 1163 161 1163 204.5 1219 c 128,-1,5
 248 1275 248 1275 362 1275 c 2,6,-1
 987 1275 l 2,7,8
 1057 1275 1057 1275 1057 1223 c 0,9,10
 1057 1170 1057 1170 987 1170 c 2,11,-1
 376 1170 l 2,12,13
 314 1170 314 1170 290 1144 c 128,-1,14
 266 1118 266 1118 266 1052 c 2,15,-1
 266 52 l 2,16,17
 266 -17 266 -17 214 -17 c 0,0,1
597 1378 m 0,18,19
 575 1378 575 1378 559 1394 c 128,-1,20
 543 1410 543 1410 543 1431 c 0,21,22
 543 1450 543 1450 569 1477 c 2,23,-1
 707 1616 l 2,24,25
 732 1641 732 1641 755 1641 c 0,26,27
 776 1641 776 1641 792 1624.5 c 128,-1,28
 808 1608 808 1608 808 1589 c 0,29,30
 808 1572 808 1572 783 1541 c 1,31,-1
 643 1404 l 2,32,33
 618 1378 618 1378 597 1378 c 0,18,19
EndSplineSet
EndChar

StartChar: uni0490
Encoding: 1168 1168 437
Width: 1110
Flags: W
LayerCount: 2
Fore
SplineSet
214 -17 m 0,0,1
 161 -17 161 -17 161 52 c 2,2,-1
 161 1020 l 2,3,4
 161 1163 161 1163 204.5 1219 c 128,-1,5
 248 1275 248 1275 362 1275 c 2,6,-1
 952 1275 l 1,7,-1
 952 1429 l 2,8,9
 952 1499 952 1499 1005 1499 c 0,10,11
 1057 1499 1057 1499 1057 1429 c 2,12,-1
 1057 1170 l 1,13,-1
 376 1170 l 2,14,15
 314 1170 314 1170 290 1144 c 128,-1,16
 266 1118 266 1118 266 1052 c 2,17,-1
 266 52 l 2,18,19
 266 -17 266 -17 214 -17 c 0,0,1
EndSplineSet
EndChar

StartChar: uni0414
Encoding: 1044 1044 438
Width: 1131
Flags: W
LayerCount: 2
Fore
SplineSet
71 -187 m 0,0,1
 19 -187 19 -187 19 -116 c 2,2,-1
 19 -15 l 2,3,4
 19 52 19 52 49 75.5 c 128,-1,5
 79 99 79 99 141 100 c 1,6,7
 165 143 165 143 192.5 238 c 128,-1,8
 220 333 220 333 246 460 c 128,-1,9
 272 587 272 587 293.5 729.5 c 128,-1,10
 315 872 315 872 327.5 1013 c 128,-1,11
 340 1154 340 1154 340 1275 c 1,12,-1
 935 1275 l 1,13,-1
 935 99 l 1,14,15
 999 98 999 98 1027 73.5 c 128,-1,16
 1055 49 1055 49 1055 -15 c 2,17,-1
 1055 -116 l 2,18,19
 1055 -187 1055 -187 1002 -187 c 0,20,21
 950 -187 950 -187 950 -116 c 2,22,-1
 950 -3 l 1,23,-1
 124 -3 l 1,24,-1
 124 -116 l 2,25,26
 124 -187 124 -187 71 -187 c 0,0,1
256 102 m 1,27,-1
 830 102 l 1,28,-1
 830 1170 l 1,29,-1
 447 1170 l 1,30,31
 446 1069 446 1069 433.5 945 c 128,-1,32
 421 821 421 821 401 692 c 128,-1,33
 381 563 381 563 356.5 445.5 c 128,-1,34
 332 328 332 328 305.5 237.5 c 128,-1,35
 279 147 279 147 256 102 c 1,27,-1
EndSplineSet
EndChar

StartChar: uni0415
Encoding: 1045 1045 439
Width: 1184
Flags: W
LayerCount: 2
Fore
SplineSet
214 -3 m 2,0,1
 165 -3 165 -3 165 69 c 2,2,-1
 165 1204 l 2,3,4
 165 1275 165 1275 214 1275 c 2,5,-1
 1021 1275 l 2,6,7
 1089 1275 1089 1275 1089 1219 c 0,8,9
 1089 1170 1089 1170 1021 1170 c 2,10,-1
 270 1170 l 1,11,-1
 270 769 l 1,12,-1
 782 769 l 2,13,14
 855 769 855 769 855 712 c 0,15,16
 855 664 855 664 782 664 c 2,17,-1
 270 664 l 1,18,-1
 270 102 l 1,19,-1
 1021 102 l 2,20,21
 1089 102 1089 102 1089 46 c 0,22,23
 1089 -3 1089 -3 1021 -3 c 2,24,-1
 214 -3 l 2,0,1
EndSplineSet
EndChar

StartChar: uni0400
Encoding: 1024 1024 440
Width: 1184
Flags: W
LayerCount: 2
Fore
SplineSet
214 -3 m 2,0,1
 165 -3 165 -3 165 69 c 2,2,-1
 165 1204 l 2,3,4
 165 1275 165 1275 214 1275 c 2,5,-1
 1021 1275 l 2,6,7
 1089 1275 1089 1275 1089 1219 c 0,8,9
 1089 1170 1089 1170 1021 1170 c 2,10,-1
 270 1170 l 1,11,-1
 270 769 l 1,12,-1
 782 769 l 2,13,14
 855 769 855 769 855 712 c 0,15,16
 855 664 855 664 782 664 c 2,17,-1
 270 664 l 1,18,-1
 270 102 l 1,19,-1
 1021 102 l 2,20,21
 1089 102 1089 102 1089 46 c 0,22,23
 1089 -3 1089 -3 1021 -3 c 2,24,-1
 214 -3 l 2,0,1
615 1378 m 0,25,26
 592 1378 592 1378 567 1404 c 2,27,-1
 429 1542 l 2,28,29
 403 1569 403 1569 403 1589 c 256,30,31
 403 1609 403 1609 419 1625 c 128,-1,32
 435 1641 435 1641 457 1641 c 0,33,34
 478 1641 478 1641 503 1616 c 2,35,-1
 643 1477 l 2,36,37
 668 1448 668 1448 668 1431 c 0,38,39
 668 1411 668 1411 652.5 1394.5 c 128,-1,40
 637 1378 637 1378 615 1378 c 0,25,26
EndSplineSet
EndChar

StartChar: uni0401
Encoding: 1025 1025 441
Width: 1184
Flags: W
LayerCount: 2
Fore
SplineSet
214 -3 m 2,0,1
 165 -3 165 -3 165 69 c 2,2,-1
 165 1204 l 2,3,4
 165 1275 165 1275 214 1275 c 2,5,-1
 1021 1275 l 2,6,7
 1089 1275 1089 1275 1089 1219 c 0,8,9
 1089 1170 1089 1170 1021 1170 c 2,10,-1
 270 1170 l 1,11,-1
 270 769 l 1,12,-1
 782 769 l 2,13,14
 855 769 855 769 855 712 c 0,15,16
 855 664 855 664 782 664 c 2,17,-1
 270 664 l 1,18,-1
 270 102 l 1,19,-1
 1021 102 l 2,20,21
 1089 102 1089 102 1089 46 c 0,22,23
 1089 -3 1089 -3 1021 -3 c 2,24,-1
 214 -3 l 2,0,1
463 1409 m 0,25,26
 427 1409 427 1409 395 1434 c 128,-1,27
 363 1459 363 1459 363 1492 c 0,28,29
 364 1524 364 1524 395.5 1549 c 128,-1,30
 427 1574 427 1574 464 1574 c 256,31,32
 501 1574 501 1574 534.5 1549 c 128,-1,33
 568 1524 568 1524 568 1492 c 256,34,35
 568 1460 568 1460 534 1434.5 c 128,-1,36
 500 1409 500 1409 463 1409 c 0,25,26
767 1409 m 0,37,38
 731 1409 731 1409 699 1434 c 128,-1,39
 667 1459 667 1459 667 1492 c 0,40,41
 668 1524 668 1524 699.5 1549 c 128,-1,42
 731 1574 731 1574 768 1574 c 256,43,44
 805 1574 805 1574 838.5 1549 c 128,-1,45
 872 1524 872 1524 872 1492 c 256,46,47
 872 1460 872 1460 838 1434.5 c 128,-1,48
 804 1409 804 1409 767 1409 c 0,37,38
EndSplineSet
EndChar

StartChar: uni0416
Encoding: 1046 1046 442
Width: 1539
Flags: W
LayerCount: 2
Fore
SplineSet
163 -17 m 0,0,1
 120 -17 120 -17 98.5 -2 c 128,-1,2
 77 13 77 13 77 40 c 0,3,4
 77 64 77 64 89.5 73.5 c 128,-1,5
 102 83 102 83 117.5 85 c 128,-1,6
 133 87 133 87 142 88 c 0,7,8
 177 92 177 92 199.5 124.5 c 128,-1,9
 222 157 222 157 238 207.5 c 128,-1,10
 254 258 254 258 268 315 c 0,11,12
 294 411 294 411 355 498 c 128,-1,13
 416 585 416 585 519 621 c 1,14,15
 489 654 489 654 463 695.5 c 128,-1,16
 437 737 437 737 400 803 c 0,17,18
 340 907 340 907 301 970.5 c 128,-1,19
 262 1034 262 1034 227.5 1065 c 128,-1,20
 193 1096 193 1096 151 1104 c 0,21,22
 121 1109 121 1109 98.5 1118 c 128,-1,23
 76 1127 76 1127 76 1157 c 0,24,25
 76 1183 76 1183 96 1196 c 128,-1,26
 116 1209 116 1209 147 1209 c 0,27,28
 220 1209 220 1209 293 1140 c 128,-1,29
 366 1071 366 1071 436 946 c 0,30,31
 470 885 470 885 501.5 831 c 128,-1,32
 533 777 533 777 562.5 735 c 128,-1,33
 592 693 592 693 620 669 c 128,-1,34
 648 645 648 645 674 645 c 2,35,-1
 716 645 l 1,36,-1
 716 1140 l 2,37,38
 716 1173 716 1173 730 1190 c 128,-1,39
 744 1207 744 1207 770 1207 c 0,40,41
 823 1207 823 1207 823 1140 c 2,42,-1
 823 645 l 1,43,-1
 865 645 l 2,44,45
 900 645 900 645 938 687.5 c 128,-1,46
 976 730 976 730 1012.5 790.5 c 128,-1,47
 1049 851 1049 851 1079 905 c 256,48,49
 1109 959 1109 959 1144.5 1012.5 c 128,-1,50
 1180 1066 1180 1066 1219 1110.5 c 128,-1,51
 1258 1155 1258 1155 1301.5 1182 c 128,-1,52
 1345 1209 1345 1209 1392 1209 c 0,53,54
 1423 1209 1423 1209 1443.5 1195 c 128,-1,55
 1464 1181 1464 1181 1464 1155 c 0,56,57
 1464 1127 1464 1127 1442.5 1118.5 c 128,-1,58
 1421 1110 1421 1110 1389 1104 c 0,59,60
 1319 1091 1319 1091 1266.5 1013.5 c 128,-1,61
 1214 936 1214 936 1141 803 c 0,62,63
 1103 735 1103 735 1076.5 695.5 c 128,-1,64
 1050 656 1050 656 1019 621 c 1,65,66
 1104 589 1104 589 1154.5 535.5 c 128,-1,67
 1205 482 1205 482 1233.5 417.5 c 128,-1,68
 1262 353 1262 353 1281 289 c 0,69,70
 1296 236 1296 236 1307.5 193 c 128,-1,71
 1319 150 1319 150 1338.5 122.5 c 128,-1,72
 1358 95 1358 95 1397 88 c 0,73,74
 1414 85 1414 85 1429.5 81 c 128,-1,75
 1445 77 1445 77 1454.5 68 c 128,-1,76
 1464 59 1464 59 1464 39 c 0,77,78
 1464 -17 1464 -17 1387 -17 c 0,79,80
 1301 -17 1301 -17 1251.5 41 c 128,-1,81
 1202 99 1202 99 1177 183 c 0,82,83
 1145 288 1145 288 1113.5 368.5 c 128,-1,84
 1082 449 1082 449 1026 494.5 c 128,-1,85
 970 540 970 540 867 540 c 2,86,-1
 823 540 l 1,87,-1
 823 47 l 2,88,89
 823 16 823 16 809 -0.5 c 128,-1,90
 795 -17 795 -17 769 -17 c 0,91,92
 744 -17 744 -17 730 -0.5 c 128,-1,93
 716 16 716 16 716 47 c 2,94,-1
 716 540 l 1,95,-1
 672 540 l 2,96,97
 586 540 586 540 533 504 c 128,-1,98
 480 468 480 468 449.5 413.5 c 128,-1,99
 419 359 419 359 400 304 c 0,100,101
 374 227 374 227 353.5 167.5 c 128,-1,102
 333 108 333 108 308.5 67 c 128,-1,103
 284 26 284 26 250 4.5 c 128,-1,104
 216 -17 216 -17 163 -17 c 0,0,1
EndSplineSet
EndChar

StartChar: uni0417
Encoding: 1047 1047 443
Width: 1156
Flags: W
LayerCount: 2
Fore
SplineSet
308 -3 m 2,0,1
 194 -3 194 -3 150.5 54 c 128,-1,2
 107 111 107 111 107 256 c 0,3,4
 107 326 107 326 160 326 c 0,5,6
 212 326 212 326 212 256 c 2,7,-1
 212 220 l 2,8,9
 212 154 212 154 235.5 128 c 128,-1,10
 259 102 259 102 322 102 c 2,11,-1
 688 102 l 2,12,13
 757 102 757 102 811 141 c 128,-1,14
 865 180 865 180 895.5 240 c 128,-1,15
 926 300 926 300 926 364 c 0,16,17
 926 426 926 426 896 480.5 c 128,-1,18
 866 535 866 535 813.5 569.5 c 128,-1,19
 761 604 761 604 696 604 c 2,20,-1
 524 604 l 2,21,22
 451 604 451 604 451 656 c 0,23,24
 451 709 451 709 524 709 c 2,25,-1
 696 709 l 2,26,27
 761 709 761 709 813.5 738.5 c 128,-1,28
 866 768 866 768 896 817 c 128,-1,29
 926 866 926 866 926 927 c 0,30,31
 926 989 926 989 895.5 1044.5 c 128,-1,32
 865 1100 865 1100 811 1135 c 128,-1,33
 757 1170 757 1170 688 1170 c 2,34,-1
 322 1170 l 2,35,36
 259 1170 259 1170 235.5 1144.5 c 128,-1,37
 212 1119 212 1119 212 1053 c 2,38,-1
 212 1017 l 2,39,40
 212 946 212 946 160 946 c 0,41,42
 107 946 107 946 107 1017 c 0,43,44
 107 1162 107 1162 150.5 1218.5 c 128,-1,45
 194 1275 194 1275 308 1275 c 2,46,-1
 702 1275 l 2,47,48
 796 1275 796 1275 870.5 1232 c 128,-1,49
 945 1189 945 1189 988 1113 c 128,-1,50
 1031 1037 1031 1037 1031 941 c 0,51,52
 1031 847 1031 847 991 772.5 c 128,-1,53
 951 698 951 698 880 654 c 1,54,55
 951 605 951 605 991 526 c 128,-1,56
 1031 447 1031 447 1031 351 c 0,57,58
 1031 254 1031 254 987 174 c 128,-1,59
 943 94 943 94 868.5 45.5 c 128,-1,60
 794 -3 794 -3 702 -3 c 2,61,-1
 308 -3 l 2,0,1
EndSplineSet
EndChar

StartChar: uni0418
Encoding: 1048 1048 444
Width: 1254
Flags: W
LayerCount: 2
Fore
SplineSet
216 -17 m 0,0,1
 165 -17 165 -17 165 52 c 2,2,-1
 165 1218 l 2,3,4
 165 1289 165 1289 218 1289 c 0,5,6
 270 1289 270 1289 270 1217 c 2,7,-1
 270 194 l 1,8,-1
 980 1251 l 2,9,10
 1006 1289 1006 1289 1041 1289 c 0,11,12
 1089 1289 1089 1289 1089 1218 c 2,13,-1
 1089 52 l 2,14,15
 1089 -17 1089 -17 1037 -17 c 0,16,17
 984 -17 984 -17 984 51 c 2,18,-1
 984 1085 l 1,19,-1
 263 7 l 2,20,21
 254 -6 254 -6 243.5 -11.5 c 128,-1,22
 233 -17 233 -17 216 -17 c 0,0,1
EndSplineSet
EndChar

StartChar: uni0419
Encoding: 1049 1049 445
Width: 1254
Flags: W
LayerCount: 2
Fore
SplineSet
216 -17 m 0,0,1
 165 -17 165 -17 165 52 c 2,2,-1
 165 1218 l 2,3,4
 165 1289 165 1289 218 1289 c 0,5,6
 270 1289 270 1289 270 1217 c 2,7,-1
 270 194 l 1,8,-1
 980 1251 l 2,9,10
 1006 1289 1006 1289 1041 1289 c 0,11,12
 1089 1289 1089 1289 1089 1218 c 2,13,-1
 1089 52 l 2,14,15
 1089 -17 1089 -17 1037 -17 c 0,16,17
 984 -17 984 -17 984 51 c 2,18,-1
 984 1085 l 1,19,-1
 263 7 l 2,20,21
 254 -6 254 -6 243.5 -11.5 c 128,-1,22
 233 -17 233 -17 216 -17 c 0,0,1
508 1339 m 2,23,24
 405 1339 405 1339 365 1390.5 c 128,-1,25
 325 1442 325 1442 325 1573 c 2,26,-1
 325 1628 l 1,27,-1
 430 1628 l 1,28,-1
 430 1541 l 2,29,30
 430 1484 430 1484 448.5 1464 c 128,-1,31
 467 1444 467 1444 524 1444 c 2,32,-1
 728 1444 l 2,33,34
 784 1444 784 1444 801.5 1464 c 128,-1,35
 819 1484 819 1484 819 1541 c 2,36,-1
 819 1628 l 1,37,-1
 924 1628 l 1,38,-1
 924 1573 l 2,39,40
 924 1441 924 1441 885.5 1390 c 128,-1,41
 847 1339 847 1339 742 1339 c 2,42,-1
 508 1339 l 2,23,24
EndSplineSet
EndChar

StartChar: uni041A
Encoding: 1050 1050 446
Width: 1138
Flags: W
LayerCount: 2
Fore
SplineSet
217 -17 m 0,0,1
 192 -17 192 -17 178.5 -0.5 c 128,-1,2
 165 16 165 16 165 47 c 2,3,-1
 165 1140 l 2,4,5
 165 1172 165 1172 178.5 1189.5 c 128,-1,6
 192 1207 192 1207 219 1207 c 0,7,8
 270 1207 270 1207 270 1140 c 2,9,-1
 270 645 l 1,10,-1
 456 645 l 2,11,12
 493 645 493 645 532.5 687 c 128,-1,13
 572 729 572 729 612 794 c 128,-1,14
 652 859 652 859 692 928 c 0,15,16
 722 980 722 980 754.5 1030 c 128,-1,17
 787 1080 787 1080 824 1120.5 c 128,-1,18
 861 1161 861 1161 902 1185 c 128,-1,19
 943 1209 943 1209 990 1209 c 0,20,21
 1061 1209 1061 1209 1061 1153 c 0,22,23
 1061 1121 1061 1121 1038.5 1114 c 128,-1,24
 1016 1107 1016 1107 992 1104 c 0,25,26
 926 1095 926 1095 883 1040 c 128,-1,27
 840 985 840 985 793 900 c 0,28,29
 750 822 750 822 721.5 773.5 c 128,-1,30
 693 725 693 725 671.5 692.5 c 128,-1,31
 650 660 650 660 624.5 634.5 c 128,-1,32
 599 609 599 609 562 578 c 1,33,-1
 561 606 l 1,34,35
 610 566 610 566 647 521.5 c 128,-1,36
 684 477 684 477 719.5 420 c 128,-1,37
 755 363 755 363 798 287 c 0,38,39
 856 185 856 185 897.5 140.5 c 128,-1,40
 939 96 939 96 994 88 c 0,41,42
 1011 86 1011 86 1026.5 82.5 c 128,-1,43
 1042 79 1042 79 1051.5 69 c 128,-1,44
 1061 59 1061 59 1061 37 c 0,45,46
 1061 -17 1061 -17 993 -17 c 0,47,48
 921 -17 921 -17 858.5 39.5 c 128,-1,49
 796 96 796 96 738 182 c 0,50,51
 709 227 709 227 685.5 266.5 c 128,-1,52
 662 306 662 306 638 346 c 0,53,54
 579 444 579 444 534.5 492 c 128,-1,55
 490 540 490 540 446 540 c 2,56,-1
 270 540 l 1,57,-1
 270 47 l 2,58,59
 270 16 270 16 256.5 -0.5 c 128,-1,60
 243 -17 243 -17 217 -17 c 0,0,1
EndSplineSet
EndChar

StartChar: uni040C
Encoding: 1036 1036 447
Width: 1138
Flags: W
LayerCount: 2
Fore
SplineSet
507 1178 m 0,0,1
 489 1178 489 1178 472.5 1193 c 128,-1,2
 456 1208 456 1208 456 1231 c 0,3,4
 456 1242 456 1242 461 1253.5 c 128,-1,5
 466 1265 466 1265 474 1274 c 2,6,-1
 666 1505 l 2,7,8
 692 1535 692 1535 716 1535 c 0,9,10
 735 1535 735 1535 751 1520.5 c 128,-1,11
 767 1506 767 1506 767 1482 c 0,12,13
 767 1459 767 1459 748 1438 c 2,14,-1
 556 1208 l 2,15,16
 530 1178 530 1178 507 1178 c 0,0,1
217 -17 m 0,17,18
 192 -17 192 -17 178.5 -0.5 c 128,-1,19
 165 16 165 16 165 47 c 2,20,-1
 165 1140 l 2,21,22
 165 1172 165 1172 178.5 1189.5 c 128,-1,23
 192 1207 192 1207 219 1207 c 0,24,25
 270 1207 270 1207 270 1140 c 2,26,-1
 270 645 l 1,27,-1
 456 645 l 2,28,29
 493 645 493 645 532.5 687 c 128,-1,30
 572 729 572 729 612 794 c 128,-1,31
 652 859 652 859 692 928 c 0,32,33
 722 980 722 980 754.5 1030 c 128,-1,34
 787 1080 787 1080 824 1120.5 c 128,-1,35
 861 1161 861 1161 902 1185 c 128,-1,36
 943 1209 943 1209 990 1209 c 0,37,38
 1061 1209 1061 1209 1061 1153 c 0,39,40
 1061 1121 1061 1121 1038.5 1114 c 128,-1,41
 1016 1107 1016 1107 992 1104 c 0,42,43
 926 1095 926 1095 883 1040 c 128,-1,44
 840 985 840 985 793 900 c 0,45,46
 750 822 750 822 721.5 773.5 c 128,-1,47
 693 725 693 725 671.5 692.5 c 128,-1,48
 650 660 650 660 624.5 634.5 c 128,-1,49
 599 609 599 609 562 578 c 1,50,-1
 561 606 l 1,51,52
 610 566 610 566 647 521.5 c 128,-1,53
 684 477 684 477 719.5 420 c 128,-1,54
 755 363 755 363 798 287 c 0,55,56
 856 185 856 185 897.5 140.5 c 128,-1,57
 939 96 939 96 994 88 c 0,58,59
 1011 86 1011 86 1026.5 82.5 c 128,-1,60
 1042 79 1042 79 1051.5 69 c 128,-1,61
 1061 59 1061 59 1061 37 c 0,62,63
 1061 -17 1061 -17 993 -17 c 0,64,65
 921 -17 921 -17 858.5 39.5 c 128,-1,66
 796 96 796 96 738 182 c 0,67,68
 709 227 709 227 685.5 266.5 c 128,-1,69
 662 306 662 306 638 346 c 0,70,71
 579 444 579 444 534.5 492 c 128,-1,72
 490 540 490 540 446 540 c 2,73,-1
 270 540 l 1,74,-1
 270 47 l 2,75,76
 270 16 270 16 256.5 -0.5 c 128,-1,77
 243 -17 243 -17 217 -17 c 0,17,18
EndSplineSet
EndChar

StartChar: uni041B
Encoding: 1051 1051 448
Width: 1136
Flags: W
LayerCount: 2
Fore
SplineSet
918 -17 m 0,0,1
 865 -17 865 -17 865 54 c 2,2,-1
 865 1170 l 1,3,-1
 450 1170 l 2,4,5
 382 1170 382 1170 356.5 1144 c 128,-1,6
 331 1118 331 1118 331 1052 c 2,7,-1
 331 253 l 2,8,9
 331 151 331 151 307.5 95.5 c 128,-1,10
 284 40 284 40 235 18.5 c 128,-1,11
 186 -3 186 -3 111 -3 c 0,12,13
 38 -3 38 -3 38 50 c 0,14,15
 38 102 38 102 112 102 c 0,16,17
 173 102 173 102 196.5 127.5 c 128,-1,18
 220 153 220 153 220 218 c 2,19,-1
 220 1020 l 2,20,21
 220 1116 220 1116 239.5 1171.5 c 128,-1,22
 259 1227 259 1227 306 1251 c 128,-1,23
 353 1275 353 1275 436 1275 c 2,24,-1
 970 1275 l 1,25,-1
 970 54 l 2,26,27
 970 -17 970 -17 918 -17 c 0,0,1
EndSplineSet
EndChar

StartChar: uni041C
Encoding: 1052 1052 449
Width: 1296
Flags: W
LayerCount: 2
Fore
SplineSet
218 -17 m 0,0,1
 165 -17 165 -17 165 52 c 2,2,-1
 165 1218 l 2,3,4
 165 1289 165 1289 214 1289 c 0,5,6
 248 1289 248 1289 274 1251 c 2,7,-1
 647 695 l 1,8,-1
 1022 1251 l 2,9,10
 1048 1289 1048 1289 1081 1289 c 0,11,12
 1131 1289 1131 1289 1131 1218 c 2,13,-1
 1131 52 l 2,14,15
 1131 -17 1131 -17 1079 -17 c 0,16,17
 1026 -17 1026 -17 1026 54 c 2,18,-1
 1026 1088 l 1,19,-1
 692 585 l 2,20,21
 680 566 680 566 670.5 560.5 c 128,-1,22
 661 555 661 555 649 555 c 0,23,24
 638 555 638 555 627.5 560.5 c 128,-1,25
 617 566 617 566 605 585 c 2,26,-1
 270 1088 l 1,27,-1
 270 54 l 2,28,29
 270 -17 270 -17 218 -17 c 0,0,1
EndSplineSet
EndChar

StartChar: uni041D
Encoding: 1053 1053 450
Width: 1254
Flags: W
LayerCount: 2
Fore
SplineSet
218 -17 m 0,0,1
 165 -17 165 -17 165 52 c 2,2,-1
 165 1218 l 2,3,4
 165 1289 165 1289 214 1289 c 0,5,6
 270 1289 270 1289 270 1218 c 2,7,-1
 270 739 l 1,8,-1
 984 739 l 1,9,-1
 984 1218 l 2,10,11
 984 1289 984 1289 1037 1289 c 0,12,13
 1089 1289 1089 1289 1089 1218 c 2,14,-1
 1089 52 l 2,15,16
 1089 -17 1089 -17 1037 -17 c 0,17,18
 984 -17 984 -17 984 52 c 2,19,-1
 984 634 l 1,20,-1
 270 634 l 1,21,-1
 270 52 l 2,22,23
 270 -17 270 -17 218 -17 c 0,0,1
EndSplineSet
EndChar

StartChar: uni041E
Encoding: 1054 1054 451
Width: 1177
Flags: W
LayerCount: 2
Fore
SplineSet
589 -21 m 0,0,1
 452 -21 452 -21 348 37 c 128,-1,2
 244 95 244 95 185.5 201.5 c 128,-1,3
 127 308 127 308 127 456 c 2,4,-1
 127 817 l 2,5,6
 127 964 127 964 185.5 1071 c 128,-1,7
 244 1178 244 1178 348 1235.5 c 128,-1,8
 452 1293 452 1293 589 1293 c 0,9,10
 725 1293 725 1293 829 1235 c 128,-1,11
 933 1177 933 1177 992 1070.5 c 128,-1,12
 1051 964 1051 964 1051 817 c 2,13,-1
 1051 456 l 2,14,15
 1051 310 1051 310 993.5 203 c 128,-1,16
 936 96 936 96 832 37.5 c 128,-1,17
 728 -21 728 -21 589 -21 c 0,0,1
589 84 m 0,18,19
 757 84 757 84 851.5 183 c 128,-1,20
 946 282 946 282 946 457 c 2,21,-1
 946 815 l 2,22,23
 946 991 946 991 853.5 1089.5 c 128,-1,24
 761 1188 761 1188 589 1188 c 0,25,26
 420 1188 420 1188 326 1090 c 128,-1,27
 232 992 232 992 232 815 c 2,28,-1
 232 457 l 2,29,30
 232 282 232 282 326 183 c 128,-1,31
 420 84 420 84 589 84 c 0,18,19
EndSplineSet
EndChar

StartChar: uni041F
Encoding: 1055 1055 452
Width: 1235
Flags: W
LayerCount: 2
Fore
SplineSet
218 -17 m 0,0,1
 166 -17 166 -17 166 52 c 2,2,-1
 166 1275 l 1,3,-1
 1070 1275 l 1,4,-1
 1070 52 l 2,5,6
 1070 -17 1070 -17 1017 -17 c 0,7,8
 965 -17 965 -17 965 52 c 2,9,-1
 965 1170 l 1,10,-1
 271 1170 l 1,11,-1
 271 52 l 2,12,13
 271 -17 271 -17 218 -17 c 0,0,1
EndSplineSet
EndChar

StartChar: uni0420
Encoding: 1056 1056 453
Width: 1070
Flags: W
LayerCount: 2
Fore
SplineSet
218 -17 m 0,0,1
 165 -17 165 -17 165 47 c 2,2,-1
 165 1206 l 2,3,4
 165 1278 165 1278 214 1278 c 2,5,-1
 573 1278 l 2,6,7
 794 1278 794 1278 899.5 1210.5 c 128,-1,8
 1005 1143 1005 1143 1005 977 c 0,9,10
 1005 825 1005 825 918.5 744.5 c 128,-1,11
 832 664 832 664 660 664 c 2,12,-1
 270 664 l 1,13,-1
 270 47 l 2,14,15
 270 -17 270 -17 218 -17 c 0,0,1
270 769 m 1,16,-1
 573 769 l 2,17,18
 691 769 691 769 763 784 c 128,-1,19
 835 799 835 799 867.5 842 c 128,-1,20
 900 885 900 885 900 971 c 0,21,22
 900 1053 900 1053 869 1096.5 c 128,-1,23
 838 1140 838 1140 766.5 1156.5 c 128,-1,24
 695 1173 695 1173 573 1173 c 2,25,-1
 270 1173 l 1,26,-1
 270 769 l 1,16,-1
EndSplineSet
EndChar

StartChar: uni0421
Encoding: 1057 1057 454
Width: 1174
Flags: W
LayerCount: 2
Fore
SplineSet
582 -3 m 2,0,1
 428 -3 428 -3 331 28 c 128,-1,2
 234 59 234 59 187.5 136.5 c 128,-1,3
 141 214 141 214 141 355 c 2,4,-1
 141 918 l 2,5,6
 141 1058 141 1058 186.5 1135.5 c 128,-1,7
 232 1213 232 1213 327.5 1244 c 128,-1,8
 423 1275 423 1275 573 1275 c 2,9,-1
 864 1275 l 2,10,11
 947 1275 947 1275 990 1245.5 c 128,-1,12
 1033 1216 1033 1216 1049 1168.5 c 128,-1,13
 1065 1121 1065 1121 1065 1067 c 0,14,15
 1065 980 1065 980 1012 980 c 0,16,17
 985 980 985 980 972.5 999.5 c 128,-1,18
 960 1019 960 1019 960 1055 c 0,19,20
 959 1115 959 1115 937 1142.5 c 128,-1,21
 915 1170 915 1170 850 1170 c 2,22,-1
 573 1170 l 2,23,24
 449 1170 449 1170 377 1153 c 128,-1,25
 305 1136 305 1136 275.5 1081.5 c 128,-1,26
 246 1027 246 1027 246 917 c 2,27,-1
 246 356 l 2,28,29
 246 249 246 249 275.5 194.5 c 128,-1,30
 305 140 305 140 378 121 c 128,-1,31
 451 102 451 102 582 102 c 2,32,-1
 850 102 l 2,33,34
 915 102 915 102 937 129.5 c 128,-1,35
 959 157 959 157 960 218 c 0,36,37
 961 257 961 257 976 274.5 c 128,-1,38
 991 292 991 292 1012 292 c 0,39,40
 1036 292 1036 292 1050.5 274 c 128,-1,41
 1065 256 1065 256 1065 220 c 0,42,43
 1065 156 1065 156 1049 105.5 c 128,-1,44
 1033 55 1033 55 990 26 c 128,-1,45
 947 -3 947 -3 864 -3 c 2,46,-1
 582 -3 l 2,0,1
EndSplineSet
EndChar

StartChar: uni0422
Encoding: 1058 1058 455
Width: 950
Flags: W
LayerCount: 2
Fore
SplineSet
475 -17 m 0,0,1
 448 -17 448 -17 434 -0.5 c 128,-1,2
 420 16 420 16 420 47 c 2,3,-1
 420 1170 l 1,4,-1
 116 1170 l 2,5,6
 83 1170 83 1170 66 1183.5 c 128,-1,7
 49 1197 49 1197 49 1223 c 0,8,9
 49 1248 49 1248 66 1261.5 c 128,-1,10
 83 1275 83 1275 116 1275 c 2,11,-1
 833 1275 l 2,12,13
 899 1275 899 1275 899 1223 c 0,14,15
 899 1170 899 1170 833 1170 c 2,16,-1
 531 1170 l 1,17,-1
 531 47 l 2,18,19
 531 16 531 16 516 -0.5 c 128,-1,20
 501 -17 501 -17 475 -17 c 0,0,1
EndSplineSet
EndChar

StartChar: uni0423
Encoding: 1059 1059 456
Width: 1044
Flags: W
LayerCount: 2
Fore
SplineSet
318 -15 m 0,0,1
 238 -15 238 -15 195.5 15.5 c 128,-1,2
 153 46 153 46 137 95 c 128,-1,3
 121 144 121 144 121 201 c 0,4,5
 121 280 121 280 173 280 c 0,6,7
 226 280 226 280 226 208 c 0,8,9
 226 146 226 146 246.5 118 c 128,-1,10
 267 90 267 90 319 90 c 0,11,12
 370 90 370 90 398 146 c 2,13,-1
 470 301 l 1,14,-1
 87 1203 l 2,15,16
 78 1226 78 1226 87 1250.5 c 128,-1,17
 96 1275 96 1275 132 1275 c 0,18,19
 166 1275 166 1275 185 1231 c 2,20,-1
 537 430 l 1,21,-1
 900 1233 l 2,22,23
 918 1275 918 1275 956 1275 c 0,24,25
 990 1275 990 1275 999 1253 c 128,-1,26
 1008 1231 1008 1231 998 1204 c 2,27,-1
 491 82 l 2,28,29
 470 35 470 35 425.5 10 c 128,-1,30
 381 -15 381 -15 318 -15 c 0,0,1
EndSplineSet
EndChar

StartChar: uni040E
Encoding: 1038 1038 457
Width: 1044
Flags: W
LayerCount: 2
Fore
SplineSet
423 1267 m 2,0,1
 321 1267 321 1267 281 1318.5 c 128,-1,2
 241 1370 241 1370 241 1501 c 2,3,-1
 241 1556 l 1,4,-1
 346 1556 l 1,5,-1
 346 1469 l 2,6,7
 346 1412 346 1412 364.5 1392 c 128,-1,8
 383 1372 383 1372 439 1372 c 2,9,-1
 643 1372 l 2,10,11
 700 1372 700 1372 717.5 1392 c 128,-1,12
 735 1412 735 1412 735 1469 c 2,13,-1
 735 1556 l 1,14,-1
 840 1556 l 1,15,-1
 840 1501 l 2,16,17
 840 1369 840 1369 801.5 1318 c 128,-1,18
 763 1267 763 1267 657 1267 c 2,19,-1
 423 1267 l 2,0,1
318 -15 m 0,20,21
 238 -15 238 -15 195.5 15.5 c 128,-1,22
 153 46 153 46 137 95 c 128,-1,23
 121 144 121 144 121 201 c 0,24,25
 121 280 121 280 173 280 c 0,26,27
 226 280 226 280 226 208 c 0,28,29
 226 146 226 146 246.5 118 c 128,-1,30
 267 90 267 90 319 90 c 0,31,32
 370 90 370 90 398 146 c 2,33,-1
 470 301 l 1,34,-1
 87 1203 l 2,35,36
 78 1226 78 1226 87 1250.5 c 128,-1,37
 96 1275 96 1275 132 1275 c 0,38,39
 166 1275 166 1275 185 1231 c 2,40,-1
 537 430 l 1,41,-1
 900 1233 l 2,42,43
 918 1275 918 1275 956 1275 c 0,44,45
 990 1275 990 1275 999 1253 c 128,-1,46
 1008 1231 1008 1231 998 1204 c 2,47,-1
 491 82 l 2,48,49
 470 35 470 35 425.5 10 c 128,-1,50
 381 -15 381 -15 318 -15 c 0,20,21
EndSplineSet
EndChar

StartChar: uni0424
Encoding: 1060 1060 458
Width: 1089
Flags: W
LayerCount: 2
Fore
SplineSet
549 -17 m 0,0,1
 522 -17 522 -17 508.5 -0.5 c 128,-1,2
 495 16 495 16 495 47 c 2,3,-1
 495 150 l 1,4,5
 309 165 309 165 196 290.5 c 128,-1,6
 83 416 83 416 83 624 c 2,7,-1
 83 648 l 2,8,9
 83 856 83 856 196 981.5 c 128,-1,10
 309 1107 309 1107 495 1122 c 1,11,-1
 495 1225 l 2,12,13
 495 1289 495 1289 549 1289 c 256,14,15
 603 1289 603 1289 603 1224 c 2,16,-1
 603 1122 l 1,17,18
 784 1103 784 1103 895.5 978 c 128,-1,19
 1007 853 1007 853 1007 648 c 2,20,-1
 1007 624 l 2,21,22
 1007 421 1007 421 895.5 295.5 c 128,-1,23
 784 170 784 170 603 150 c 1,24,-1
 603 47 l 2,25,26
 603 -17 603 -17 549 -17 c 0,0,1
495 250 m 1,27,-1
 495 1022 l 1,28,29
 349 1008 349 1008 268.5 910 c 128,-1,30
 188 812 188 812 188 648 c 2,31,-1
 188 624 l 2,32,33
 188 458 188 458 268 361.5 c 128,-1,34
 348 265 348 265 495 250 c 1,27,-1
603 251 m 1,35,36
 745 266 745 266 823.5 364.5 c 128,-1,37
 902 463 902 463 902 624 c 2,38,-1
 902 648 l 2,39,40
 902 809 902 809 823.5 906.5 c 128,-1,41
 745 1004 745 1004 603 1022 c 1,42,-1
 603 251 l 1,35,36
EndSplineSet
EndChar

StartChar: uni0425
Encoding: 1061 1061 459
Width: 1108
Flags: W
LayerCount: 2
Fore
SplineSet
121 -17 m 0,0,1
 86 -17 86 -17 73 13.5 c 128,-1,2
 60 44 60 44 85 76 c 2,3,-1
 516 672 l 1,4,-1
 516 597 l 1,5,-1
 85 1195 l 2,6,7
 68 1219 68 1219 69.5 1240.5 c 128,-1,8
 71 1262 71 1262 85.5 1276 c 128,-1,9
 100 1290 100 1290 122 1290 c 0,10,11
 138 1290 138 1290 149.5 1280 c 128,-1,12
 161 1270 161 1270 172 1253 c 2,13,-1
 581 681 l 1,14,-1
 525 681 l 1,15,-1
 936 1253 l 2,16,17
 945 1266 945 1266 958 1277.5 c 128,-1,18
 971 1289 971 1289 992 1289 c 0,19,20
 1014 1289 1014 1289 1025.5 1274 c 128,-1,21
 1037 1259 1037 1259 1037 1237 c 128,-1,22
 1037 1215 1037 1215 1023 1195 c 2,23,-1
 592 597 l 1,24,-1
 592 672 l 1,25,-1
 1023 77 l 2,26,27
 1040 54 1040 54 1039 32.5 c 128,-1,28
 1038 11 1038 11 1023.5 -3 c 128,-1,29
 1009 -17 1009 -17 987 -17 c 0,30,31
 962 -17 962 -17 936 15 c 2,32,-1
 525 589 l 1,33,-1
 581 591 l 1,34,-1
 172 15 l 2,35,36
 147 -17 147 -17 121 -17 c 0,0,1
EndSplineSet
EndChar

StartChar: uni0427
Encoding: 1063 1063 460
Width: 1200
Flags: W
LayerCount: 2
Fore
SplineSet
985 -17 m 0,0,1
 930 -17 930 -17 930 54 c 2,2,-1
 930 470 l 1,3,4
 816 340 816 340 603 340 c 2,5,-1
 542 340 l 2,6,7
 393 340 393 340 297.5 371 c 128,-1,8
 202 402 202 402 156.5 479.5 c 128,-1,9
 111 557 111 557 111 697 c 2,10,-1
 111 1219 l 2,11,12
 111 1289 111 1289 164 1289 c 0,13,14
 216 1289 216 1289 216 1219 c 2,15,-1
 216 698 l 2,16,17
 216 591 216 591 245 537 c 128,-1,18
 274 483 274 483 345 464 c 128,-1,19
 416 445 416 445 542 445 c 2,20,-1
 603 445 l 2,21,22
 763 445 763 445 846.5 537.5 c 128,-1,23
 930 630 930 630 930 805 c 2,24,-1
 930 1219 l 2,25,26
 930 1289 930 1289 983 1289 c 0,27,28
 1035 1289 1035 1289 1035 1220 c 2,29,-1
 1035 54 l 2,30,31
 1035 -17 1035 -17 985 -17 c 0,0,1
EndSplineSet
EndChar

StartChar: uni0426
Encoding: 1062 1062 461
Width: 1149
Flags: W
LayerCount: 2
Fore
SplineSet
1017 -187 m 0,0,1
 965 -187 965 -187 965 -116 c 2,2,-1
 965 -3 l 1,3,-1
 166 -3 l 1,4,-1
 166 1150 l 2,5,6
 166 1220 166 1220 218 1220 c 0,7,8
 271 1220 271 1220 271 1150 c 2,9,-1
 271 102 l 1,10,-1
 849 102 l 1,11,-1
 849 1150 l 2,12,13
 849 1220 849 1220 901 1220 c 0,14,15
 954 1220 954 1220 954 1150 c 2,16,-1
 954 102 l 1,17,18
 1015 101 1015 101 1042.5 75 c 128,-1,19
 1070 49 1070 49 1070 -15 c 2,20,-1
 1070 -116 l 2,21,22
 1070 -187 1070 -187 1017 -187 c 0,0,1
EndSplineSet
EndChar

StartChar: uni0428
Encoding: 1064 1064 462
Width: 1379
Flags: W
LayerCount: 2
Fore
SplineSet
166 -3 m 1,0,-1
 166 1150 l 2,1,2
 166 1220 166 1220 218 1220 c 0,3,4
 271 1220 271 1220 271 1150 c 2,5,-1
 271 102 l 1,6,-1
 637 102 l 1,7,-1
 637 1150 l 2,8,9
 637 1220 637 1220 690 1220 c 0,10,11
 742 1220 742 1220 742 1150 c 2,12,-1
 742 102 l 1,13,-1
 1109 102 l 1,14,-1
 1109 1150 l 2,15,16
 1109 1220 1109 1220 1161 1220 c 0,17,18
 1214 1220 1214 1220 1214 1150 c 2,19,-1
 1214 -3 l 1,20,-1
 166 -3 l 1,0,-1
EndSplineSet
EndChar

StartChar: uni0429
Encoding: 1065 1065 463
Width: 1409
Flags: W
LayerCount: 2
Fore
SplineSet
1277 -187 m 0,0,1
 1225 -187 1225 -187 1225 -116 c 2,2,-1
 1225 -3 l 1,3,-1
 166 -3 l 1,4,-1
 166 1150 l 2,5,6
 166 1220 166 1220 218 1220 c 0,7,8
 271 1220 271 1220 271 1150 c 2,9,-1
 271 102 l 1,10,-1
 636 102 l 1,11,-1
 636 1150 l 2,12,13
 636 1220 636 1220 688 1220 c 0,14,15
 741 1220 741 1220 741 1150 c 2,16,-1
 741 102 l 1,17,-1
 1109 102 l 1,18,-1
 1109 1150 l 2,19,20
 1109 1220 1109 1220 1161 1220 c 0,21,22
 1214 1220 1214 1220 1214 1150 c 2,23,-1
 1214 102 l 1,24,25
 1275 101 1275 101 1302.5 75 c 128,-1,26
 1330 49 1330 49 1330 -15 c 2,27,-1
 1330 -116 l 2,28,29
 1330 -187 1330 -187 1277 -187 c 0,0,1
EndSplineSet
EndChar

StartChar: uni040F
Encoding: 1039 1039 464
Width: 1235
Flags: W
LayerCount: 2
Fore
SplineSet
618 -187 m 0,0,1
 565 -187 565 -187 565 -116 c 2,2,-1
 565 -3 l 1,3,-1
 166 -3 l 1,4,-1
 166 1150 l 2,5,6
 166 1220 166 1220 218 1220 c 0,7,8
 271 1220 271 1220 271 1150 c 2,9,-1
 271 102 l 1,10,-1
 965 102 l 1,11,-1
 965 1150 l 2,12,13
 965 1220 965 1220 1017 1220 c 0,14,15
 1070 1220 1070 1220 1070 1150 c 2,16,-1
 1070 -3 l 1,17,-1
 670 -3 l 1,18,-1
 670 -116 l 2,19,20
 670 -187 670 -187 618 -187 c 0,0,1
EndSplineSet
EndChar

StartChar: uni042C
Encoding: 1068 1068 465
Width: 1078
Flags: W
LayerCount: 2
Fore
SplineSet
214 -17 m 2,0,1
 165 -17 165 -17 165 54 c 2,2,-1
 165 1212 l 2,3,4
 165 1275 165 1275 218 1275 c 0,5,6
 270 1275 270 1275 270 1212 c 2,7,-1
 270 933 l 1,8,-1
 573 933 l 2,9,10
 698 933 698 933 795.5 868.5 c 128,-1,11
 893 804 893 804 949 696 c 128,-1,12
 1005 588 1005 588 1005 456 c 0,13,14
 1005 325 1005 325 949.5 217.5 c 128,-1,15
 894 110 894 110 796.5 46.5 c 128,-1,16
 699 -17 699 -17 573 -17 c 2,17,-1
 214 -17 l 2,0,1
270 88 m 1,18,-1
 573 88 l 2,19,20
 675 88 675 88 748.5 138 c 128,-1,21
 822 188 822 188 861 272 c 128,-1,22
 900 356 900 356 900 458 c 256,23,24
 900 560 900 560 861 644 c 128,-1,25
 822 728 822 728 748.5 778 c 128,-1,26
 675 828 675 828 573 828 c 2,27,-1
 270 828 l 1,28,-1
 270 88 l 1,18,-1
EndSplineSet
EndChar

StartChar: uni042A
Encoding: 1066 1066 466
Width: 1221
Flags: W
LayerCount: 2
Fore
SplineSet
358 -17 m 2,0,1
 308 -17 308 -17 308 54 c 2,2,-1
 308 1170 l 1,3,-1
 116 1170 l 2,4,5
 44 1170 44 1170 44 1225 c 0,6,7
 44 1275 44 1275 116 1275 c 2,8,-1
 413 1275 l 1,9,-1
 413 933 l 1,10,-1
 717 933 l 2,11,12
 841 933 841 933 938.5 868.5 c 128,-1,13
 1036 804 1036 804 1092 695.5 c 128,-1,14
 1148 587 1148 587 1148 456 c 256,15,16
 1148 325 1148 325 1092.5 217.5 c 128,-1,17
 1037 110 1037 110 940 46.5 c 128,-1,18
 843 -17 843 -17 719 -17 c 2,19,-1
 358 -17 l 2,0,1
413 88 m 1,20,-1
 719 88 l 2,21,22
 820 88 820 88 892.5 138 c 128,-1,23
 965 188 965 188 1004 272 c 128,-1,24
 1043 356 1043 356 1043 457 c 0,25,26
 1043 559 1043 559 1004 643.5 c 128,-1,27
 965 728 965 728 891.5 778 c 128,-1,28
 818 828 818 828 717 828 c 2,29,-1
 413 828 l 1,30,-1
 413 88 l 1,20,-1
EndSplineSet
EndChar

StartChar: uni042B
Encoding: 1067 1067 467
Width: 1366
Flags: W
LayerCount: 2
Fore
SplineSet
214 -17 m 2,0,1
 165 -17 165 -17 165 54 c 2,2,-1
 165 1212 l 2,3,4
 165 1275 165 1275 218 1275 c 0,5,6
 270 1275 270 1275 270 1212 c 2,7,-1
 270 933 l 1,8,-1
 573 933 l 2,9,10
 698 933 698 933 795.5 868.5 c 128,-1,11
 893 804 893 804 949 696 c 128,-1,12
 1005 588 1005 588 1005 456 c 0,13,14
 1005 325 1005 325 949.5 217.5 c 128,-1,15
 894 110 894 110 796.5 46.5 c 128,-1,16
 699 -17 699 -17 573 -17 c 2,17,-1
 214 -17 l 2,0,1
270 88 m 1,18,-1
 573 88 l 2,19,20
 675 88 675 88 748.5 138 c 128,-1,21
 822 188 822 188 861 271.5 c 128,-1,22
 900 355 900 355 900 457 c 256,23,24
 900 559 900 559 861 643.5 c 128,-1,25
 822 728 822 728 748.5 778 c 128,-1,26
 675 828 675 828 573 828 c 2,27,-1
 270 828 l 1,28,-1
 270 88 l 1,18,-1
1148 -17 m 0,29,30
 1096 -17 1096 -17 1096 47 c 2,31,-1
 1096 1224 l 2,32,33
 1096 1289 1096 1289 1148 1289 c 0,34,35
 1201 1289 1201 1289 1201 1224 c 2,36,-1
 1201 47 l 2,37,38
 1201 -17 1201 -17 1148 -17 c 0,29,30
EndSplineSet
EndChar

StartChar: uni0409
Encoding: 1033 1033 468
Width: 1752
Flags: W
LayerCount: 2
Fore
SplineSet
919 -17 m 2,0,1
 893 -17 893 -17 879 1.5 c 128,-1,2
 865 20 865 20 865 54 c 2,3,-1
 865 1170 l 1,4,-1
 450 1170 l 2,5,6
 380 1170 380 1170 353 1143.5 c 128,-1,7
 326 1117 326 1117 326 1052 c 2,8,-1
 326 253 l 2,9,10
 326 151 326 151 303.5 95.5 c 128,-1,11
 281 40 281 40 234 18.5 c 128,-1,12
 187 -3 187 -3 114 -3 c 0,13,14
 38 -3 38 -3 38 50 c 0,15,16
 38 75 38 75 57.5 88 c 128,-1,17
 77 101 77 101 113 101 c 0,18,19
 173 101 173 101 197 126.5 c 128,-1,20
 221 152 221 152 221 217 c 2,21,-1
 221 1020 l 2,22,23
 221 1116 221 1116 240.5 1171.5 c 128,-1,24
 260 1227 260 1227 306.5 1251 c 128,-1,25
 353 1275 353 1275 436 1275 c 2,26,-1
 970 1275 l 1,27,-1
 970 813 l 1,28,-1
 1251 813 l 2,29,30
 1380 812 1380 812 1476.5 760 c 128,-1,31
 1573 708 1573 708 1627 615 c 128,-1,32
 1681 522 1681 522 1681 396 c 0,33,34
 1681 271 1681 271 1627.5 178 c 128,-1,35
 1574 85 1574 85 1477.5 34 c 128,-1,36
 1381 -17 1381 -17 1252 -17 c 2,37,-1
 919 -17 l 2,0,1
970 88 m 1,38,-1
 1252 88 l 2,39,40
 1411 88 1411 88 1493.5 172.5 c 128,-1,41
 1576 257 1576 257 1576 398 c 0,42,43
 1576 540 1576 540 1492.5 624 c 128,-1,44
 1409 708 1409 708 1251 708 c 2,45,-1
 970 708 l 1,46,-1
 970 88 l 1,38,-1
EndSplineSet
EndChar

StartChar: uni040A
Encoding: 1034 1034 469
Width: 1854
Flags: W
LayerCount: 2
Fore
SplineSet
218 -17 m 0,0,1
 165 -17 165 -17 165 52 c 2,2,-1
 165 1218 l 2,3,4
 165 1289 165 1289 215 1289 c 0,5,6
 270 1289 270 1289 270 1218 c 2,7,-1
 270 813 l 1,8,-1
 977 813 l 1,9,-1
 977 1218 l 2,10,11
 977 1289 977 1289 1029 1289 c 0,12,13
 1082 1289 1082 1289 1082 1218 c 2,14,-1
 1082 813 l 1,15,-1
 1358 813 l 2,16,17
 1486 812 1486 812 1582 760 c 128,-1,18
 1678 708 1678 708 1731.5 614.5 c 128,-1,19
 1785 521 1785 521 1785 396 c 256,20,21
 1785 271 1785 271 1731.5 178 c 128,-1,22
 1678 85 1678 85 1582 34 c 128,-1,23
 1486 -17 1486 -17 1358 -17 c 2,24,-1
 1029 -17 l 2,25,26
 1004 -17 1004 -17 990.5 1.5 c 128,-1,27
 977 20 977 20 977 55 c 2,28,-1
 977 708 l 1,29,-1
 270 708 l 1,30,-1
 270 53 l 2,31,32
 270 -17 270 -17 218 -17 c 0,0,1
1082 88 m 1,33,-1
 1358 88 l 2,34,35
 1515 88 1515 88 1597.5 172.5 c 128,-1,36
 1680 257 1680 257 1680 398 c 256,37,38
 1680 539 1680 539 1597.5 623.5 c 128,-1,39
 1515 708 1515 708 1358 708 c 2,40,-1
 1082 708 l 1,41,-1
 1082 88 l 1,33,-1
EndSplineSet
EndChar

StartChar: uni0405
Encoding: 1029 1029 470
Width: 1184
Flags: W
LayerCount: 2
Fore
SplineSet
563 -19 m 2,0,1
 464 -19 464 -19 380.5 -5.5 c 128,-1,2
 297 8 297 8 238 47 c 0,3,4
 121 125 121 125 121 315 c 0,5,6
 121 369 121 369 132 388.5 c 128,-1,7
 143 408 143 408 172 408 c 0,8,9
 197 408 197 408 208.5 398 c 128,-1,10
 220 388 220 388 223.5 372.5 c 128,-1,11
 227 357 227 357 228 342 c 0,12,13
 234 261 234 261 245.5 207.5 c 128,-1,14
 257 154 257 154 299 127 c 0,15,16
 334 104 334 104 400.5 95 c 128,-1,17
 467 86 467 86 563 86 c 2,18,-1
 761 86 l 2,19,20
 828 86 828 86 872 118.5 c 128,-1,21
 916 151 916 151 937.5 203.5 c 128,-1,22
 959 256 959 256 959 318 c 0,23,24
 959 405 959 405 914.5 470.5 c 128,-1,25
 870 536 870 536 777 557 c 2,26,-1
 379 649 l 2,27,28
 245 680 245 680 183 751 c 128,-1,29
 121 822 121 822 121 954 c 0,30,31
 121 1107 121 1107 205.5 1199 c 128,-1,32
 290 1291 290 1291 470 1291 c 2,33,-1
 622 1291 l 2,34,35
 716 1291 716 1291 799 1279.5 c 128,-1,36
 882 1268 882 1268 942 1229 c 0,37,38
 998 1193 998 1193 1031 1125.5 c 128,-1,39
 1064 1058 1064 1058 1064 957 c 0,40,41
 1064 908 1064 908 1053 888 c 128,-1,42
 1042 868 1042 868 1012 868 c 0,43,44
 980 868 980 868 969.5 886.5 c 128,-1,45
 959 905 959 905 957 935 c 0,46,47
 953 998 953 998 948 1038 c 128,-1,48
 943 1078 943 1078 928 1103 c 128,-1,49
 913 1128 913 1128 879 1148 c 0,50,51
 837 1172 837 1172 782.5 1179 c 128,-1,52
 728 1186 728 1186 622 1186 c 2,53,-1
 428 1186 l 2,54,55
 325 1186 325 1186 275.5 1119.5 c 128,-1,56
 226 1053 226 1053 226 958 c 0,57,58
 226 880 226 880 263 825 c 128,-1,59
 300 770 300 770 391 750 c 2,60,-1
 808 657 l 2,61,62
 935 629 935 629 999.5 540 c 128,-1,63
 1064 451 1064 451 1064 317 c 0,64,65
 1064 219 1064 219 1028 143 c 128,-1,66
 992 67 992 67 917 24 c 128,-1,67
 842 -19 842 -19 725 -19 c 2,68,-1
 563 -19 l 2,0,1
EndSplineSet
EndChar

StartChar: uni0404
Encoding: 1028 1028 471
Width: 1169
Flags: W
LayerCount: 2
Fore
SplineSet
582 -3 m 2,0,1
 428 -3 428 -3 331 27.5 c 128,-1,2
 234 58 234 58 187.5 135.5 c 128,-1,3
 141 213 141 213 141 353 c 2,4,-1
 141 919 l 2,5,6
 141 1059 141 1059 187.5 1136.5 c 128,-1,7
 234 1214 234 1214 331 1244.5 c 128,-1,8
 428 1275 428 1275 582 1275 c 2,9,-1
 864 1275 l 2,10,11
 946 1275 946 1275 989.5 1246 c 128,-1,12
 1033 1217 1033 1217 1049 1171 c 128,-1,13
 1065 1125 1065 1125 1065 1075 c 0,14,15
 1065 980 1065 980 1012 980 c 0,16,17
 978 980 978 980 969 1006.5 c 128,-1,18
 960 1033 960 1033 960 1056 c 0,19,20
 958 1089 958 1089 952 1115 c 128,-1,21
 946 1141 946 1141 923.5 1155.5 c 128,-1,22
 901 1170 901 1170 850 1170 c 2,23,-1
 582 1170 l 2,24,25
 482 1170 482 1170 423 1163 c 128,-1,26
 364 1156 364 1156 321 1129 c 0,27,28
 282 1103 282 1103 264 1057.5 c 128,-1,29
 246 1012 246 1012 246 919 c 2,30,-1
 246 719 l 1,31,-1
 758 719 l 2,32,33
 829 719 829 719 829 668 c 0,34,35
 829 614 829 614 758 614 c 2,36,-1
 246 614 l 1,37,-1
 246 355 l 2,38,39
 246 276 246 276 261.5 225.5 c 128,-1,40
 277 175 277 175 320 146 c 0,41,42
 364 116 364 116 431.5 109 c 128,-1,43
 499 102 499 102 582 102 c 2,44,-1
 850 102 l 2,45,46
 901 102 901 102 923.5 117.5 c 128,-1,47
 946 133 946 133 952 159.5 c 128,-1,48
 958 186 958 186 960 218 c 0,49,50
 961 238 961 238 965.5 254.5 c 128,-1,51
 970 271 970 271 981.5 281 c 128,-1,52
 993 291 993 291 1014 291 c 0,53,54
 1043 291 1043 291 1054 269.5 c 128,-1,55
 1065 248 1065 248 1065 204 c 0,56,57
 1065 146 1065 146 1047.5 99 c 128,-1,58
 1030 52 1030 52 986 24.5 c 128,-1,59
 942 -3 942 -3 864 -3 c 2,60,-1
 582 -3 l 2,0,1
EndSplineSet
EndChar

StartChar: uni0406
Encoding: 1030 1030 473
Width: 435
Flags: W
LayerCount: 2
Fore
SplineSet
218 -17 m 0,0,1
 165 -17 165 -17 165 47 c 2,2,-1
 165 1224 l 2,3,4
 165 1289 165 1289 218 1289 c 0,5,6
 270 1289 270 1289 270 1224 c 2,7,-1
 270 47 l 2,8,9
 270 -17 270 -17 218 -17 c 0,0,1
EndSplineSet
EndChar

StartChar: uni0407
Encoding: 1031 1031 474
Width: 435
Flags: W
LayerCount: 2
Fore
SplineSet
218 -17 m 0,0,1
 165 -17 165 -17 165 47 c 2,2,-1
 165 1224 l 2,3,4
 165 1289 165 1289 218 1289 c 0,5,6
 270 1289 270 1289 270 1224 c 2,7,-1
 270 47 l 2,8,9
 270 -17 270 -17 218 -17 c 0,0,1
64 1409 m 256,10,11
 27 1409 27 1409 -5 1434 c 128,-1,12
 -37 1459 -37 1459 -37 1491 c 0,13,14
 -35 1524 -35 1524 -3.5 1549 c 128,-1,15
 28 1574 28 1574 64 1574 c 0,16,17
 101 1574 101 1574 134.5 1549 c 128,-1,18
 168 1524 168 1524 168 1492 c 0,19,20
 168 1459 168 1459 134.5 1434 c 128,-1,21
 101 1409 101 1409 64 1409 c 256,10,11
368 1409 m 256,22,23
 331 1409 331 1409 299 1434 c 128,-1,24
 267 1459 267 1459 267 1491 c 0,25,26
 269 1524 269 1524 300.5 1549 c 128,-1,27
 332 1574 332 1574 368 1574 c 0,28,29
 405 1574 405 1574 438.5 1549 c 128,-1,30
 472 1524 472 1524 472 1492 c 0,31,32
 472 1459 472 1459 438.5 1434 c 128,-1,33
 405 1409 405 1409 368 1409 c 256,22,23
EndSplineSet
EndChar

StartChar: uni0408
Encoding: 1032 1032 475
Width: 1091
Flags: W
LayerCount: 2
Fore
SplineSet
492 -19 m 0,0,1
 415 -19 415 -19 329 -8 c 128,-1,2
 243 3 243 3 182 44 c 256,3,4
 121 85 121 85 91.5 155.5 c 128,-1,5
 62 226 62 226 62 317 c 0,6,7
 62 369 62 369 73 388.5 c 128,-1,8
 84 408 84 408 113 408 c 0,9,10
 149 408 149 408 158 388 c 128,-1,11
 167 368 167 368 169 342 c 0,12,13
 174 266 174 266 184 216 c 128,-1,14
 194 166 194 166 226 138 c 128,-1,15
 258 110 258 110 327 98 c 128,-1,16
 396 86 396 86 518 86 c 0,17,18
 582 86 582 86 646.5 93.5 c 128,-1,19
 711 101 711 101 754 132 c 0,20,21
 797 160 797 160 812 210.5 c 128,-1,22
 827 261 827 261 827 339 c 2,23,-1
 827 1224 l 2,24,25
 827 1256 827 1256 840.5 1272.5 c 128,-1,26
 854 1289 854 1289 880 1289 c 0,27,28
 932 1289 932 1289 932 1224 c 2,29,-1
 932 337 l 2,30,31
 932 223 932 223 903.5 155.5 c 128,-1,32
 875 88 875 88 821 50 c 0,33,34
 765 10 765 10 685 -4.5 c 128,-1,35
 605 -19 605 -19 492 -19 c 0,0,1
EndSplineSet
EndChar

StartChar: uni040B
Encoding: 1035 1035 476
Width: 1394
Flags: W
LayerCount: 2
Fore
SplineSet
471 -17 m 0,0,1
 418 -17 418 -17 418 52 c 2,2,-1
 418 1170 l 1,3,-1
 116 1170 l 2,4,5
 83 1170 83 1170 66 1183.5 c 128,-1,6
 49 1197 49 1197 49 1223 c 0,7,8
 49 1248 49 1248 66 1261.5 c 128,-1,9
 83 1275 83 1275 116 1275 c 2,10,-1
 826 1275 l 2,11,12
 894 1275 894 1275 894 1223 c 0,13,14
 894 1170 894 1170 826 1170 c 2,15,-1
 525 1170 l 1,16,-1
 525 802 l 1,17,18
 591 874 591 874 670.5 903.5 c 128,-1,19
 750 933 750 933 878 933 c 0,20,21
 1014 933 1014 933 1103 900 c 128,-1,22
 1192 867 1192 867 1236.5 788.5 c 128,-1,23
 1281 710 1281 710 1281 575 c 2,24,-1
 1281 54 l 2,25,26
 1281 -17 1281 -17 1229 -17 c 0,27,28
 1176 -17 1176 -17 1176 53 c 2,29,-1
 1176 574 l 2,30,31
 1176 664 1176 664 1158.5 712 c 128,-1,32
 1141 760 1141 760 1101 786 c 0,33,34
 1061 813 1061 813 1003 820.5 c 128,-1,35
 945 828 945 828 900 828 c 0,36,37
 775 828 775 828 691.5 792.5 c 128,-1,38
 608 757 608 757 566.5 678 c 128,-1,39
 525 599 525 599 525 467 c 2,40,-1
 525 53 l 2,41,42
 525 -17 525 -17 471 -17 c 0,0,1
EndSplineSet
EndChar

StartChar: uni042E
Encoding: 1070 1070 477
Width: 1434
Flags: W
LayerCount: 2
Fore
SplineSet
849 -21 m 0,0,1
 712 -21 712 -21 607.5 37 c 128,-1,2
 503 95 503 95 443.5 202 c 128,-1,3
 384 309 384 309 384 456 c 2,4,-1
 384 594 l 1,5,-1
 270 594 l 1,6,-1
 270 46 l 2,7,8
 270 -17 270 -17 218 -17 c 0,9,10
 165 -17 165 -17 165 47 c 2,11,-1
 165 1224 l 2,12,13
 165 1289 165 1289 217 1289 c 0,14,15
 243 1289 243 1289 256.5 1272.5 c 128,-1,16
 270 1256 270 1256 270 1224 c 2,17,-1
 270 699 l 1,18,-1
 384 699 l 1,19,-1
 384 817 l 2,20,21
 384 964 384 964 443 1070.5 c 128,-1,22
 502 1177 502 1177 606.5 1235 c 128,-1,23
 711 1293 711 1293 847 1293 c 0,24,25
 982 1293 982 1293 1086 1235 c 128,-1,26
 1190 1177 1190 1177 1248.5 1070.5 c 128,-1,27
 1307 964 1307 964 1307 817 c 2,28,-1
 1307 456 l 2,29,30
 1307 311 1307 311 1250 204 c 128,-1,31
 1193 97 1193 97 1090 38 c 128,-1,32
 987 -21 987 -21 849 -21 c 0,0,1
848 84 m 256,33,34
 1015 84 1015 84 1108.5 183 c 128,-1,35
 1202 282 1202 282 1202 457 c 2,36,-1
 1202 815 l 2,37,38
 1202 989 1202 989 1111 1088.5 c 128,-1,39
 1020 1188 1020 1188 850 1188 c 0,40,41
 681 1188 681 1188 585.5 1089 c 128,-1,42
 490 990 490 990 490 815 c 2,43,-1
 490 457 l 2,44,45
 490 282 490 282 585.5 183 c 128,-1,46
 681 84 681 84 848 84 c 256,33,34
EndSplineSet
EndChar

StartChar: uni042F
Encoding: 1071 1071 478
Width: 1161
Flags: W
LayerCount: 2
Fore
SplineSet
87 -17 m 0,0,1
 12 -17 12 -17 12 37 c 0,2,3
 12 70 12 70 34 77.5 c 128,-1,4
 56 85 56 85 81 88 c 0,5,6
 145 95 145 95 179.5 135.5 c 128,-1,7
 214 176 214 176 226 217 c 2,8,-1
 286 440 l 2,9,10
 300 492 300 492 327.5 535.5 c 128,-1,11
 355 579 355 579 399 613 c 1,12,13
 284 649 284 649 227 728.5 c 128,-1,14
 170 808 170 808 170 930 c 0,15,16
 170 1102 170 1102 279 1188.5 c 128,-1,17
 388 1275 388 1275 602 1275 c 2,18,-1
 947 1275 l 2,19,20
 996 1275 996 1275 996 1203 c 2,21,-1
 996 47 l 2,22,23
 996 -17 996 -17 943 -17 c 256,24,25
 890 -17 890 -17 890 47 c 2,26,-1
 890 588 l 1,27,-1
 625 588 l 2,28,29
 530 588 530 588 471.5 549 c 128,-1,30
 413 510 413 510 391 427 c 2,31,-1
 337 224 l 2,32,33
 308 114 308 114 239 48.5 c 128,-1,34
 170 -17 170 -17 87 -17 c 0,0,1
602 693 m 2,35,-1
 890 693 l 1,36,-1
 890 1170 l 1,37,-1
 602 1170 l 2,38,39
 435 1170 435 1170 355.5 1114.5 c 128,-1,40
 276 1059 276 1059 276 931 c 0,41,42
 276 804 276 804 355 748.5 c 128,-1,43
 434 693 434 693 602 693 c 2,35,-1
EndSplineSet
EndChar

StartChar: uni0402
Encoding: 1026 1026 479
Width: 1395
Flags: W
LayerCount: 2
Fore
SplineSet
1081 -413 m 0,0,1
 1030 -413 1030 -413 1011.5 -398.5 c 128,-1,2
 993 -384 993 -384 993 -360 c 0,3,4
 993 -341 993 -341 1003 -330 c 128,-1,5
 1013 -319 1013 -319 1030.5 -314.5 c 128,-1,6
 1048 -310 1048 -310 1070 -308 c 0,7,8
 1104 -305 1104 -305 1127.5 -298 c 128,-1,9
 1151 -291 1151 -291 1163.5 -266.5 c 128,-1,10
 1176 -242 1176 -242 1176 -188 c 2,11,-1
 1176 574 l 2,12,13
 1176 667 1176 667 1151.5 723 c 128,-1,14
 1127 779 1127 779 1067 803.5 c 128,-1,15
 1007 828 1007 828 902 828 c 0,16,17
 775 828 775 828 691.5 792.5 c 128,-1,18
 608 757 608 757 566.5 678 c 128,-1,19
 525 599 525 599 525 467 c 2,20,-1
 525 53 l 2,21,22
 525 -17 525 -17 471 -17 c 0,23,24
 418 -17 418 -17 418 52 c 2,25,-1
 418 1170 l 1,26,-1
 116 1170 l 2,27,28
 83 1170 83 1170 66 1183.5 c 128,-1,29
 49 1197 49 1197 49 1223 c 0,30,31
 49 1248 49 1248 66 1261.5 c 128,-1,32
 83 1275 83 1275 116 1275 c 2,33,-1
 826 1275 l 2,34,35
 894 1275 894 1275 894 1223 c 0,36,37
 894 1170 894 1170 826 1170 c 2,38,-1
 525 1170 l 1,39,-1
 525 755 l 1,40,-1
 507 757 l 1,41,42
 551 826 551 826 602.5 864 c 128,-1,43
 654 902 654 902 722 917.5 c 128,-1,44
 790 933 790 933 886 933 c 0,45,46
 1036 933 1036 933 1122 898.5 c 128,-1,47
 1208 864 1208 864 1244.5 786 c 128,-1,48
 1281 708 1281 708 1281 575 c 2,49,-1
 1281 -154 l 2,50,51
 1281 -237 1281 -237 1267 -286.5 c 128,-1,52
 1253 -336 1253 -336 1227 -363 c 0,53,54
 1200 -391 1200 -391 1159.5 -402 c 128,-1,55
 1119 -413 1119 -413 1081 -413 c 0,0,1
EndSplineSet
EndChar

StartChar: uni0462
Encoding: 1122 1122 480
Width: 1292
Flags: W
LayerCount: 2
Fore
SplineSet
462 -17 m 2,0,1
 410 -17 410 -17 410 54 c 2,2,-1
 410 916 l 1,3,-1
 123 916 l 2,4,5
 57 916 57 916 57 968 c 256,6,7
 57 1020 57 1020 123 1020 c 2,8,-1
 410 1020 l 1,9,-1
 410 1218 l 2,10,11
 410 1289 410 1289 462 1289 c 0,12,13
 517 1289 517 1289 517 1218 c 2,14,-1
 517 1021 l 1,15,-1
 813 1021 l 2,16,17
 846 1021 846 1021 863.5 1008 c 128,-1,18
 881 995 881 995 881 969 c 0,19,20
 881 918 881 918 813 918 c 2,21,-1
 517 918 l 1,22,-1
 517 813 l 1,23,-1
 794 813 l 2,24,25
 922 812 922 812 1018.5 760 c 128,-1,26
 1115 708 1115 708 1169 614.5 c 128,-1,27
 1223 521 1223 521 1223 396 c 256,28,29
 1223 271 1223 271 1169 178 c 128,-1,30
 1115 85 1115 85 1018.5 34 c 128,-1,31
 922 -17 922 -17 794 -17 c 2,32,-1
 462 -17 l 2,0,1
517 88 m 1,33,-1
 794 88 l 2,34,35
 952 88 952 88 1035 172.5 c 128,-1,36
 1118 257 1118 257 1118 397 c 0,37,38
 1118 539 1118 539 1035 623.5 c 128,-1,39
 952 708 952 708 793 708 c 2,40,-1
 517 708 l 1,41,-1
 517 88 l 1,33,-1
EndSplineSet
EndChar

StartChar: uni0472
Encoding: 1138 1138 481
Width: 1177
Flags: W
LayerCount: 2
Fore
SplineSet
589 -21 m 0,0,1
 452 -21 452 -21 348 37 c 128,-1,2
 244 95 244 95 185.5 201.5 c 128,-1,3
 127 308 127 308 127 456 c 2,4,-1
 127 817 l 2,5,6
 127 964 127 964 185.5 1071 c 128,-1,7
 244 1178 244 1178 348 1235.5 c 128,-1,8
 452 1293 452 1293 589 1293 c 0,9,10
 725 1293 725 1293 829 1235 c 128,-1,11
 933 1177 933 1177 992 1070.5 c 128,-1,12
 1051 964 1051 964 1051 817 c 2,13,-1
 1051 456 l 2,14,15
 1051 308 1051 308 992 201.5 c 128,-1,16
 933 95 933 95 829 37 c 128,-1,17
 725 -21 725 -21 589 -21 c 0,0,1
589 84 m 0,18,19
 763 84 763 84 854.5 189 c 128,-1,20
 946 294 946 294 946 482 c 2,21,-1
 946 637 l 1,22,-1
 978 615 l 1,23,24
 938 582 938 582 899.5 566 c 128,-1,25
 861 550 861 550 817 550 c 0,26,27
 774 550 774 550 711.5 562 c 128,-1,28
 649 574 649 574 581.5 590 c 128,-1,29
 514 606 514 606 457 618 c 128,-1,30
 400 630 400 630 365 630 c 0,31,32
 326 630 326 630 281.5 608 c 128,-1,33
 237 586 237 586 191 544 c 1,34,-1
 232 616 l 1,35,-1
 232 458 l 2,36,37
 232 282 232 282 326 183 c 128,-1,38
 420 84 420 84 589 84 c 0,18,19
232 647 m 1,39,-1
 203 673 l 1,40,41
 238 705 238 705 276.5 720 c 128,-1,42
 315 735 315 735 357 735 c 0,43,44
 402 735 402 735 463.5 723 c 128,-1,45
 525 711 525 711 590 695 c 128,-1,46
 655 679 655 679 712 667 c 128,-1,47
 769 655 769 655 805 655 c 0,48,49
 840 655 840 655 884 674 c 128,-1,50
 928 693 928 693 980 739 c 1,51,-1
 946 678 l 1,52,-1
 946 815 l 2,53,54
 946 991 946 991 851.5 1089.5 c 128,-1,55
 757 1188 757 1188 589 1188 c 0,56,57
 420 1188 420 1188 326 1089.5 c 128,-1,58
 232 991 232 991 232 815 c 2,59,-1
 232 647 l 1,39,-1
EndSplineSet
EndChar

StartChar: uni0430
Encoding: 1072 1072 482
Width: 1098
Flags: W
LayerCount: 2
Fore
SplineSet
905 -17 m 0,0,1
 879 -17 879 -17 869 2 c 128,-1,2
 859 21 859 21 857.5 67.5 c 128,-1,3
 856 114 856 114 855 197 c 1,4,-1
 871 159 l 1,5,6
 815 75 815 75 727 36 c 128,-1,7
 639 -3 639 -3 518 -3 c 2,8,-1
 332 -3 l 2,9,10
 237 -3 237 -3 177.5 63 c 128,-1,11
 118 129 118 129 118 267 c 0,12,13
 118 377 118 377 155 441 c 128,-1,14
 192 505 192 505 255.5 537 c 128,-1,15
 319 569 319 569 397.5 579 c 128,-1,16
 476 589 476 589 559 589 c 2,17,-1
 900 589 l 1,18,-1
 853 543 l 1,19,-1
 853 705 l 2,20,21
 853 769 853 769 829.5 794.5 c 128,-1,22
 806 820 806 820 743 820 c 2,23,-1
 461 820 l 2,24,25
 376 820 376 820 323.5 807.5 c 128,-1,26
 271 795 271 795 247 769 c 128,-1,27
 223 743 223 743 223 702 c 0,28,29
 222 670 222 670 212.5 653 c 128,-1,30
 203 636 203 636 170 636 c 0,31,32
 118 636 118 636 118 711 c 0,33,34
 118 818 118 818 206.5 871.5 c 128,-1,35
 295 925 295 925 447 925 c 2,36,-1
 757 925 l 2,37,38
 872 925 872 925 915 869.5 c 128,-1,39
 958 814 958 814 958 671 c 2,40,-1
 958 52 l 2,41,42
 958 -17 958 -17 905 -17 c 0,0,1
334 100 m 2,43,-1
 518 100 l 2,44,45
 702 100 702 100 779.5 204.5 c 128,-1,46
 857 309 857 309 853 514 c 1,47,-1
 884 486 l 1,48,-1
 559 486 l 2,49,50
 448 486 448 486 373 471.5 c 128,-1,51
 298 457 298 457 260.5 412 c 128,-1,52
 223 367 223 367 223 276 c 0,53,54
 223 182 223 182 256.5 141 c 128,-1,55
 290 100 290 100 334 100 c 2,43,-1
EndSplineSet
EndChar

StartChar: uni0431
Encoding: 1073 1073 483
Width: 1199
Flags: W
LayerCount: 2
Fore
SplineSet
579 -3 m 2,0,1
 426 -3 426 -3 329 27.5 c 128,-1,2
 232 58 232 58 186 135.5 c 128,-1,3
 140 213 140 213 140 353 c 2,4,-1
 140 916 l 2,5,6
 140 1028 140 1028 181.5 1103 c 128,-1,7
 223 1178 223 1178 321 1218.5 c 128,-1,8
 419 1259 419 1259 588 1267 c 0,9,10
 647 1271 647 1271 728.5 1273 c 128,-1,11
 810 1275 810 1275 907 1275 c 0,12,13
 980 1275 980 1275 980 1221 c 0,14,15
 980 1196 980 1196 962.5 1183 c 128,-1,16
 945 1170 945 1170 905 1170 c 0,17,18
 803 1169 803 1169 740.5 1169 c 128,-1,19
 678 1169 678 1169 642 1167.5 c 128,-1,20
 606 1166 606 1166 582 1164.5 c 128,-1,21
 558 1163 558 1163 531 1160 c 0,22,23
 435 1148 435 1148 372 1125 c 128,-1,24
 309 1102 309 1102 278 1055 c 128,-1,25
 247 1008 247 1008 247 925 c 1,26,-1
 648 925 l 2,27,28
 797 925 797 925 892.5 894.5 c 128,-1,29
 988 864 988 864 1033.5 786.5 c 128,-1,30
 1079 709 1079 709 1079 571 c 2,31,-1
 1079 352 l 2,32,33
 1079 212 1079 212 1033 135 c 128,-1,34
 987 58 987 58 889.5 27.5 c 128,-1,35
 792 -3 792 -3 639 -3 c 2,36,-1
 579 -3 l 2,0,1
579 102 m 2,37,-1
 639 102 l 2,38,39
 770 102 770 102 843 120.5 c 128,-1,40
 916 139 916 139 945 193.5 c 128,-1,41
 974 248 974 248 974 353 c 2,42,-1
 974 569 l 2,43,44
 974 680 974 680 943.5 733 c 128,-1,45
 913 786 913 786 841.5 803 c 128,-1,46
 770 820 770 820 648 820 c 2,47,-1
 245 820 l 1,48,-1
 245 353 l 2,49,50
 245 247 245 247 274 193 c 128,-1,51
 303 139 303 139 376 120.5 c 128,-1,52
 449 102 449 102 579 102 c 2,37,-1
EndSplineSet
EndChar

StartChar: uni0432
Encoding: 1074 1074 484
Width: 1196
Flags: W
LayerCount: 2
Fore
SplineSet
148 -3 m 1,0,-1
 148 925 l 1,1,-1
 754 925 l 2,2,3
 891 925 891 925 981.5 862 c 128,-1,4
 1072 799 1072 799 1072 671 c 0,5,6
 1072 586 1072 586 1040 543 c 128,-1,7
 1008 500 1008 500 951 474 c 1,8,9
 1072 399 1072 399 1072 261 c 0,10,11
 1072 170 1072 170 1030.5 111.5 c 128,-1,12
 989 53 989 53 917 25 c 128,-1,13
 845 -3 845 -3 754 -3 c 2,14,-1
 148 -3 l 1,0,-1
253 102 m 1,15,-1
 740 102 l 2,16,17
 967 102 967 102 967 230 c 0,18,19
 967 329 967 329 913.5 376.5 c 128,-1,20
 860 424 860 424 748 424 c 2,21,-1
 253 424 l 1,22,-1
 253 102 l 1,15,-1
253 529 m 1,23,-1
 748 529 l 2,24,25
 864 529 864 529 916.5 562 c 128,-1,26
 969 595 969 595 969 693 c 0,27,28
 969 820 969 820 740 820 c 2,29,-1
 253 820 l 1,30,-1
 253 529 l 1,23,-1
EndSplineSet
EndChar

StartChar: uni0433
Encoding: 1075 1075 485
Width: 947
Flags: W
LayerCount: 2
Fore
SplineSet
847 820 m 2,0,-1
 358 820 l 2,1,2
 295 820 295 820 271.5 794 c 128,-1,3
 248 768 248 768 248 702 c 2,4,-1
 248 52 l 2,5,6
 248 -17 248 -17 196 -17 c 0,7,8
 143 -17 143 -17 143 52 c 2,9,-1
 143 671 l 2,10,11
 143 814 143 814 186.5 869.5 c 128,-1,12
 230 925 230 925 344 925 c 2,13,-1
 847 925 l 2,14,15
 917 925 917 925 917 873 c 0,16,17
 917 820 917 820 847 820 c 2,0,-1
EndSplineSet
EndChar

StartChar: uni0453
Encoding: 1107 1107 486
Width: 947
Flags: W
LayerCount: 2
Fore
SplineSet
196 -17 m 0,0,1
 143 -17 143 -17 143 52 c 2,2,-1
 143 671 l 2,3,4
 143 814 143 814 186.5 869.5 c 128,-1,5
 230 925 230 925 344 925 c 2,6,-1
 847 925 l 2,7,8
 917 925 917 925 917 873 c 0,9,10
 917 820 917 820 847 820 c 2,11,-1
 358 820 l 2,12,13
 295 820 295 820 271.5 794 c 128,-1,14
 248 768 248 768 248 702 c 2,15,-1
 248 52 l 2,16,17
 248 -17 248 -17 196 -17 c 0,0,1
520 1010 m 256,18,19
 499 1010 499 1010 483 1025 c 128,-1,20
 467 1040 467 1040 467 1063 c 0,21,22
 467 1073 467 1073 471.5 1084.5 c 128,-1,23
 476 1096 476 1096 485 1107 c 2,24,-1
 677 1337 l 2,25,26
 703 1367 703 1367 725 1367 c 256,27,28
 747 1367 747 1367 762.5 1352 c 128,-1,29
 778 1337 778 1337 778 1314 c 256,30,31
 778 1291 778 1291 759 1270 c 2,32,-1
 567 1040 l 2,33,34
 541 1010 541 1010 520 1010 c 256,18,19
EndSplineSet
EndChar

StartChar: uni0491
Encoding: 1169 1169 487
Width: 955
Flags: W
LayerCount: 2
Fore
SplineSet
196 -17 m 0,0,1
 143 -17 143 -17 143 52 c 2,2,-1
 143 671 l 2,3,4
 143 814 143 814 186.5 869.5 c 128,-1,5
 230 925 230 925 344 925 c 2,6,-1
 812 925 l 1,7,-1
 812 1079 l 2,8,9
 812 1149 812 1149 865 1149 c 0,10,11
 917 1149 917 1149 917 1079 c 2,12,-1
 917 820 l 1,13,-1
 358 820 l 2,14,15
 295 820 295 820 271.5 794 c 128,-1,16
 248 768 248 768 248 702 c 2,17,-1
 248 52 l 2,18,19
 248 -17 248 -17 196 -17 c 0,0,1
EndSplineSet
EndChar

StartChar: uni0434
Encoding: 1076 1076 488
Width: 1103
Flags: W
LayerCount: 2
Fore
SplineSet
73 -187 m 0,0,1
 20 -187 20 -187 20 -116 c 2,2,-1
 20 -15 l 2,3,4
 20 103 20 103 126 102 c 2,5,-1
 187 102 l 1,6,-1
 127 77 l 1,7,8
 342 421 342 421 342 925 c 1,9,-1
 868 925 l 1,10,-1
 868 102 l 1,11,-1
 954 102 l 2,12,13
 1056 102 1056 102 1056 -15 c 2,14,-1
 1056 -116 l 2,15,16
 1056 -187 1056 -187 1004 -187 c 0,17,18
 951 -187 951 -187 951 -116 c 2,19,-1
 951 -3 l 1,20,-1
 125 -3 l 1,21,-1
 125 -116 l 2,22,23
 125 -187 125 -187 73 -187 c 0,0,1
259 102 m 1,24,-1
 762 102 l 1,25,-1
 762 820 l 1,26,-1
 449 820 l 1,27,28
 446 425 446 425 259 102 c 1,24,-1
EndSplineSet
EndChar

StartChar: uni0435
Encoding: 1077 1077 489
Width: 1175
Flags: W
LayerCount: 2
Fore
SplineSet
562 -3 m 2,0,1
 408 -3 408 -3 311 27.5 c 128,-1,2
 214 58 214 58 167.5 135 c 128,-1,3
 121 212 121 212 121 352 c 2,4,-1
 121 571 l 2,5,6
 121 710 121 710 167.5 787 c 128,-1,7
 214 864 214 864 311 894.5 c 128,-1,8
 408 925 408 925 562 925 c 2,9,-1
 620 925 l 2,10,11
 773 925 773 925 870.5 894.5 c 128,-1,12
 968 864 968 864 1014 787 c 128,-1,13
 1060 710 1060 710 1060 571 c 2,14,-1
 1060 490 l 1,15,-1
 226 490 l 1,16,-1
 226 353 l 2,17,18
 226 247 226 247 255 193 c 128,-1,19
 284 139 284 139 357.5 120.5 c 128,-1,20
 431 102 431 102 562 102 c 2,21,-1
 840 102 l 2,22,23
 903 102 903 102 926.5 129 c 128,-1,24
 950 156 950 156 950 218 c 0,25,26
 950 255 950 255 965.5 273.5 c 128,-1,27
 981 292 981 292 1002 292 c 0,28,29
 1025 292 1025 292 1040 274 c 128,-1,30
 1055 256 1055 256 1055 223 c 0,31,32
 1055 157 1055 157 1039 105.5 c 128,-1,33
 1023 54 1023 54 980 25.5 c 128,-1,34
 937 -3 937 -3 854 -3 c 2,35,-1
 562 -3 l 2,0,1
226 595 m 1,36,-1
 954 595 l 1,37,38
 952 721 952 721 893 768 c 0,39,40
 856 799 856 799 788.5 809.5 c 128,-1,41
 721 820 721 820 620 820 c 2,42,-1
 562 820 l 2,43,44
 462 820 462 820 396 810.5 c 128,-1,45
 330 801 330 801 292 774 c 0,46,47
 228 728 228 728 226 595 c 1,36,-1
EndSplineSet
EndChar

StartChar: uni0450
Encoding: 1104 1104 490
Width: 1175
Flags: W
LayerCount: 2
Fore
SplineSet
632 1010 m 256,0,1
 611 1010 611 1010 584 1040 c 2,2,-1
 392 1270 l 2,3,4
 374 1291 374 1291 374 1314 c 256,5,6
 374 1337 374 1337 389.5 1352 c 128,-1,7
 405 1367 405 1367 426 1367 c 0,8,9
 448 1367 448 1367 474 1337 c 2,10,-1
 667 1106 l 2,11,12
 685 1084 685 1084 685 1063 c 0,13,14
 685 1041 685 1041 669 1025.5 c 128,-1,15
 653 1010 653 1010 632 1010 c 256,0,1
562 -3 m 2,16,17
 408 -3 408 -3 311 27.5 c 128,-1,18
 214 58 214 58 167.5 135 c 128,-1,19
 121 212 121 212 121 352 c 2,20,-1
 121 571 l 2,21,22
 121 710 121 710 167.5 787 c 128,-1,23
 214 864 214 864 311 894.5 c 128,-1,24
 408 925 408 925 562 925 c 2,25,-1
 620 925 l 2,26,27
 773 925 773 925 870.5 894.5 c 128,-1,28
 968 864 968 864 1014 787 c 128,-1,29
 1060 710 1060 710 1060 571 c 2,30,-1
 1060 490 l 1,31,-1
 226 490 l 1,32,-1
 226 353 l 2,33,34
 226 247 226 247 255 193 c 128,-1,35
 284 139 284 139 357.5 120.5 c 128,-1,36
 431 102 431 102 562 102 c 2,37,-1
 840 102 l 2,38,39
 903 102 903 102 926.5 129 c 128,-1,40
 950 156 950 156 950 218 c 0,41,42
 950 255 950 255 965.5 273.5 c 128,-1,43
 981 292 981 292 1002 292 c 0,44,45
 1025 292 1025 292 1040 274 c 128,-1,46
 1055 256 1055 256 1055 223 c 0,47,48
 1055 157 1055 157 1039 105.5 c 128,-1,49
 1023 54 1023 54 980 25.5 c 128,-1,50
 937 -3 937 -3 854 -3 c 2,51,-1
 562 -3 l 2,16,17
226 595 m 1,52,-1
 954 595 l 1,53,54
 952 721 952 721 893 768 c 0,55,56
 856 799 856 799 788.5 809.5 c 128,-1,57
 721 820 721 820 620 820 c 2,58,-1
 562 820 l 2,59,60
 462 820 462 820 396 810.5 c 128,-1,61
 330 801 330 801 292 774 c 0,62,63
 228 728 228 728 226 595 c 1,52,-1
EndSplineSet
EndChar

StartChar: uni0451
Encoding: 1105 1105 491
Width: 1175
Flags: W
LayerCount: 2
Fore
SplineSet
742 1041 m 256,0,1
 705 1041 705 1041 672.5 1066 c 128,-1,2
 640 1091 640 1091 641 1124 c 0,3,4
 643 1156 643 1156 674.5 1181 c 128,-1,5
 706 1206 706 1206 742 1206 c 0,6,7
 779 1206 779 1206 812.5 1181 c 128,-1,8
 846 1156 846 1156 846 1124 c 256,9,10
 846 1092 846 1092 812.5 1066.5 c 128,-1,11
 779 1041 779 1041 742 1041 c 256,0,1
438 1041 m 256,12,13
 401 1041 401 1041 368.5 1066 c 128,-1,14
 336 1091 336 1091 337 1124 c 0,15,16
 339 1156 339 1156 370.5 1181 c 128,-1,17
 402 1206 402 1206 438 1206 c 0,18,19
 475 1206 475 1206 508.5 1181 c 128,-1,20
 542 1156 542 1156 542 1124 c 256,21,22
 542 1092 542 1092 508.5 1066.5 c 128,-1,23
 475 1041 475 1041 438 1041 c 256,12,13
562 -3 m 2,24,25
 408 -3 408 -3 311 27.5 c 128,-1,26
 214 58 214 58 167.5 135 c 128,-1,27
 121 212 121 212 121 352 c 2,28,-1
 121 571 l 2,29,30
 121 710 121 710 167.5 787 c 128,-1,31
 214 864 214 864 311 894.5 c 128,-1,32
 408 925 408 925 562 925 c 2,33,-1
 620 925 l 2,34,35
 773 925 773 925 870.5 894.5 c 128,-1,36
 968 864 968 864 1014 787 c 128,-1,37
 1060 710 1060 710 1060 571 c 2,38,-1
 1060 490 l 1,39,-1
 226 490 l 1,40,-1
 226 353 l 2,41,42
 226 247 226 247 255 193 c 128,-1,43
 284 139 284 139 357.5 120.5 c 128,-1,44
 431 102 431 102 562 102 c 2,45,-1
 840 102 l 2,46,47
 903 102 903 102 926.5 129 c 128,-1,48
 950 156 950 156 950 218 c 0,49,50
 950 255 950 255 965.5 273.5 c 128,-1,51
 981 292 981 292 1002 292 c 0,52,53
 1025 292 1025 292 1040 274 c 128,-1,54
 1055 256 1055 256 1055 223 c 0,55,56
 1055 157 1055 157 1039 105.5 c 128,-1,57
 1023 54 1023 54 980 25.5 c 128,-1,58
 937 -3 937 -3 854 -3 c 2,59,-1
 562 -3 l 2,24,25
226 595 m 1,60,-1
 954 595 l 1,61,62
 952 721 952 721 893 768 c 0,63,64
 856 799 856 799 788.5 809.5 c 128,-1,65
 721 820 721 820 620 820 c 2,66,-1
 562 820 l 2,67,68
 462 820 462 820 396 810.5 c 128,-1,69
 330 801 330 801 292 774 c 0,70,71
 228 728 228 728 226 595 c 1,60,-1
EndSplineSet
EndChar

StartChar: uni0436
Encoding: 1078 1078 492
Width: 1421
Flags: W
LayerCount: 2
Fore
SplineSet
147 -17 m 0,0,1
 75 -17 75 -17 75 36 c 0,2,3
 75 88 75 88 141 88 c 0,4,5
 185 88 185 88 205.5 129.5 c 128,-1,6
 226 171 226 171 237 231 c 0,7,8
 251 302 251 302 298.5 371 c 128,-1,9
 346 440 346 440 434 475 c 1,10,11
 390 528 390 528 318 700 c 0,12,13
 295 754 295 754 250.5 795 c 128,-1,14
 206 836 206 836 150 836 c 0,15,16
 114 836 114 836 94.5 849.5 c 128,-1,17
 75 863 75 863 75 889 c 0,18,19
 75 941 75 941 155 941 c 0,20,21
 230 941 230 941 293 900.5 c 128,-1,22
 356 860 356 860 390 798 c 0,23,24
 428 730 428 730 457 655 c 0,25,26
 479 596 479 596 505.5 555.5 c 128,-1,27
 532 515 532 515 566 515 c 2,28,-1
 657 515 l 1,29,-1
 657 874 l 2,30,31
 657 906 657 906 671 922.5 c 128,-1,32
 685 939 685 939 712 939 c 0,33,34
 737 939 737 939 751 922.5 c 128,-1,35
 765 906 765 906 764 874 c 2,36,-1
 764 515 l 1,37,-1
 855 515 l 2,38,39
 890 515 890 515 916 555 c 128,-1,40
 942 595 942 595 964 655 c 0,41,42
 987 715 987 715 1017.5 775 c 128,-1,43
 1048 835 1048 835 1103 881 c 0,44,45
 1136 911 1136 911 1178.5 926 c 128,-1,46
 1221 941 1221 941 1268 941 c 0,47,48
 1347 941 1347 941 1347 889 c 0,49,50
 1347 836 1347 836 1274 836 c 0,51,52
 1217 836 1217 836 1171.5 795.5 c 128,-1,53
 1126 755 1126 755 1103 701 c 0,54,55
 1032 530 1032 530 987 476 c 1,56,57
 1076 440 1076 440 1124 371 c 128,-1,58
 1172 302 1172 302 1185 231 c 256,59,60
 1198 160 1198 160 1219.5 124 c 128,-1,61
 1241 88 1241 88 1276 88 c 0,62,63
 1310 88 1310 88 1328.5 74 c 128,-1,64
 1347 60 1347 60 1347 36 c 0,65,66
 1347 8 1347 8 1326.5 -4.5 c 128,-1,67
 1306 -17 1306 -17 1268 -17 c 0,68,69
 1203 -17 1203 -17 1164 23 c 128,-1,70
 1125 63 1125 63 1108 121 c 0,71,72
 1090 179 1090 179 1066.5 245.5 c 128,-1,73
 1043 312 1043 312 975 361 c 0,74,75
 906 414 906 414 764 417 c 1,76,-1
 764 48 l 2,77,78
 764 17 764 17 750 0 c 128,-1,79
 736 -17 736 -17 710 -17 c 0,80,81
 685 -17 685 -17 671 0 c 128,-1,82
 657 17 657 17 657 48 c 2,83,-1
 657 417 l 1,84,85
 578 416 578 416 522 398.5 c 128,-1,86
 466 381 466 381 428 353 c 0,87,88
 393 325 393 325 374 288.5 c 128,-1,89
 355 252 355 252 342 208 c 128,-1,90
 329 164 329 164 312 115 c 0,91,92
 293 51 293 51 253 18 c 128,-1,93
 213 -15 213 -15 147 -17 c 0,0,1
EndSplineSet
EndChar

StartChar: uni0437
Encoding: 1079 1079 493
Width: 1163
Flags: W
LayerCount: 2
Fore
SplineSet
315 -3 m 2,0,1
 201 -3 201 -3 158 54 c 128,-1,2
 115 111 115 111 115 256 c 0,3,4
 115 326 115 326 167 326 c 0,5,6
 220 326 220 326 220 256 c 2,7,-1
 220 220 l 2,8,9
 220 154 220 154 243.5 128 c 128,-1,10
 267 102 267 102 329 102 c 2,11,-1
 695 102 l 2,12,13
 934 102 934 102 934 227 c 0,14,15
 934 328 934 328 878 376 c 128,-1,16
 822 424 822 424 703 424 c 2,17,-1
 531 424 l 2,18,19
 459 424 459 424 459 472 c 0,20,21
 459 529 459 529 531 529 c 2,22,-1
 703 529 l 2,23,24
 785 529 785 529 836 543 c 128,-1,25
 887 557 887 557 911.5 593.5 c 128,-1,26
 936 630 936 630 936 696 c 0,27,28
 936 820 936 820 695 820 c 2,29,-1
 329 820 l 2,30,31
 267 820 267 820 243.5 794.5 c 128,-1,32
 220 769 220 769 220 703 c 2,33,-1
 220 667 l 2,34,35
 220 596 220 596 167 596 c 0,36,37
 115 596 115 596 115 667 c 0,38,39
 115 812 115 812 158 868.5 c 128,-1,40
 201 925 201 925 315 925 c 2,41,-1
 709 925 l 2,42,43
 855 925 855 925 947 863 c 128,-1,44
 1039 801 1039 801 1039 671 c 0,45,46
 1039 586 1039 586 1007 543 c 128,-1,47
 975 500 975 500 918 474 c 1,48,49
 1039 399 1039 399 1039 260 c 0,50,51
 1039 122 1039 122 947 59.5 c 128,-1,52
 855 -3 855 -3 709 -3 c 2,53,-1
 315 -3 l 2,0,1
EndSplineSet
EndChar

StartChar: uni0438
Encoding: 1080 1080 494
Width: 1198
Flags: W
LayerCount: 2
Fore
SplineSet
999 -17 m 0,0,1
 947 -17 947 -17 947 56 c 2,2,-1
 947 779 l 1,3,-1
 260 -3 l 1,4,-1
 148 -3 l 1,5,-1
 148 868 l 2,6,7
 148 939 148 939 200 939 c 0,8,9
 253 939 253 939 253 867 c 2,10,-1
 253 136 l 1,11,-1
 945 925 l 1,12,-1
 1052 925 l 1,13,-1
 1052 54 l 2,14,15
 1052 -17 1052 -17 999 -17 c 0,0,1
EndSplineSet
EndChar

StartChar: uni0439
Encoding: 1081 1081 495
Width: 1198
Flags: W
LayerCount: 2
Fore
SplineSet
999 -17 m 0,0,1
 947 -17 947 -17 947 56 c 2,2,-1
 947 779 l 1,3,-1
 260 -3 l 1,4,-1
 148 -3 l 1,5,-1
 148 868 l 2,6,7
 148 939 148 939 200 939 c 0,8,9
 253 939 253 939 253 867 c 2,10,-1
 253 136 l 1,11,-1
 945 925 l 1,12,-1
 1052 925 l 1,13,-1
 1052 54 l 2,14,15
 1052 -17 1052 -17 999 -17 c 0,0,1
491 999 m 2,16,17
 389 999 389 999 349 1050.5 c 128,-1,18
 309 1102 309 1102 309 1233 c 2,19,-1
 309 1288 l 1,20,-1
 414 1288 l 1,21,-1
 414 1201 l 2,22,23
 414 1144 414 1144 432.5 1124 c 128,-1,24
 451 1104 451 1104 507 1104 c 2,25,-1
 711 1104 l 2,26,27
 768 1104 768 1104 785.5 1124 c 128,-1,28
 803 1144 803 1144 803 1201 c 2,29,-1
 803 1288 l 1,30,-1
 908 1288 l 1,31,-1
 908 1233 l 2,32,33
 908 1101 908 1101 869.5 1050 c 128,-1,34
 831 999 831 999 725 999 c 2,35,-1
 491 999 l 2,16,17
EndSplineSet
EndChar

StartChar: uni043A
Encoding: 1082 1082 496
Width: 1111
Flags: W
LayerCount: 2
Fore
SplineSet
198 -17 m 256,0,1
 173 -17 173 -17 159.5 -0.5 c 128,-1,2
 146 16 146 16 146 47 c 2,3,-1
 146 874 l 2,4,5
 146 906 146 906 159.5 922.5 c 128,-1,6
 173 939 173 939 199 939 c 0,7,8
 224 939 224 939 237.5 922.5 c 128,-1,9
 251 906 251 906 251 874 c 2,10,-1
 251 515 l 1,11,-1
 465 515 l 2,12,13
 501 515 501 515 536 556.5 c 128,-1,14
 571 598 571 598 612 665 c 0,15,16
 646 720 646 720 691 786 c 128,-1,17
 736 852 736 852 811 897 c 0,18,19
 882 941 882 941 964 941 c 0,20,21
 1002 941 1002 941 1023 927.5 c 128,-1,22
 1044 914 1044 914 1044 889 c 0,23,24
 1044 856 1044 856 1019 846 c 128,-1,25
 994 836 994 836 971 836 c 0,26,27
 902 833 902 833 851.5 789.5 c 128,-1,28
 801 746 801 746 758 680 c 0,29,30
 721 620 721 620 698 583.5 c 128,-1,31
 675 547 675 547 655.5 523 c 128,-1,32
 636 499 636 499 612 474 c 1,33,34
 714 433 714 433 768.5 371.5 c 128,-1,35
 823 310 823 310 850 241 c 0,36,37
 881 164 881 164 904.5 128 c 128,-1,38
 928 92 928 92 971 88 c 0,39,40
 1001 87 1001 87 1022.5 76.5 c 128,-1,41
 1044 66 1044 66 1044 37 c 0,42,43
 1044 -17 1044 -17 968 -17 c 0,44,45
 898 -17 898 -17 852.5 22 c 128,-1,46
 807 61 807 61 778 120 c 0,47,48
 761 152 761 152 741 194.5 c 128,-1,49
 721 237 721 237 687.5 280.5 c 128,-1,50
 654 324 654 324 597 357 c 0,51,52
 515 410 515 410 362 410 c 2,53,-1
 251 410 l 1,54,-1
 251 46 l 2,55,56
 251 16 251 16 237 -0.5 c 128,-1,57
 223 -17 223 -17 198 -17 c 256,0,1
EndSplineSet
EndChar

StartChar: uni045C
Encoding: 1116 1116 497
Width: 1111
Flags: W
LayerCount: 2
Fore
SplineSet
498 1010 m 0,0,1
 478 1010 478 1010 461.5 1025 c 128,-1,2
 445 1040 445 1040 445 1063 c 0,3,4
 445 1073 445 1073 450 1084.5 c 128,-1,5
 455 1096 455 1096 463 1107 c 2,6,-1
 655 1337 l 2,7,8
 682 1367 682 1367 704 1367 c 0,9,10
 725 1367 725 1367 740.5 1352 c 128,-1,11
 756 1337 756 1337 756 1314 c 256,12,13
 756 1291 756 1291 738 1270 c 2,14,-1
 546 1040 l 2,15,16
 520 1010 520 1010 498 1010 c 0,0,1
198 -17 m 256,17,18
 173 -17 173 -17 159.5 -0.5 c 128,-1,19
 146 16 146 16 146 47 c 2,20,-1
 146 874 l 2,21,22
 146 906 146 906 159.5 922.5 c 128,-1,23
 173 939 173 939 199 939 c 0,24,25
 224 939 224 939 237.5 922.5 c 128,-1,26
 251 906 251 906 251 874 c 2,27,-1
 251 515 l 1,28,-1
 465 515 l 2,29,30
 501 515 501 515 536 556.5 c 128,-1,31
 571 598 571 598 612 665 c 0,32,33
 646 720 646 720 691 786 c 128,-1,34
 736 852 736 852 811 897 c 0,35,36
 882 941 882 941 964 941 c 0,37,38
 1002 941 1002 941 1023 927.5 c 128,-1,39
 1044 914 1044 914 1044 889 c 0,40,41
 1044 856 1044 856 1019 846 c 128,-1,42
 994 836 994 836 971 836 c 0,43,44
 902 833 902 833 851.5 789.5 c 128,-1,45
 801 746 801 746 758 680 c 0,46,47
 721 620 721 620 698 583.5 c 128,-1,48
 675 547 675 547 655.5 523 c 128,-1,49
 636 499 636 499 612 474 c 1,50,51
 714 433 714 433 768.5 371.5 c 128,-1,52
 823 310 823 310 850 241 c 0,53,54
 881 164 881 164 904.5 128 c 128,-1,55
 928 92 928 92 971 88 c 0,56,57
 1001 87 1001 87 1022.5 76.5 c 128,-1,58
 1044 66 1044 66 1044 37 c 0,59,60
 1044 -17 1044 -17 968 -17 c 0,61,62
 898 -17 898 -17 852.5 22 c 128,-1,63
 807 61 807 61 778 120 c 0,64,65
 761 152 761 152 741 194.5 c 128,-1,66
 721 237 721 237 687.5 280.5 c 128,-1,67
 654 324 654 324 597 357 c 0,68,69
 515 410 515 410 362 410 c 2,70,-1
 251 410 l 1,71,-1
 251 46 l 2,72,73
 251 16 251 16 237 -0.5 c 128,-1,74
 223 -17 223 -17 198 -17 c 256,17,18
EndSplineSet
EndChar

StartChar: uni043B
Encoding: 1083 1083 498
Width: 1125
Flags: W
LayerCount: 2
Fore
SplineSet
926 -17 m 0,0,1
 874 -17 874 -17 874 54 c 2,2,-1
 874 820 l 1,3,-1
 455 820 l 2,4,5
 388 820 388 820 363 794 c 128,-1,6
 338 768 338 768 338 702 c 2,7,-1
 338 251 l 2,8,9
 338 150 338 150 315 94.5 c 128,-1,10
 292 39 292 39 244 18 c 128,-1,11
 196 -3 196 -3 122 -3 c 0,12,13
 86 -3 86 -3 66 9.5 c 128,-1,14
 46 22 46 22 46 50 c 0,15,16
 46 102 46 102 121 102 c 0,17,18
 183 102 183 102 208 128 c 128,-1,19
 233 154 233 154 233 218 c 2,20,-1
 233 671 l 2,21,22
 233 767 233 767 251.5 823 c 128,-1,23
 270 879 270 879 315.5 902 c 128,-1,24
 361 925 361 925 441 925 c 2,25,-1
 979 925 l 1,26,-1
 979 55 l 2,27,28
 979 -17 979 -17 926 -17 c 0,0,1
EndSplineSet
EndChar

StartChar: uni043C
Encoding: 1084 1084 499
Width: 1257
Flags: W
LayerCount: 2
Fore
SplineSet
198 -17 m 0,0,1
 146 -17 146 -17 146 52 c 2,2,-1
 146 868 l 2,3,4
 146 939 146 939 194 939 c 0,5,6
 229 939 229 939 255 901 c 2,7,-1
 628 345 l 1,8,-1
 1003 901 l 2,9,10
 1028 939 1028 939 1061 939 c 0,11,12
 1112 939 1112 939 1112 868 c 2,13,-1
 1112 52 l 2,14,15
 1112 -17 1112 -17 1059 -17 c 0,16,17
 1007 -17 1007 -17 1007 54 c 2,18,-1
 1007 738 l 1,19,-1
 663 221 l 2,20,21
 653 205 653 205 630 205 c 0,22,23
 620 205 620 205 610 209 c 128,-1,24
 600 213 600 213 594 221 c 2,25,-1
 251 738 l 1,26,-1
 251 54 l 2,27,28
 251 -17 251 -17 198 -17 c 0,0,1
EndSplineSet
EndChar

StartChar: uni043D
Encoding: 1085 1085 500
Width: 1195
Flags: W
LayerCount: 2
Fore
SplineSet
198 -17 m 0,0,1
 146 -17 146 -17 146 52 c 2,2,-1
 146 868 l 2,3,4
 146 939 146 939 194 939 c 0,5,6
 251 939 251 939 251 868 c 2,7,-1
 251 541 l 1,8,-1
 945 541 l 1,9,-1
 945 868 l 2,10,11
 945 939 945 939 997 939 c 0,12,13
 1050 939 1050 939 1050 868 c 2,14,-1
 1050 52 l 2,15,16
 1050 -17 1050 -17 997 -17 c 0,17,18
 945 -17 945 -17 945 52 c 2,19,-1
 945 436 l 1,20,-1
 251 436 l 1,21,-1
 251 52 l 2,22,23
 251 -17 251 -17 198 -17 c 0,0,1
EndSplineSet
EndChar

StartChar: uni043E
Encoding: 1086 1086 501
Width: 1180
Flags: W
LayerCount: 2
Fore
SplineSet
562 -3 m 2,0,1
 408 -3 408 -3 311 27.5 c 128,-1,2
 214 58 214 58 167.5 135 c 128,-1,3
 121 212 121 212 121 352 c 2,4,-1
 121 571 l 2,5,6
 121 710 121 710 167.5 787 c 128,-1,7
 214 864 214 864 311 894.5 c 128,-1,8
 408 925 408 925 562 925 c 2,9,-1
 620 925 l 2,10,11
 773 925 773 925 870.5 894.5 c 128,-1,12
 968 864 968 864 1014 787 c 128,-1,13
 1060 710 1060 710 1060 571 c 2,14,-1
 1060 352 l 2,15,16
 1060 212 1060 212 1014 135 c 128,-1,17
 968 58 968 58 870.5 27.5 c 128,-1,18
 773 -3 773 -3 620 -3 c 2,19,-1
 562 -3 l 2,0,1
562 102 m 2,20,-1
 620 102 l 2,21,22
 751 102 751 102 824 120.5 c 128,-1,23
 897 139 897 139 926 193.5 c 128,-1,24
 955 248 955 248 955 353 c 2,25,-1
 955 569 l 2,26,27
 955 680 955 680 924 733.5 c 128,-1,28
 893 787 893 787 820 803.5 c 128,-1,29
 747 820 747 820 620 820 c 2,30,-1
 562 820 l 2,31,32
 433 820 433 820 359.5 803.5 c 128,-1,33
 286 787 286 787 256 733 c 128,-1,34
 226 679 226 679 226 569 c 2,35,-1
 226 353 l 2,36,37
 226 247 226 247 255 193 c 128,-1,38
 284 139 284 139 357.5 120.5 c 128,-1,39
 431 102 431 102 562 102 c 2,20,-1
EndSplineSet
EndChar

StartChar: uni043F
Encoding: 1087 1087 502
Width: 1196
Flags: W
LayerCount: 2
Fore
SplineSet
199 -17 m 0,0,1
 146 -17 146 -17 146 52 c 2,2,-1
 146 925 l 1,3,-1
 1050 925 l 1,4,-1
 1050 52 l 2,5,6
 1050 -17 1050 -17 998 -17 c 0,7,8
 945 -17 945 -17 945 52 c 2,9,-1
 945 820 l 1,10,-1
 251 820 l 1,11,-1
 251 52 l 2,12,13
 251 -17 251 -17 199 -17 c 0,0,1
EndSplineSet
EndChar

StartChar: uni0440
Encoding: 1088 1088 503
Width: 1207
Flags: W
LayerCount: 2
Fore
SplineSet
198 -367 m 0,0,1
 147 -367 147 -367 147 -296 c 2,2,-1
 147 870 l 2,3,4
 147 939 147 939 200 939 c 0,5,6
 227 939 227 939 239.5 921 c 128,-1,7
 252 903 252 903 252 863 c 2,8,-1
 252 746 l 1,9,-1
 234 770 l 1,10,11
 291 849 291 849 380 887 c 128,-1,12
 469 925 469 925 589 925 c 2,13,-1
 647 925 l 2,14,15
 800 925 800 925 897 894.5 c 128,-1,16
 994 864 994 864 1040 787 c 128,-1,17
 1086 710 1086 710 1086 571 c 2,18,-1
 1086 352 l 2,19,20
 1086 212 1086 212 1040 135 c 128,-1,21
 994 58 994 58 897 27.5 c 128,-1,22
 800 -3 800 -3 648 -3 c 2,23,-1
 252 -3 l 1,24,-1
 252 -296 l 2,25,26
 252 -367 252 -367 198 -367 c 0,0,1
252 102 m 1,27,-1
 648 102 l 2,28,29
 779 102 779 102 851 120.5 c 128,-1,30
 923 139 923 139 952 193.5 c 128,-1,31
 981 248 981 248 981 353 c 2,32,-1
 981 569 l 2,33,34
 981 680 981 680 950 733.5 c 128,-1,35
 919 787 919 787 846 803.5 c 128,-1,36
 773 820 773 820 647 820 c 2,37,-1
 589 820 l 2,38,39
 423 820 423 820 337.5 729 c 128,-1,40
 252 638 252 638 252 464 c 2,41,-1
 252 102 l 1,27,-1
EndSplineSet
EndChar

StartChar: uni0441
Encoding: 1089 1089 504
Width: 1158
Flags: W
LayerCount: 2
Fore
SplineSet
562 -3 m 2,0,1
 408 -3 408 -3 311 27.5 c 128,-1,2
 214 58 214 58 167.5 135 c 128,-1,3
 121 212 121 212 121 352 c 2,4,-1
 121 571 l 2,5,6
 121 710 121 710 167.5 787 c 128,-1,7
 214 864 214 864 311 894.5 c 128,-1,8
 408 925 408 925 562 925 c 2,9,-1
 850 925 l 2,10,11
 929 925 929 925 971 895.5 c 128,-1,12
 1013 866 1013 866 1029 819 c 128,-1,13
 1045 772 1045 772 1045 720 c 0,14,15
 1045 672 1045 672 1032.5 651 c 128,-1,16
 1020 630 1020 630 992 630 c 0,17,18
 961 630 961 630 950.5 654 c 128,-1,19
 940 678 940 678 940 704 c 0,20,21
 939 756 939 756 920.5 788 c 128,-1,22
 902 820 902 820 830 820 c 2,23,-1
 562 820 l 2,24,25
 433 820 433 820 359.5 803.5 c 128,-1,26
 286 787 286 787 256 733 c 128,-1,27
 226 679 226 679 226 569 c 2,28,-1
 226 353 l 2,29,30
 226 247 226 247 255 193 c 128,-1,31
 284 139 284 139 357.5 120.5 c 128,-1,32
 431 102 431 102 562 102 c 2,33,-1
 830 102 l 2,34,35
 903 102 903 102 920 132 c 128,-1,36
 937 162 937 162 940 218 c 0,37,38
 942 258 942 258 956 275 c 128,-1,39
 970 292 970 292 993 292 c 0,40,41
 1019 292 1019 292 1032 272 c 128,-1,42
 1045 252 1045 252 1045 204 c 0,43,44
 1045 145 1045 145 1027.5 98 c 128,-1,45
 1010 51 1010 51 966 24 c 128,-1,46
 922 -3 922 -3 844 -3 c 2,47,-1
 562 -3 l 2,0,1
EndSplineSet
EndChar

StartChar: uni0442
Encoding: 1090 1090 505
Width: 908
Flags: W
LayerCount: 2
Fore
SplineSet
455 -17 m 0,0,1
 400 -17 400 -17 400 46 c 2,2,-1
 400 820 l 1,3,-1
 96 820 l 2,4,5
 29 820 29 820 29 873 c 0,6,7
 29 925 29 925 96 925 c 2,8,-1
 813 925 l 2,9,10
 879 925 879 925 879 873 c 0,11,12
 879 820 879 820 813 820 c 2,13,-1
 510 820 l 1,14,-1
 510 46 l 2,15,16
 510 16 510 16 495.5 -0.5 c 128,-1,17
 481 -17 481 -17 455 -17 c 0,0,1
EndSplineSet
EndChar

StartChar: uni0443
Encoding: 1091 1091 506
Width: 1223
Flags: W
LayerCount: 2
Fore
SplineSet
332 -413 m 2,0,1
 253 -413 253 -413 210.5 -383.5 c 128,-1,2
 168 -354 168 -354 152.5 -307 c 128,-1,3
 137 -260 137 -260 137 -207 c 0,4,5
 137 -160 137 -160 150 -139 c 128,-1,6
 163 -118 163 -118 190 -118 c 0,7,8
 222 -118 222 -118 232 -141.5 c 128,-1,9
 242 -165 242 -165 242 -190 c 0,10,11
 244 -243 244 -243 262.5 -275.5 c 128,-1,12
 281 -308 281 -308 352 -308 c 2,13,-1
 880 -308 l 2,14,15
 936 -308 936 -308 953.5 -288 c 128,-1,16
 971 -268 971 -268 971 -208 c 2,17,-1
 971 127 l 1,18,19
 859 -3 859 -3 636 -3 c 2,20,-1
 578 -3 l 2,21,22
 425 -3 425 -3 327.5 27.5 c 128,-1,23
 230 58 230 58 183.5 135 c 128,-1,24
 137 212 137 212 137 352 c 2,25,-1
 137 867 l 2,26,27
 137 939 137 939 190 939 c 0,28,29
 242 939 242 939 242 867 c 2,30,-1
 242 353 l 2,31,32
 242 247 242 247 271.5 193 c 128,-1,33
 301 139 301 139 374 120.5 c 128,-1,34
 447 102 447 102 578 102 c 2,35,-1
 636 102 l 2,36,37
 799 102 799 102 885 193 c 128,-1,38
 971 284 971 284 971 458 c 2,39,-1
 971 867 l 2,40,41
 971 939 971 939 1024 939 c 0,42,43
 1076 939 1076 939 1076 867 c 2,44,-1
 1076 -176 l 2,45,46
 1076 -308 1076 -308 1037.5 -360.5 c 128,-1,47
 999 -413 999 -413 894 -413 c 2,48,-1
 332 -413 l 2,0,1
EndSplineSet
EndChar

StartChar: uni045E
Encoding: 1118 1118 507
Width: 1223
Flags: W
LayerCount: 2
Fore
SplineSet
496 999 m 2,0,1
 394 999 394 999 354 1050.5 c 128,-1,2
 314 1102 314 1102 314 1233 c 2,3,-1
 314 1288 l 1,4,-1
 419 1288 l 1,5,-1
 419 1201 l 2,6,7
 419 1144 419 1144 437.5 1124 c 128,-1,8
 456 1104 456 1104 512 1104 c 2,9,-1
 716 1104 l 2,10,11
 773 1104 773 1104 790.5 1124 c 128,-1,12
 808 1144 808 1144 808 1201 c 2,13,-1
 808 1288 l 1,14,-1
 913 1288 l 1,15,-1
 913 1233 l 2,16,17
 913 1101 913 1101 874.5 1050 c 128,-1,18
 836 999 836 999 730 999 c 2,19,-1
 496 999 l 2,0,1
332 -413 m 2,20,21
 253 -413 253 -413 210.5 -383.5 c 128,-1,22
 168 -354 168 -354 152.5 -307 c 128,-1,23
 137 -260 137 -260 137 -207 c 0,24,25
 137 -160 137 -160 150 -139 c 128,-1,26
 163 -118 163 -118 190 -118 c 0,27,28
 222 -118 222 -118 232 -141.5 c 128,-1,29
 242 -165 242 -165 242 -190 c 0,30,31
 244 -243 244 -243 262.5 -275.5 c 128,-1,32
 281 -308 281 -308 352 -308 c 2,33,-1
 880 -308 l 2,34,35
 936 -308 936 -308 953.5 -288 c 128,-1,36
 971 -268 971 -268 971 -208 c 2,37,-1
 971 127 l 1,38,39
 859 -3 859 -3 636 -3 c 2,40,-1
 578 -3 l 2,41,42
 425 -3 425 -3 327.5 27.5 c 128,-1,43
 230 58 230 58 183.5 135 c 128,-1,44
 137 212 137 212 137 352 c 2,45,-1
 137 867 l 2,46,47
 137 939 137 939 190 939 c 0,48,49
 242 939 242 939 242 867 c 2,50,-1
 242 353 l 2,51,52
 242 247 242 247 271.5 193 c 128,-1,53
 301 139 301 139 374 120.5 c 128,-1,54
 447 102 447 102 578 102 c 2,55,-1
 636 102 l 2,56,57
 799 102 799 102 885 193 c 128,-1,58
 971 284 971 284 971 458 c 2,59,-1
 971 867 l 2,60,61
 971 939 971 939 1024 939 c 0,62,63
 1076 939 1076 939 1076 867 c 2,64,-1
 1076 -176 l 2,65,66
 1076 -308 1076 -308 1037.5 -360.5 c 128,-1,67
 999 -413 999 -413 894 -413 c 2,68,-1
 332 -413 l 2,20,21
EndSplineSet
EndChar

StartChar: uni0444
Encoding: 1092 1092 508
Width: 1528
Flags: W
LayerCount: 2
Fore
SplineSet
764 -367 m 0,0,1
 712 -367 712 -367 712 -296 c 2,2,-1
 712 125 l 1,3,4
 655 56 655 56 597.5 26.5 c 128,-1,5
 540 -3 540 -3 452 -3 c 0,6,7
 118 -3 118 -3 118 392 c 2,8,-1
 118 531 l 2,9,10
 118 925 118 925 452 925 c 0,11,12
 540 925 540 925 597.5 895.5 c 128,-1,13
 655 866 655 866 712 797 c 1,14,-1
 712 1219 l 2,15,16
 712 1289 712 1289 764 1289 c 0,17,18
 817 1289 817 1289 817 1219 c 2,19,-1
 817 797 l 1,20,21
 874 866 874 866 932 895.5 c 128,-1,22
 990 925 990 925 1076 925 c 0,23,24
 1410 925 1410 925 1410 531 c 2,25,-1
 1410 392 l 2,26,27
 1410 199 1410 199 1331.5 98 c 128,-1,28
 1253 -3 1253 -3 1076 -3 c 0,29,30
 990 -3 990 -3 932 26.5 c 128,-1,31
 874 56 874 56 817 125 c 1,32,-1
 817 -296 l 2,33,34
 817 -367 817 -367 764 -367 c 0,0,1
463 104 m 0,35,36
 555 103 555 103 609.5 154.5 c 128,-1,37
 664 206 664 206 688 288 c 128,-1,38
 712 370 712 370 712 462 c 0,39,40
 712 562 712 562 685.5 643 c 128,-1,41
 659 724 659 724 601.5 772 c 128,-1,42
 544 820 544 820 451 820 c 0,43,44
 369 820 369 820 322.5 794.5 c 128,-1,45
 276 769 276 769 255 727 c 128,-1,46
 234 685 234 685 228.5 634 c 128,-1,47
 223 583 223 583 223 531 c 2,48,-1
 223 392 l 2,49,50
 223 241 223 241 273.5 173 c 128,-1,51
 324 105 324 105 463 104 c 0,35,36
1078 102 m 256,52,53
 1171 102 1171 102 1220 134 c 128,-1,54
 1269 166 1269 166 1287 230.5 c 128,-1,55
 1305 295 1305 295 1305 392 c 2,56,-1
 1305 531 l 2,57,58
 1305 681 1305 681 1256 751.5 c 128,-1,59
 1207 822 1207 822 1068 822 c 0,60,61
 980 822 980 822 924.5 773 c 128,-1,62
 869 724 869 724 843 642 c 128,-1,63
 817 560 817 560 817 462 c 0,64,65
 817 361 817 361 843.5 279.5 c 128,-1,66
 870 198 870 198 927.5 150 c 128,-1,67
 985 102 985 102 1078 102 c 256,52,53
EndSplineSet
EndChar

StartChar: uni0445
Encoding: 1093 1093 509
Width: 1011
Flags: W
LayerCount: 2
Fore
SplineSet
132 -25 m 0,0,1
 108 -25 108 -25 92 -11 c 128,-1,2
 76 3 76 3 76 24 c 0,3,4
 76 34 76 34 80.5 46 c 128,-1,5
 85 58 85 58 96 71 c 2,6,-1
 434 460 l 1,7,-1
 96 853 l 2,8,9
 76 876 76 876 76 898 c 0,10,11
 76 919 76 919 92.5 933 c 128,-1,12
 109 947 109 947 131 947 c 0,13,14
 154 947 154 947 176 922 c 2,15,-1
 508 537 l 1,16,-1
 837 922 l 2,17,18
 860 947 860 947 881 947 c 0,19,20
 903 947 903 947 919.5 933 c 128,-1,21
 936 919 936 919 936 898 c 0,22,23
 936 876 936 876 915 853 c 2,24,-1
 577 460 l 1,25,-1
 915 71 l 2,26,27
 927 58 927 58 931.5 46 c 128,-1,28
 936 34 936 34 936 24 c 0,29,30
 936 3 936 3 919.5 -11 c 128,-1,31
 903 -25 903 -25 880 -25 c 0,32,33
 859 -25 859 -25 837 0 c 2,34,-1
 508 386 l 1,35,-1
 176 0 l 2,36,37
 154 -25 154 -25 132 -25 c 0,0,1
EndSplineSet
EndChar

StartChar: uni0447
Encoding: 1095 1095 510
Width: 1165
Flags: W
LayerCount: 2
Fore
SplineSet
969 -17 m 0,0,1
 915 -17 915 -17 915 54 c 2,2,-1
 915 386 l 1,3,4
 801 256 801 256 587 256 c 2,5,-1
 526 256 l 2,6,7
 377 256 377 256 282 286.5 c 128,-1,8
 187 317 187 317 141.5 395 c 128,-1,9
 96 473 96 473 96 612 c 2,10,-1
 96 870 l 2,11,12
 96 939 96 939 148 939 c 0,13,14
 201 939 201 939 201 870 c 2,15,-1
 201 613 l 2,16,17
 201 507 201 507 230 453 c 128,-1,18
 259 399 259 399 330 380 c 128,-1,19
 401 361 401 361 526 361 c 2,20,-1
 587 361 l 2,21,22
 747 361 747 361 831 453 c 128,-1,23
 915 545 915 545 915 720 c 2,24,-1
 915 870 l 2,25,26
 915 939 915 939 967 939 c 0,27,28
 1020 939 1020 939 1020 870 c 2,29,-1
 1020 54 l 2,30,31
 1020 -17 1020 -17 969 -17 c 0,0,1
EndSplineSet
EndChar

StartChar: uni0446
Encoding: 1094 1094 511
Width: 1115
Flags: W
LayerCount: 2
Fore
SplineSet
999 -187 m 0,0,1
 947 -187 947 -187 947 -116 c 2,2,-1
 947 -3 l 1,3,-1
 148 -3 l 1,4,-1
 148 870 l 2,5,6
 148 939 148 939 200 939 c 0,7,8
 253 939 253 939 253 870 c 2,9,-1
 253 102 l 1,10,-1
 831 102 l 1,11,-1
 831 870 l 2,12,13
 831 939 831 939 883 939 c 0,14,15
 936 939 936 939 936 870 c 2,16,-1
 936 52 l 1,17,-1
 892 99 l 1,18,-1
 950 99 l 2,19,20
 1052 98 1052 98 1052 -15 c 2,21,-1
 1052 -116 l 2,22,23
 1052 -187 1052 -187 999 -187 c 0,0,1
EndSplineSet
EndChar

StartChar: uni0448
Encoding: 1096 1096 512
Width: 1263
Flags: W
LayerCount: 2
Fore
SplineSet
148 -3 m 1,0,-1
 148 870 l 2,1,2
 148 939 148 939 200 939 c 0,3,4
 253 939 253 939 253 870 c 2,5,-1
 253 102 l 1,6,-1
 579 102 l 1,7,-1
 579 870 l 2,8,9
 579 939 579 939 632 939 c 0,10,11
 684 939 684 939 684 870 c 2,12,-1
 684 102 l 1,13,-1
 1011 102 l 1,14,-1
 1011 870 l 2,15,16
 1011 939 1011 939 1063 939 c 0,17,18
 1116 939 1116 939 1116 870 c 2,19,-1
 1116 -3 l 1,20,-1
 148 -3 l 1,0,-1
EndSplineSet
EndChar

StartChar: uni0449
Encoding: 1097 1097 513
Width: 1295
Flags: W
LayerCount: 2
Fore
SplineSet
1179 -187 m 0,0,1
 1127 -187 1127 -187 1127 -116 c 2,2,-1
 1127 -3 l 1,3,-1
 148 -3 l 1,4,-1
 148 870 l 2,5,6
 148 939 148 939 200 939 c 0,7,8
 253 939 253 939 253 870 c 2,9,-1
 253 102 l 1,10,-1
 578 102 l 1,11,-1
 578 870 l 2,12,13
 578 939 578 939 630 939 c 0,14,15
 683 939 683 939 683 870 c 2,16,-1
 683 102 l 1,17,-1
 1011 102 l 1,18,-1
 1011 870 l 2,19,20
 1011 939 1011 939 1063 939 c 0,21,22
 1116 939 1116 939 1116 870 c 2,23,-1
 1116 52 l 1,24,-1
 1071 99 l 1,25,-1
 1130 99 l 2,26,27
 1232 99 1232 99 1232 -15 c 2,28,-1
 1232 -116 l 2,29,30
 1232 -187 1232 -187 1179 -187 c 0,0,1
EndSplineSet
EndChar

StartChar: uni045F
Encoding: 1119 1119 514
Width: 1199
Flags: W
LayerCount: 2
Fore
SplineSet
600 -187 m 0,0,1
 547 -187 547 -187 547 -116 c 2,2,-1
 547 -3 l 1,3,-1
 148 -3 l 1,4,-1
 148 870 l 2,5,6
 148 939 148 939 200 939 c 0,7,8
 253 939 253 939 253 870 c 2,9,-1
 253 102 l 1,10,-1
 947 102 l 1,11,-1
 947 870 l 2,12,13
 947 939 947 939 999 939 c 0,14,15
 1052 939 1052 939 1052 870 c 2,16,-1
 1052 -3 l 1,17,-1
 652 -3 l 1,18,-1
 652 -116 l 2,19,20
 652 -187 652 -187 600 -187 c 0,0,1
EndSplineSet
EndChar

StartChar: uni044C
Encoding: 1100 1100 515
Width: 1063
Flags: W
LayerCount: 2
Fore
SplineSet
148 -3 m 1,0,-1
 148 868 l 2,1,2
 148 939 148 939 200 939 c 0,3,4
 253 939 253 939 253 868 c 2,5,-1
 253 529 l 1,6,-1
 678 529 l 2,7,8
 770 529 770 529 841.5 501.5 c 128,-1,9
 913 474 913 474 954.5 415.5 c 128,-1,10
 996 357 996 357 996 264 c 0,11,12
 996 170 996 170 954.5 111.5 c 128,-1,13
 913 53 913 53 841.5 25.5 c 128,-1,14
 770 -2 770 -2 678 -3 c 2,15,-1
 148 -3 l 1,0,-1
253 102 m 1,16,-1
 663 102 l 2,17,18
 773 102 773 102 832.5 140 c 128,-1,19
 892 178 892 178 892 263 c 0,20,21
 892 334 892 334 859 368.5 c 128,-1,22
 826 403 826 403 773.5 413.5 c 128,-1,23
 721 424 721 424 663 424 c 2,24,-1
 253 424 l 1,25,-1
 253 102 l 1,16,-1
EndSplineSet
EndChar

StartChar: uni044A
Encoding: 1098 1098 516
Width: 1160
Flags: W
LayerCount: 2
Fore
SplineSet
310 -3 m 1,0,-1
 310 820 l 1,1,-1
 119 820 l 2,2,3
 46 820 46 820 46 877 c 0,4,5
 46 925 46 925 119 925 c 2,6,-1
 415 925 l 1,7,-1
 415 529 l 1,8,-1
 758 529 l 2,9,10
 848 529 848 529 924 502.5 c 128,-1,11
 1000 476 1000 476 1045.5 417.5 c 128,-1,12
 1091 359 1091 359 1091 264 c 256,13,14
 1091 169 1091 169 1049 110.5 c 128,-1,15
 1007 52 1007 52 932.5 24.5 c 128,-1,16
 858 -3 858 -3 762 -3 c 2,17,-1
 310 -3 l 1,0,-1
415 102 m 1,18,-1
 748 102 l 2,19,20
 823 102 823 102 878 123 c 128,-1,21
 933 144 933 144 962.5 179.5 c 128,-1,22
 992 215 992 215 992 259 c 0,23,24
 992 329 992 329 931 375 c 128,-1,25
 870 421 870 421 748 424 c 2,26,-1
 415 424 l 1,27,-1
 415 102 l 1,18,-1
EndSplineSet
EndChar

StartChar: uni044B
Encoding: 1099 1099 517
Width: 1357
Flags: W
LayerCount: 2
Fore
SplineSet
148 -3 m 1,0,-1
 148 868 l 2,1,2
 148 939 148 939 200 939 c 0,3,4
 253 939 253 939 253 868 c 2,5,-1
 253 529 l 1,6,-1
 678 529 l 2,7,8
 770 529 770 529 841.5 501.5 c 128,-1,9
 913 474 913 474 954.5 415.5 c 128,-1,10
 996 357 996 357 996 264 c 0,11,12
 996 170 996 170 954.5 111.5 c 128,-1,13
 913 53 913 53 841.5 25.5 c 128,-1,14
 770 -2 770 -2 678 -3 c 2,15,-1
 148 -3 l 1,0,-1
253 102 m 1,16,-1
 663 102 l 2,17,18
 773 102 773 102 832.5 140 c 128,-1,19
 892 178 892 178 892 263 c 0,20,21
 892 334 892 334 859 368.5 c 128,-1,22
 826 403 826 403 773.5 413.5 c 128,-1,23
 721 424 721 424 663 424 c 2,24,-1
 253 424 l 1,25,-1
 253 102 l 1,16,-1
1159 -24 m 0,26,27
 1107 -24 1107 -24 1107 40 c 2,28,-1
 1107 880 l 2,29,30
 1107 913 1107 913 1120.5 930 c 128,-1,31
 1134 947 1134 947 1159 947 c 0,32,33
 1185 947 1185 947 1198.5 930 c 128,-1,34
 1212 913 1212 913 1212 880 c 2,35,-1
 1212 40 l 2,36,37
 1212 -24 1212 -24 1159 -24 c 0,26,27
EndSplineSet
EndChar

StartChar: uni0459
Encoding: 1113 1113 518
Width: 1495
Flags: W
LayerCount: 2
Fore
SplineSet
130 -3 m 0,0,1
 58 -3 58 -3 58 50 c 0,2,3
 58 102 58 102 133 102 c 0,4,5
 194 102 194 102 217 127.5 c 128,-1,6
 240 153 240 153 240 218 c 2,7,-1
 240 671 l 2,8,9
 240 767 240 767 259.5 822.5 c 128,-1,10
 279 878 279 878 326 901.5 c 128,-1,11
 373 925 373 925 455 925 c 2,12,-1
 904 925 l 1,13,-1
 904 529 l 1,14,-1
 1106 529 l 2,15,16
 1197 529 1197 529 1269 502 c 128,-1,17
 1341 475 1341 475 1383 416.5 c 128,-1,18
 1425 358 1425 358 1425 264 c 0,19,20
 1425 169 1425 169 1382.5 110.5 c 128,-1,21
 1340 52 1340 52 1266 24.5 c 128,-1,22
 1192 -3 1192 -3 1095 -3 c 2,23,-1
 799 -3 l 1,24,-1
 799 820 l 1,25,-1
 469 820 l 2,26,27
 402 820 402 820 376.5 794 c 128,-1,28
 351 768 351 768 351 702 c 2,29,-1
 347 251 l 2,30,31
 347 149 347 149 323.5 94 c 128,-1,32
 300 39 300 39 252.5 18 c 128,-1,33
 205 -3 205 -3 130 -3 c 0,0,1
904 102 m 1,34,-1
 1081 102 l 2,35,36
 1161 102 1161 102 1214.5 123 c 128,-1,37
 1268 144 1268 144 1295 179 c 128,-1,38
 1322 214 1322 214 1322 257 c 0,39,40
 1322 357 1322 357 1254.5 389 c 128,-1,41
 1187 421 1187 421 1081 424 c 2,42,-1
 904 424 l 1,43,-1
 904 102 l 1,34,-1
EndSplineSet
EndChar

StartChar: uni045A
Encoding: 1114 1114 519
Width: 1582
Flags: W
LayerCount: 2
Fore
SplineSet
198 -17 m 0,0,1
 146 -17 146 -17 146 52 c 2,2,-1
 146 868 l 2,3,4
 146 939 146 939 196 939 c 0,5,6
 251 939 251 939 251 868 c 2,7,-1
 251 529 l 1,8,-1
 880 529 l 1,9,-1
 880 868 l 2,10,11
 880 939 880 939 933 939 c 0,12,13
 985 939 985 939 985 868 c 2,14,-1
 985 529 l 1,15,-1
 1182 529 l 2,16,17
 1271 529 1271 529 1346 502 c 128,-1,18
 1421 475 1421 475 1467 416 c 128,-1,19
 1513 357 1513 357 1513 261 c 0,20,21
 1513 169 1513 169 1470.5 110.5 c 128,-1,22
 1428 52 1428 52 1354 24.5 c 128,-1,23
 1280 -3 1280 -3 1183 -3 c 2,24,-1
 880 -3 l 1,25,-1
 880 424 l 1,26,-1
 251 424 l 1,27,-1
 251 52 l 2,28,29
 251 -17 251 -17 198 -17 c 0,0,1
985 102 m 1,30,-1
 1169 102 l 2,31,32
 1295 102 1295 102 1352.5 148 c 128,-1,33
 1410 194 1410 194 1410 265 c 0,34,35
 1410 327 1410 327 1375 361.5 c 128,-1,36
 1340 396 1340 396 1285 410 c 128,-1,37
 1230 424 1230 424 1169 424 c 2,38,-1
 985 424 l 1,39,-1
 985 102 l 1,30,-1
EndSplineSet
EndChar

StartChar: uni0455
Encoding: 1109 1109 520
Width: 1162
Flags: W
LayerCount: 2
Fore
SplineSet
318 -3 m 2,0,1
 236 -3 236 -3 193 25.5 c 128,-1,2
 150 54 150 54 133.5 101 c 128,-1,3
 117 148 117 148 117 202 c 0,4,5
 117 252 117 252 128.5 271.5 c 128,-1,6
 140 291 140 291 168 291 c 0,7,8
 201 291 201 291 211.5 269 c 128,-1,9
 222 247 222 247 222 220 c 0,10,11
 224 163 224 163 242.5 132.5 c 128,-1,12
 261 102 261 102 332 102 c 2,13,-1
 823 102 l 2,14,15
 940 102 940 102 940 249 c 0,16,17
 940 328 940 328 905 374 c 128,-1,18
 870 420 870 420 808 420 c 2,19,-1
 376 420 l 2,20,21
 248 420 248 420 182.5 486 c 128,-1,22
 117 552 117 552 117 681 c 0,23,24
 117 803 117 803 181.5 864 c 128,-1,25
 246 925 246 925 391 925 c 2,26,-1
 847 925 l 2,27,28
 926 925 926 925 968 895.5 c 128,-1,29
 1010 866 1010 866 1025.5 819 c 128,-1,30
 1041 772 1041 772 1041 720 c 0,31,32
 1041 672 1041 672 1028.5 651 c 128,-1,33
 1016 630 1016 630 989 630 c 0,34,35
 958 630 958 630 947 654 c 128,-1,36
 936 678 936 678 936 704 c 0,37,38
 935 756 935 756 916.5 788 c 128,-1,39
 898 820 898 820 827 820 c 2,40,-1
 340 820 l 2,41,42
 222 820 222 820 222 683 c 0,43,44
 222 607 222 607 257 566 c 128,-1,45
 292 525 292 525 355 525 c 2,46,-1
 789 525 l 2,47,48
 916 525 916 525 980.5 455 c 128,-1,49
 1045 385 1045 385 1045 253 c 0,50,51
 1045 123 1045 123 978.5 60 c 128,-1,52
 912 -3 912 -3 774 -3 c 2,53,-1
 318 -3 l 2,0,1
EndSplineSet
EndChar

StartChar: uni0454
Encoding: 1108 1108 521
Width: 1156
Flags: W
LayerCount: 2
Fore
SplineSet
562 -3 m 2,0,1
 408 -3 408 -3 311 27.5 c 128,-1,2
 214 58 214 58 167.5 135 c 128,-1,3
 121 212 121 212 121 352 c 2,4,-1
 121 571 l 2,5,6
 121 710 121 710 167.5 787 c 128,-1,7
 214 864 214 864 311 894.5 c 128,-1,8
 408 925 408 925 562 925 c 2,9,-1
 844 925 l 2,10,11
 927 925 927 925 970 896 c 128,-1,12
 1013 867 1013 867 1029 819 c 128,-1,13
 1045 771 1045 771 1045 714 c 0,14,15
 1045 630 1045 630 992 630 c 0,16,17
 940 630 940 630 940 706 c 0,18,19
 940 767 940 767 916.5 793.5 c 128,-1,20
 893 820 893 820 830 820 c 2,21,-1
 562 820 l 2,22,23
 433 820 433 820 359.5 803.5 c 128,-1,24
 286 787 286 787 256 733.5 c 128,-1,25
 226 680 226 680 226 571 c 2,26,-1
 226 529 l 1,27,-1
 628 529 l 2,28,29
 701 529 701 529 701 472 c 0,30,31
 701 424 701 424 628 424 c 2,32,-1
 226 424 l 1,33,-1
 226 352 l 2,34,35
 226 246 226 246 255.5 192.5 c 128,-1,36
 285 139 285 139 358 120.5 c 128,-1,37
 431 102 431 102 562 102 c 2,38,-1
 830 102 l 2,39,40
 893 102 893 102 916.5 129.5 c 128,-1,41
 940 157 940 157 940 218 c 0,42,43
 940 255 940 255 955.5 273.5 c 128,-1,44
 971 292 971 292 992 292 c 0,45,46
 1015 292 1015 292 1030 274.5 c 128,-1,47
 1045 257 1045 257 1045 224 c 0,48,49
 1045 160 1045 160 1029.5 108.5 c 128,-1,50
 1014 57 1014 57 971 27 c 128,-1,51
 928 -3 928 -3 844 -3 c 2,52,-1
 562 -3 l 2,0,1
EndSplineSet
EndChar

StartChar: uni0456
Encoding: 1110 1110 523
Width: 394
Flags: W
LayerCount: 2
Fore
SplineSet
197 -24 m 0,0,1
 145 -24 145 -24 145 40 c 2,2,-1
 145 880 l 2,3,4
 145 913 145 913 158.5 930 c 128,-1,5
 172 947 172 947 197 947 c 0,6,7
 223 947 223 947 236.5 930 c 128,-1,8
 250 913 250 913 250 880 c 2,9,-1
 250 40 l 2,10,11
 250 -24 250 -24 197 -24 c 0,0,1
196 1120 m 0,12,13
 159 1120 159 1120 127 1145 c 128,-1,14
 95 1170 95 1170 95 1202 c 0,15,16
 96 1235 96 1235 127.5 1260 c 128,-1,17
 159 1285 159 1285 195 1285 c 0,18,19
 232 1285 232 1285 266 1260 c 128,-1,20
 300 1235 300 1235 300 1202 c 0,21,22
 300 1168 300 1168 265 1144 c 128,-1,23
 230 1120 230 1120 196 1120 c 0,12,13
EndSplineSet
EndChar

StartChar: uni0457
Encoding: 1111 1111 524
Width: 394
Flags: W
LayerCount: 2
Fore
SplineSet
197 -24 m 0,0,1
 145 -24 145 -24 145 40 c 2,2,-1
 145 880 l 2,3,4
 145 913 145 913 158.5 930 c 128,-1,5
 172 947 172 947 197 947 c 0,6,7
 223 947 223 947 236.5 930 c 128,-1,8
 250 913 250 913 250 880 c 2,9,-1
 250 40 l 2,10,11
 250 -24 250 -24 197 -24 c 0,0,1
43 1063 m 0,12,13
 7 1063 7 1063 -25 1088 c 128,-1,14
 -57 1113 -57 1113 -57 1145 c 0,15,16
 -56 1178 -56 1178 -24.5 1203 c 128,-1,17
 7 1228 7 1228 44 1228 c 256,18,19
 81 1228 81 1228 114.5 1203 c 128,-1,20
 148 1178 148 1178 148 1145 c 0,21,22
 148 1113 148 1113 114 1088 c 128,-1,23
 80 1063 80 1063 43 1063 c 0,12,13
347 1063 m 0,24,25
 311 1063 311 1063 279 1088 c 128,-1,26
 247 1113 247 1113 247 1145 c 0,27,28
 248 1178 248 1178 279.5 1203 c 128,-1,29
 311 1228 311 1228 348 1228 c 256,30,31
 385 1228 385 1228 418.5 1203 c 128,-1,32
 452 1178 452 1178 452 1145 c 0,33,34
 452 1113 452 1113 418 1088 c 128,-1,35
 384 1063 384 1063 347 1063 c 0,24,25
EndSplineSet
EndChar

StartChar: uni0458
Encoding: 1112 1112 525
Width: 399
Flags: W
LayerCount: 2
Fore
SplineSet
-174 -353 m 0,0,1
 -247 -353 -247 -353 -247 -300 c 0,2,3
 -247 -248 -247 -248 -174 -248 c 0,4,5
 -52 -248 -52 -248 18.5 -230 c 128,-1,6
 89 -212 89 -212 118 -159 c 128,-1,7
 147 -106 147 -106 147 0 c 2,8,-1
 147 867 l 2,9,10
 147 939 147 939 200 939 c 0,11,12
 252 939 252 939 252 867 c 2,13,-1
 252 0 l 2,14,15
 252 -141 252 -141 207.5 -217.5 c 128,-1,16
 163 -294 163 -294 69 -323.5 c 128,-1,17
 -25 -353 -25 -353 -174 -353 c 0,0,1
201 1120 m 0,18,19
 167 1120 167 1120 132 1144.5 c 128,-1,20
 97 1169 97 1169 97 1202 c 256,21,22
 97 1235 97 1235 130.5 1260 c 128,-1,23
 164 1285 164 1285 201 1285 c 0,24,25
 236 1285 236 1285 269 1260 c 128,-1,26
 302 1235 302 1235 302 1202 c 0,27,28
 302 1168 302 1168 268 1144 c 128,-1,29
 234 1120 234 1120 201 1120 c 0,18,19
EndSplineSet
EndChar

StartChar: uni045B
Encoding: 1115 1115 526
Width: 1222
Flags: W
LayerCount: 2
Fore
SplineSet
198 -17 m 0,0,1
 146 -17 146 -17 146 52 c 2,2,-1
 146 1037 l 1,3,4
 116 1038 116 1038 100.5 1052 c 128,-1,5
 85 1066 85 1066 85 1092 c 0,6,7
 85 1120 85 1120 102.5 1131 c 128,-1,8
 120 1142 120 1142 146 1144 c 1,9,-1
 146 1217 l 2,10,11
 146 1289 146 1289 194 1289 c 0,12,13
 251 1289 251 1289 251 1217 c 2,14,-1
 251 1144 l 1,15,-1
 665 1144 l 2,16,17
 700 1144 700 1144 719.5 1129.5 c 128,-1,18
 739 1115 739 1115 739 1087 c 0,19,20
 739 1064 739 1064 719.5 1050.5 c 128,-1,21
 700 1037 700 1037 665 1037 c 2,22,-1
 251 1037 l 1,23,-1
 251 795 l 1,24,25
 368 925 368 925 587 925 c 2,26,-1
 645 925 l 2,27,28
 798 925 798 925 895.5 894.5 c 128,-1,29
 993 864 993 864 1039 787 c 128,-1,30
 1085 710 1085 710 1085 571 c 2,31,-1
 1085 52 l 2,32,33
 1085 -17 1085 -17 1032 -17 c 0,34,35
 980 -17 980 -17 980 52 c 2,36,-1
 980 569 l 2,37,38
 980 680 980 680 949 733.5 c 128,-1,39
 918 787 918 787 845 803.5 c 128,-1,40
 772 820 772 820 645 820 c 2,41,-1
 587 820 l 2,42,43
 423 820 423 820 337 728 c 128,-1,44
 251 636 251 636 251 463 c 2,45,-1
 251 52 l 2,46,47
 251 -17 251 -17 198 -17 c 0,0,1
EndSplineSet
EndChar

StartChar: uni044E
Encoding: 1102 1102 527
Width: 1367
Flags: W
LayerCount: 2
Fore
SplineSet
198 -17 m 0,0,1
 146 -17 146 -17 146 46 c 2,2,-1
 146 874 l 2,3,4
 146 906 146 906 159.5 922.5 c 128,-1,5
 173 939 173 939 198 939 c 0,6,7
 224 939 224 939 237.5 922.5 c 128,-1,8
 251 906 251 906 251 874 c 2,9,-1
 251 529 l 1,10,-1
 380 529 l 1,11,-1
 380 572 l 2,12,13
 380 710 380 710 427 787 c 128,-1,14
 474 864 474 864 570 894.5 c 128,-1,15
 666 925 666 925 815 925 c 256,16,17
 964 925 964 925 1059.5 894.5 c 128,-1,18
 1155 864 1155 864 1200.5 786.5 c 128,-1,19
 1246 709 1246 709 1246 571 c 2,20,-1
 1246 352 l 2,21,22
 1246 213 1246 213 1200.5 135.5 c 128,-1,23
 1155 58 1155 58 1060 27.5 c 128,-1,24
 965 -3 965 -3 816 -3 c 0,25,26
 665 -3 665 -3 569 28 c 128,-1,27
 473 59 473 59 426.5 136 c 128,-1,28
 380 213 380 213 380 352 c 2,29,-1
 380 424 l 1,30,-1
 251 424 l 1,31,-1
 251 46 l 2,32,33
 251 -17 251 -17 198 -17 c 0,0,1
818 102 m 0,34,35
 943 102 943 102 1013.5 121 c 128,-1,36
 1084 140 1084 140 1112.5 194 c 128,-1,37
 1141 248 1141 248 1141 353 c 2,38,-1
 1141 569 l 2,39,40
 1141 679 1141 679 1110.5 732.5 c 128,-1,41
 1080 786 1080 786 1009.5 803 c 128,-1,42
 939 820 939 820 818 820 c 0,43,44
 692 820 692 820 620 803 c 128,-1,45
 548 786 548 786 517.5 732 c 128,-1,46
 487 678 487 678 487 569 c 2,47,-1
 487 353 l 2,48,49
 487 248 487 248 516.5 194 c 128,-1,50
 546 140 546 140 618 121 c 128,-1,51
 690 102 690 102 818 102 c 0,34,35
EndSplineSet
EndChar

StartChar: uni044F
Encoding: 1103 1103 528
Width: 1096
Flags: W
LayerCount: 2
Fore
SplineSet
119 -19 m 0,0,1
 39 -19 39 -19 39 34 c 0,2,3
 39 86 39 86 108 86 c 0,4,5
 160 86 160 86 199 127 c 128,-1,6
 238 168 238 168 260 243 c 0,7,8
 275 296 275 296 299.5 336.5 c 128,-1,9
 324 377 324 377 361 410 c 1,10,11
 255 430 255 430 209 486 c 128,-1,12
 163 542 163 542 163 639 c 0,13,14
 163 761 163 761 205.5 822 c 128,-1,15
 248 883 248 883 343.5 904 c 128,-1,16
 439 925 439 925 600 925 c 2,17,-1
 900 925 l 2,18,19
 924 925 924 925 936.5 907.5 c 128,-1,20
 949 890 949 890 949 856 c 2,21,-1
 949 44 l 2,22,23
 949 15 949 15 935 -1 c 128,-1,24
 921 -17 921 -17 896 -17 c 256,25,26
 871 -17 871 -17 857.5 -1 c 128,-1,27
 844 15 844 15 844 44 c 2,28,-1
 844 394 l 1,29,-1
 601 394 l 2,30,31
 528 394 528 394 481.5 376.5 c 128,-1,32
 435 359 435 359 407 320 c 128,-1,33
 379 281 379 281 361 216 c 0,34,35
 332 114 332 114 263.5 47.5 c 128,-1,36
 195 -19 195 -19 119 -19 c 0,0,1
537 499 m 2,37,-1
 844 499 l 1,38,-1
 844 820 l 1,39,-1
 537 820 l 2,40,41
 437 820 437 820 378 810 c 128,-1,42
 319 800 319 800 293.5 766 c 128,-1,43
 268 732 268 732 268 660 c 0,44,45
 268 587 268 587 293.5 552.5 c 128,-1,46
 319 518 319 518 378 508.5 c 128,-1,47
 437 499 437 499 537 499 c 2,37,-1
EndSplineSet
EndChar

StartChar: uni0452
Encoding: 1106 1106 529
Width: 1224
Flags: W
LayerCount: 2
Fore
SplineSet
885 -413 m 0,0,1
 832 -413 832 -413 813 -398 c 128,-1,2
 794 -383 794 -383 794 -362 c 0,3,4
 794 -312 794 -312 873 -308 c 0,5,6
 907 -306 907 -306 931 -298.5 c 128,-1,7
 955 -291 955 -291 967.5 -266.5 c 128,-1,8
 980 -242 980 -242 980 -188 c 2,9,-1
 980 568 l 2,10,11
 980 679 980 679 948.5 732.5 c 128,-1,12
 917 786 917 786 844 803 c 128,-1,13
 771 820 771 820 645 820 c 2,14,-1
 587 820 l 2,15,16
 423 820 423 820 337 728 c 128,-1,17
 251 636 251 636 251 463 c 2,18,-1
 251 52 l 2,19,20
 251 -17 251 -17 198 -17 c 0,21,22
 146 -17 146 -17 146 52 c 2,23,-1
 146 1015 l 1,24,25
 116 1016 116 1016 100.5 1030 c 128,-1,26
 85 1044 85 1044 85 1070 c 0,27,28
 85 1098 85 1098 102.5 1109 c 128,-1,29
 120 1120 120 1120 146 1121 c 1,30,-1
 146 1217 l 2,31,32
 146 1289 146 1289 196 1289 c 0,33,34
 251 1289 251 1289 251 1217 c 2,35,-1
 251 1122 l 1,36,-1
 665 1122 l 2,37,38
 700 1122 700 1122 719.5 1107 c 128,-1,39
 739 1092 739 1092 739 1066 c 0,40,41
 739 1041 739 1041 719.5 1028 c 128,-1,42
 700 1015 700 1015 665 1015 c 2,43,-1
 251 1015 l 1,44,-1
 251 795 l 1,45,46
 368 925 368 925 587 925 c 2,47,-1
 645 925 l 2,48,49
 798 925 798 925 895.5 894.5 c 128,-1,50
 993 864 993 864 1039 786.5 c 128,-1,51
 1085 709 1085 709 1085 569 c 2,52,-1
 1085 -154 l 2,53,54
 1085 -298 1085 -298 1038 -355.5 c 128,-1,55
 991 -413 991 -413 885 -413 c 0,0,1
EndSplineSet
EndChar

StartChar: uni0463
Encoding: 1123 1123 530
Width: 1302
Flags: W
LayerCount: 2
Fore
SplineSet
788 -3 m 2,0,-1
 428 -3 l 2,1,2
 374 -3 374 -3 374 68 c 2,3,-1
 374 839 l 1,4,-1
 99 839 l 2,5,6
 66 839 66 839 49 852.5 c 128,-1,7
 32 866 32 866 32 891 c 0,8,9
 32 917 32 917 49 930.5 c 128,-1,10
 66 944 66 944 99 944 c 2,11,-1
 374 944 l 1,12,-1
 374 1225 l 2,13,14
 374 1289 374 1289 428 1289 c 0,15,16
 480 1289 480 1289 480 1225 c 2,17,-1
 480 944 l 1,18,-1
 761 944 l 2,19,20
 795 944 795 944 812 930 c 128,-1,21
 829 916 829 916 829 891 c 256,22,23
 829 866 829 866 812 852.5 c 128,-1,24
 795 839 795 839 761 839 c 2,25,-1
 480 839 l 1,26,-1
 480 609 l 1,27,-1
 869 609 l 2,28,29
 980 609 980 609 1060.5 573.5 c 128,-1,30
 1141 538 1141 538 1184 468 c 128,-1,31
 1227 398 1227 398 1227 293 c 0,32,33
 1227 129 1227 129 1119 63 c 128,-1,34
 1011 -3 1011 -3 788 -3 c 2,0,-1
480 102 m 1,35,-1
 788 102 l 2,36,37
 905 102 905 102 979 117.5 c 128,-1,38
 1053 133 1053 133 1087.5 176 c 128,-1,39
 1122 219 1122 219 1122 302 c 0,40,41
 1122 384 1122 384 1089.5 427.5 c 128,-1,42
 1057 471 1057 471 982.5 487.5 c 128,-1,43
 908 504 908 504 783 504 c 2,44,-1
 480 504 l 1,45,-1
 480 102 l 1,35,-1
EndSplineSet
EndChar

StartChar: uni0473
Encoding: 1139 1139 531
Width: 1145
Flags: W
LayerCount: 2
Fore
SplineSet
573 -3 m 256,0,1
 414 -3 414 -3 314 27.5 c 128,-1,2
 214 58 214 58 167.5 135.5 c 128,-1,3
 121 213 121 213 121 352 c 2,4,-1
 121 571 l 2,5,6
 121 710 121 710 167.5 787 c 128,-1,7
 214 864 214 864 314 894.5 c 128,-1,8
 414 925 414 925 573 925 c 256,9,10
 732 925 732 925 831.5 894.5 c 128,-1,11
 931 864 931 864 977.5 787 c 128,-1,12
 1024 710 1024 710 1024 571 c 2,13,-1
 1024 352 l 2,14,15
 1024 213 1024 213 977.5 135.5 c 128,-1,16
 931 58 931 58 831.5 27.5 c 128,-1,17
 732 -3 732 -3 573 -3 c 256,0,1
572 102 m 0,18,19
 710 102 710 102 785 120.5 c 128,-1,20
 860 139 860 139 889.5 193 c 128,-1,21
 919 247 919 247 919 351 c 2,22,-1
 919 411 l 1,23,24
 860 371 860 371 787 371 c 0,25,26
 753 371 753 371 697.5 380.5 c 128,-1,27
 642 390 642 390 562 410 c 256,28,29
 482 430 482 430 431.5 440 c 128,-1,30
 381 450 381 450 359 450 c 0,31,32
 331 450 331 450 299.5 435 c 128,-1,33
 268 420 268 420 226 390 c 1,34,-1
 226 352 l 2,35,36
 226 246 226 246 255.5 192.5 c 128,-1,37
 285 139 285 139 360 120.5 c 128,-1,38
 435 102 435 102 572 102 c 0,18,19
782 476 m 0,39,40
 811 476 811 476 843 492.5 c 128,-1,41
 875 509 875 509 919 540 c 1,42,-1
 919 571 l 2,43,44
 919 681 919 681 888 734 c 128,-1,45
 857 787 857 787 781 803.5 c 128,-1,46
 705 820 705 820 572 820 c 0,47,48
 438 820 438 820 362.5 803.5 c 128,-1,49
 287 787 287 787 256.5 733.5 c 128,-1,50
 226 680 226 680 226 571 c 2,51,-1
 226 516 l 1,52,53
 282 556 282 556 350 556 c 0,54,55
 385 556 385 556 441 546 c 128,-1,56
 497 536 497 536 578 516 c 0,57,58
 660 497 660 497 710 486.5 c 128,-1,59
 760 476 760 476 782 476 c 0,39,40
EndSplineSet
EndChar

StartChar: Gamma
Encoding: 915 915 534
Width: 1028
Flags: W
LayerCount: 2
Fore
SplineSet
240 0 m 0,0,1
 187 0 187 0 187 53 c 2,2,-1
 187 1236 l 2,3,4
 187 1289 187 1289 240 1289 c 2,5,-1
 961 1289 l 2,6,7
 986 1289 986 1289 999.5 1275.5 c 128,-1,8
 1013 1262 1013 1262 1013 1236 c 0,9,10
 1013 1184 1013 1184 961 1184 c 2,11,-1
 292 1184 l 1,12,-1
 292 53 l 2,13,14
 292 0 292 0 240 0 c 0,0,1
EndSplineSet
EndChar

StartChar: uni0394
Encoding: 916 916 535
Width: 1270
Flags: W
LayerCount: 2
Fore
SplineSet
116 0 m 2,0,1
 82 0 82 0 64 20 c 0,2,3
 55 29 55 29 52.5 43 c 128,-1,4
 50 57 50 57 58 75 c 2,5,-1
 573 1248 l 2,6,7
 591 1289 591 1289 633 1289 c 2,8,-1
 638 1289 l 2,9,10
 679 1288 679 1288 696 1248 c 2,11,-1
 1212 75 l 2,12,13
 1221 58 1221 58 1218.5 44.5 c 128,-1,14
 1216 31 1216 31 1207 20 c 0,15,16
 1193 0 1193 0 1166 0 c 2,17,-1
 116 0 l 2,0,1
187 105 m 1,18,-1
 1085 105 l 1,19,-1
 636 1123 l 1,20,-1
 187 105 l 1,18,-1
EndSplineSet
EndChar

